<svg xmlns="http://www.w3.org/2000/svg" width="200" height="200"><g fill="none" fill-rule="evenodd"><g fill-rule="nonzero"><path fill="#1C77C8" d="m105.46 2.181 45.292 21.812a10.44 10.44 0 0 1 5.649 7.083l11.186 49.012a10.44 10.44 0 0 1-2.016 8.832l-31.343 39.304a10.44 10.44 0 0 1-8.163 3.93H75.794a10.44 10.44 0 0 1-8.163-3.93L36.288 88.92a10.44 10.44 0 0 1-2.016-8.832l11.186-49.012a10.44 10.44 0 0 1 5.649-7.083L96.4 2.181a10.44 10.44 0 0 1 9.06 0Z"/><g transform="translate(59.223 31.284)"><path fill="#FFF" d="M73.722 38.221c0 6.037-5.192 11.009-11.612 11.009a3.4 3.4 0 0 1-.214-.011 11.07 11.07 0 0 0-.295-.018c-.128-.005-.128-.005-.276-.007H17.947C11.37 48.817 6.226 43.91 6.226 37.875c0-4.029 2.22-7.693 5.81-9.736l1.924-1.096-.66-2.114a6.64 6.64 0 0 1-.304-2.018c0-3.764 3.21-6.848 7.269-6.848 1.624 0 3.211.532 4.506 1.481l2.63 1.928 1.456-2.917c3.124-6.258 9.699-10.33 17.102-10.33 10.503 0 18.958 8.108 18.958 18.043 0 .12-.004.234-.016.504-.015.353-.02.514-.02.738v1.858l1.724.693c4.276 1.719 7.117 5.72 7.117 10.16Zm2.75 0c0-5.721-3.678-10.635-8.842-12.71 0-.409.037-.826.037-1.243 0-11.47-9.7-20.792-21.708-20.792-8.659 0-16.068 4.852-19.562 11.85a10.405 10.405 0 0 0-6.132-2.013c-5.566 0-10.019 4.302-10.019 9.598 0 1.002.146 1.934.43 2.839-4.317 2.457-7.2 6.963-7.2 12.125 0 7.691 6.487 13.616 14.471 14.069h43.378c.256 0 .502.035.785.035 7.91 0 14.362-6.173 14.362-13.758ZM7.497 22.911c0-6.852 5.72-12.347 12.768-12.347 1.773 0 3.511.364 5.112 1.043C29.807 4.919 37.48.727 45.96.727 59.28.726 70.141 10.98 70.411 23.78c5.334 2.87 8.81 8.347 8.81 14.44 0 9.128-7.706 16.508-17.111 16.508a7.7 7.7 0 0 1-.592-.024c-.125-.008-14.7-.013-43.726-.016C8.264 54.149.726 46.959.726 37.875c0-5.358 2.604-10.262 6.868-13.398a12.46 12.46 0 0 1-.097-1.566Z"/><path fill="#FFF" d="M56.398 62.907h9.967v3.65H52.818v-.922h-.07V52.088h3.65v10.819Zm-29.269 2.728v.921H13.583v-3.65h9.967V52.089h3.65v13.547h-.07ZM38.15 52.99h3.65v13.547h-3.65V52.99Z"/><ellipse cx="10.776" cy="64.731" stroke="#FFF" stroke-width="3.67" rx="3.64" ry="3.583"/><ellipse cx="39.974" cy="71.053" stroke="#FFF" stroke-width="3.67" rx="3.64" ry="3.583"/><ellipse cx="68.26" cy="64.731" stroke="#FFF" stroke-width="3.67" rx="3.64" ry="3.583"/></g></g><path fill="#646B76" d="M20.25 159.659h5.756l-13.18 12.805 15.099 16.977h-6.09L9.739 175.426l-3.88 3.712v10.303H1.313v-29.782h4.546v14.39l14.391-14.39Zm10.178 8.217h4.421v13.14c0 1.835.376 3.17 1.168 4.004.75.834 2.002 1.293 3.712 1.293 1.168 0 2.211-.5 3.212-1.419 1.001-.959 1.71-2.252 2.086-3.837v-13.18h4.421v21.564h-4.421v-2.92c-1.836 2.336-4.088 3.504-6.8 3.504-5.213 0-7.8-2.92-7.8-8.718v-13.43Zm24.067-8.801h4.422v12.013c1.752-2.545 3.92-3.796 6.59-3.796 3.087 0 5.506 1.126 7.3 3.379 1.627 2.085 2.46 4.713 2.46 7.883 0 3.296-.833 6.007-2.502 8.092-1.835 2.253-4.296 3.379-7.466 3.379-2.962 0-5.173-1.084-6.674-3.17v2.586h-4.13v-30.366Zm10.011 11.804c-1.668 0-3.003.626-4.004 1.96-1.168 1.419-1.71 3.296-1.71 5.632v.375c0 2.17.459 3.921 1.376 5.298 1.043 1.501 2.545 2.294 4.463 2.294 2.17 0 3.754-.793 4.797-2.336.834-1.335 1.293-3.17 1.293-5.548 0-2.377-.459-4.213-1.376-5.464-1.043-1.502-2.67-2.21-4.839-2.21Zm24.068-3.587c3.504 0 6.215 1.168 8.05 3.587 1.669 2.17 2.545 5.173 2.586 9.01H82.86c.166 2.086.708 3.712 1.71 4.839 1 1.084 2.377 1.668 4.129 1.668 1.543 0 2.795-.375 3.754-1.084.75-.584 1.377-1.544 1.96-2.795h4.422c-.5 2.002-1.46 3.712-2.962 5.047-1.877 1.627-4.254 2.461-7.132 2.461-3.17 0-5.715-1.001-7.55-2.962-2.002-2.085-3.003-4.88-3.003-8.425 0-3.212.917-5.882 2.836-8.05 1.835-2.211 4.38-3.296 7.55-3.296Zm.125 3.629c-1.668 0-2.961.459-3.963 1.46-.917.96-1.543 2.336-1.793 4.171H94.58c-.417-3.754-2.377-5.631-5.881-5.631Zm14.683-11.262h21.398v3.879h-16.852v8.676h15.85v3.88h-15.85v9.468h17.56v3.879h-22.106v-29.782Zm41.837-.584h4.421v30.366h-4.13v-2.586c-1.501 2.086-3.754 3.17-6.673 3.17-3.17 0-5.673-1.126-7.467-3.379-1.668-2.085-2.503-4.796-2.503-8.092 0-3.17.793-5.798 2.461-7.883 1.752-2.253 4.213-3.379 7.3-3.379 2.628 0 4.839 1.251 6.59 3.796v-12.013Zm-5.59 11.804c-2.169 0-3.796.71-4.838 2.211-.918 1.251-1.377 3.087-1.377 5.464 0 2.378.417 4.213 1.293 5.548 1.001 1.543 2.628 2.336 4.797 2.336 1.919 0 3.379-.793 4.463-2.294.918-1.377 1.377-3.129 1.377-5.298v-.375c0-2.336-.584-4.213-1.669-5.631-1.084-1.335-2.42-1.96-4.046-1.96Zm23.984-3.587c2.837 0 5.006 1.126 6.59 3.462v-2.878h4.422v20.147c0 6.84-3.378 10.26-10.052 10.26-3.003 0-5.298-.583-6.883-1.71-1.585-1.167-2.544-2.92-2.961-5.297h4.421c.25 1.252.751 2.17 1.585 2.712.793.5 2.086.792 3.838.792 3.754 0 5.63-2.044 5.63-6.09v-3.337c-1.584 2.378-3.753 3.588-6.59 3.588-2.92 0-5.297-1.002-7.09-2.962-1.836-1.96-2.712-4.547-2.712-7.8 0-3.254.876-5.84 2.711-7.842 1.794-2.044 4.172-3.045 7.091-3.045Zm.668 3.587c-1.877 0-3.337.626-4.338 1.96-1.085 1.252-1.585 3.046-1.585 5.34 0 2.085.417 3.754 1.251 4.964.96 1.418 2.503 2.169 4.672 2.169 1.877 0 3.337-.626 4.421-1.877 1.001-1.294 1.544-3.045 1.544-5.256 0-2.253-.543-4.046-1.544-5.34-1.084-1.334-2.544-1.96-4.421-1.96Zm24.485-3.587c3.503 0 6.215 1.168 8.05 3.587 1.668 2.17 2.544 5.173 2.586 9.01h-16.35c.166 2.086.708 3.712 1.71 4.839 1 1.084 2.377 1.668 4.129 1.668 1.543 0 2.794-.375 3.754-1.084.75-.584 1.376-1.544 1.96-2.795h4.422c-.5 2.002-1.46 3.712-2.962 5.047-1.877 1.627-4.254 2.461-7.133 2.461-3.17 0-5.714-1.001-7.55-2.962-2.002-2.085-3.003-4.88-3.003-8.425 0-3.212.918-5.882 2.837-8.05 1.835-2.211 4.38-3.296 7.55-3.296Zm.125 3.629c-1.669 0-2.962.459-3.963 1.46-.918.96-1.543 2.336-1.793 4.171h11.637c-.417-3.754-2.377-5.631-5.881-5.631Z"/></g></svg>