<svg xmlns="http://www.w3.org/2000/svg" width="2500" height="715" viewBox="-29.771 0 5703 1554"><g fill="#02489d"><path d="M1014.229 261s-28-31-65-31c0 0-81 0-136 175 0 0-47 153-47 380 0 0 0 214 44 365 0 0 44 153 108 153 0 0 45 0 83-84 0 0 38-84 54-221l120-30s-31 255-127 420c0 0-99 166-224 166 0 0-150 0-256-225 0 0-106-225-106-544 0 0 0-319 106-546 0 0 106-226 256-226 0 0 150 0 257 230z"/><path d="M1436.229 568s-207 171-537 254c0 0-331 82-594 28 0 0-263-56-302-217 0 0-33-134 112-282 0 0 143-147 400-245l17 66s-150 64-233 145c0 0-85 85-66 158 0 0 25 93 201 121 0 0 175 27 402-29 0 0 225-56 369-163 0 0 142-108 118-202 0 0-20-81-164-116l-22-86s187 7 311 69c0 0 127 62 153 167 0 0 41 160-165 332m1184-361v2l8 3 10-3 5-3 10 1s12 3 22 0h3l-50-6z"/><path d="M2307.229 35c-3 3-7 4-7 4l13 30h-9l9 29c6 33 6 98 6 98l-4 17-5 18 3 33c-1 13-16 28-16 28v16c-58 21-66 32-66 32l-31 9c-14 9-43 20-43 20-19 19-39 22-39 22l-3 2h-3v1h-8c11-22 0-45 0-45l-7-12-8-30c-7-24-12-26-12-26l-9 14-7 18h-6l-13 33-12 30-16 44c1 5-18 44-18 44l-8 8c0 28-12 36-12 36l-8 20c-6 15-7 13-7 13 1 8-5 50-5 50-3 42 11 50 11 50 6 9 3 12 3 12l15 30 5-1 6 10c10 23 31 17 31 17l38-11 8 34c4 22 12 28 12 28l29 6 30 3 29-13 65-15c42-9 63-20 63-20 17 32 14 58 14 58l-3 52 6 22 4 21 2 97 10 30-4 12v36l10 30 3 34h6l-3-31 11 2 2 15 3-1-2-19c-11-4-11-24-11-24 0-18 8-30 8-30 6 2 15 35 15 35 8 25 9 41 9 41h21v9l-6-5c-10 6-12 38-12 38-1 32 5 33 5 33 3 0 19-12 19-12l-4 6v3h6l3 17c7 0 7-41 7-41h4l7 6 3-3v-39l8 7 10-9 6-13c2-9-3-35-3-35 8-40 9-61 9-61v-22l29-65c8-25 9-65 9-65l3-67 12-17c11-10 12-16 12-16l23-65c18-47 30-52 30-52l58-13c38-12 35-32 35-32 19 0 27-83 27-83l16-82 14-27 6-63 11-62c3-29-14-43-14-43-11-10-42-18-42-18l-3 2c7 4 22 9 22 9 14 7 17 18 17 18 4 16-6 42-6 42-9 23-24 36-24 36l1 11c-4 14-27 41-27 41l-32 44-28 18c-38 1-50 13-50 13l-5-4c-6-9-6-55-6-55l-4-36c6-9 6-15 6-15v-20c10-12 69-34 69-34 53-22 59-43 59-43l3 3c-1 9 8 11 8 11 0-15 10-15 10-15l21 4v-3l-34-15c0 8-6 8-6 8l-13-2-1 6 5 3-7 11h-3c0-5-19-5-19-5l6-22c-17-8-18 7-18 7h-2l-3-6h-3l-1 5h-12l-8 9-9-3 6-6-6-12c12 0 18-14 18-14l-74 5c0 10 21 7 21 7 23-3 26 5 26 5l-23-2-21 3-3 9-6-4-6-5-15-6c-9 6-14 5-14 5l-10-6-10-10c-12-9-65-99-65-99-39-65-107-68-107-68zm-10 367 12 48 7 32c6 20 3 33 3 33l-19 28-23 30c-27 17-47 23-47 23l-51 7c-25 3-53 29-53 29-28 24-38 23-38 23-5 3-11 4-11 4-6-15 6-24 6-24-4-6 3-23 3-23l15-18 11-21 6-26c11-7 9-15 9-15l52-60 63-28c45-19 55-42 55-42zm1023-201 39-15 40-11 36-4 15-6 41-2 41 2 16 1 17 6 12 18 14 26s-8 39 0 47c0 0-6 12-9 89l-8 83-6 59 5 83s0 16-8 43c0 0 9 42 0 51 0 0 20 126 17 133l-11 27-9 26-1 15 4 5-3 18 2 17s-2 13-8 13l-15-10-12-14v-1s-26-22-38-16c0 0 0 37 24 74l5 3s3 17 31 61l3 6 23 68s17 24 83 54l6-1v-5s6 0 20-16c0 0 18-23 20-49v-51l6-36v-37l-9-33s-5-26 6-30c0 0 0-53-5-56 0 0 9-41 3-88l2-37v-38l-6-83-2-85-3-76-9-72s3-21 8-29c0 0-3-12 1-50 0 0-13-1-6-48l9-58s-3-15-29-48l-37-41s-23-12-35-9l-80 12s-56 6-71 23l-20-2-21 5-3 3-38 4-30 6h-11l-39 14-35 17-35 13s-31 26-47 23c0 0-68 17-95 33 0 0 0 2 18 6 0 0 18 5 20 15l20 6s48 8 75-10c0 0 6 3 40-12 0 0 7-9 24-9l21-12z"/><path d="m2443.229 1125-1 41s7 0 7-19c0 0 2-18-6-22m-88 22 5 17h2l4-9v-18h-3l-1 1 3-10-14-8s-3 9 4 27m20 29 2-3s3-30-3-36c0 0-8 7-2 39zm-21 70v112h94v-112h81v269h-81v-115h-94v115h-82v-269zm-275 63s-24 24-24 71v3s0 49 22 73c0 0 26 23 64 23l47-5 30-7v40l-30 9-52 3s-74 0-121-33c0 0-45-33-45-98v-12s0-61 47-97c0 0 47-38 118-38l51 3 32 8v42l-29-7-41-3s-44 0-69 25m1410-768s2 17-18 39l-6 8-1 3-6 12-3 14-9 6-3 6 3 1s10 3 27-6l16-4 19-2 13-1 8-2s18 6 32-15l3-27-3-15-5-11-6-3-9-4-21-2-3-3-20-9-15-6z"/><path d="m3420.229 242-26 7-29 6-55 12-28 16-24 6s-4 3-10 4l-11 2-11 3-40 18-20 12-14 3-4 3-2 2-7 9-14 7-17 12s-31 0-25 23h6s0 4 38 20l1 18s3 13 12 19h40l13 2h21s6 0 6 4l3 20 2 15-2 23-7 15-17 3-13 8-38 15-15 12-23 15-12 12 1 5v4l-12 11 2 12 4 3 14 13 20 3 9 16 12 12 15 3 12-2-2 9s-4 9 0 9l-6 20-7 14-3 7-18 14-9 12-9 16v7l-7 15-6 9v12l8 22 9 14s6 8 8 6c0 0 0 2 10 6 0 0 21 3 33 0l41-9 23-12 41-14 9-7s6 0 30-18c0 0 5 3 17-9 0 0 0 1 16-8l14-4s8-3 15-8l20-6 27-18 20-17s10-6 13-18l5-9 3-5h-12s-8 0-3-12l7-13-24-2s-15 0-15-6l-42 3 4-16 2-13 6-16s-5 0-5-9l6-5 11-1 24-34 26-27 1-7 6-12v-13l-3-15-16-16-29-20-12-6-5-5-10-7 3-5s0-13 7-28l30-32s8 0 22-29l10-13 3-13-1-13 3-9-2-14-15-26-7-10s0-12-20-12m-248 683-23 6h-35l-16 3-18-1 19 42s19 35 25 36l18 5 28-8s20-4 23-10h6s26-6 32-15l32-8 30-14 14-4 22-11 24-15 62-44s25-16 82-43l14-13v-3h-9s-8 6-40 14l-30 12-9 2-27 10-31 5-42 18-21 4-21 10-12 1-29 6s-24 12-30 14l-14-3zm-148-642-9 27s-5 15-3 32l3 12v42l3 26-5 19-1 32-6 14-9 38 3 7v32l-5 18v14l-3 28-5 20-4 63h-2l-3 19-7 16s-3 23 3 37l1 19 2 26s1 14-5 21l-3 24s-3 55 29 82c0 0 11 10 20 7l7-9s12-16 12-45l-4-48-3-14 6-45s0-20 3-28c0 0-15-10-5-58l2-28 1-18s3-15 5-15l3-15 3-11 15-71 14-41v-7l-6-11v-16l4-11 5-24h-2l2-18-2-18s-7 0-7-49l-9-29-8-9-9-18-9-28-8-7zm-363-50 1-6-4-8v12zm17-9-14-5v5zm373 1022v269h-35l-181-169v169h-59v-269h44l174 160v-160zm-355 0v269h-82v-269zm509 0-122 269h66l27-64h121l26 64h85l-127-269zm30 66 46 100h-88zm300-66h242v39h-79v230h-82v-230h-81zm1767-1063 11-14 11 2 7-2 33-3s2 6-30 6l-18 8 11 6 34 4s11 2 26 14l20 21-15 17-13 6-13 1-52 11-40 3-32 9-67 8-28 9-17 10h-3l-3-6-8 8s-3 6-3 15c0 0 0 13 8 18l18 5s12 6 18 6l38-11 41-8 38-10 62-9 196-5 50-7 15 3 14 1s18-9 24-6l2-10v-20l12-8s24-16 15-28l-32-9-36 1h-52s-19 0-18-10l2-14s-6-18-3-24l-2-31-20-15-12-1-13-11-56-24-21-6-12 3-19 32-1 3-11-3-13 9 1 1-7 5-23 17s-14 13-3 10h3l-6 5-29 10-3 9 8 3zm-1058-12-3 33s-17 27-21 41c0 0-14 107-23 118l-17 15-19 9-21 14-52 37-1 2 21 3 12 13 24-7 26-3 1 20 5 7-17 27s0 23-81 77c0 0-3-9 0-40l6-41-2-17-12-21s-14-18-15-26c0 0-17-3-18-18l-9-18s-3 0-8 18l-9 21-3 11-3 1s0 9-12 25l-12 21s-3 13 0 72l-5 59-9 58-12 39s-9 20 0 42c0 0 5 9 24 20 0 0 19 9 29 11l12 13s6 15 11 17l30 21 29 5 24 9 17 69s15 59 34 65h2s1 6 12 14l15 9s27 18 48 24l53 8 46 1 53 5s45-5 50-14l46-6s50-12 47-17l6-1 90-23 22-9h-4l4-9h3l-1-6h3l3 3 1-3-1-3 4-6-4 1 7-13 11-11h1v6l8-10h2v1l-4 3 2 3s-2 3 2 2l1-6 5-3 1 1 5-6 3-1v-9l-6-3-3 4v-7l-3-2v3l-3-1v-5l-4-4 7-5-2-3-8 8 3-10h5l2-3-13-1-4 3-2-2 2-7-9-2 6-3-3-3v-3l4 2v-2l-6-6-1 2-5-6-1-2-6 2-2-3v4h5v9h-2l-6-12-3-1-3 1 6-4h2l-11-2s-6 0-7 5l-11 6-17 12-18 4-18 8-59 11-50 15-18 3-97 10-25-9s-5 0-8-4l-3-11s-20-41-17-51l28-37 15-13s10-8 27-6l17-3 21-3 13-8 17-3 17-4 16-4 68-9 9-7 8-12 14-20s15-12 16-24v-15l5-18-15-35-16-33 29-74 5-19s4-15 9-15l4-21 5-23s6-13 4-21l-3-19 3-13-4-15s-6-9-6-15l-15-22-12-34s-6-15-31-25l-4 3-23-9s-15-10-29-6l-31-5-55 26-60 33h-18l12-77s3-41-40-61l-24-12zm186 183 45 10-1 6 9 12v9s0 8-12 20h-17s-47 33-75 39l-23 3h-11s-12 3-25 0c0 0-19-3-22-13l3-21s5-15 9-17c0 0 0-8 14-14l14-6s12-6 34-12l17-9 23-6zm9 172 3 3s5 5 2 11l-10 48-7 12s-8 11-48 29c0 0-41 27-64 10l-8-21 5-16s-2-14 2-22l13-15 33-18 43-15zm-325 104 20 8s9 9 3 36l-12 37-2 7-9 14-21 4s-6 0-26 11c0 0-9 6-20 10l-7 8-2-2 8-25-3-15 4-14 2-14 12-33 5-15h1s11 0 26-9l21-6zm868-347v9s-12 36-12 53l-20 31-3 11-6 12-17 36-27 59-15 18-23 35-7 23-8 24 2 23 1 35s5 3 8 4l10 15 2 32-2 33 5-7 4-12v-2h2l1 2-3 6 2 3h3l5-9 9-28 16-18 9-6 62-60s18-6 29 19l3 23 6 45v58l-7 33-7 59-9 27-12 70-1 75s0 32 30 35l14-16s22 1 13-11v-12l12-9h11l15-24 6-46 9-100 3-34 6-34 11-133s-5-30-3-42l9-21s4-9 4-33l-3-11-9-8-9-10s-7-3-16-8l-29-13-18 4 4-18 6-15 2-30 4-15s2-20-10-46l-21-42-2-12-10-26-23-20zm-805 963v230h135v39h-216v-269zm-281 39v74h108v41h-108v76h148v39h-229v-269h220v39zm470-39h221v39h-139v74h107v41h-107v76h150v39h-232zm375 63s-25 26-25 71v3s0 49 22 73c0 0 28 23 64 23l47-5 30-7v40l-30 9-52 3s-75 0-119-33c0 0-47-33-47-98v-12s0-61 47-97c0 0 47-38 119-38l50 3 32 8v42l-27-7-41-3s-44 0-70 25m325-68s-74 0-111 38c0 0-40 38-40 95v15s0 62 43 97c0 0 39 33 107 33 0 0 68 0 107-33 0 0 43-35 43-97v-15s0-57-40-95c0 0-36-38-109-38zm-1 40s44 0 54 22c0 0 12 27 12 74v8s0 48-15 74c0 0-15 23-51 23 0 0-42 0-54-22 0 0-13-18-13-75v-8s0-54 14-75c0 0 11-21 53-21zm435-924h-30s-21 0-30-6h-38l-32 9-30 12s-6 1-9 9c0 0-4 10 2 21 0 0 7 9 19 12l38 20 9 9 53 24 26 6h36l12 5s6 3 11 0c0 0 7-5 19-29l8-9v-12l1-14-13-12-8-20s-13-4-19-7l-12-12zm-146 151-61 10-1 7s-3 6 0 13l10 20 15 19 28 23s7 8 21 11l30 1 26 5s12 1 33 13l21-3h15l15-7s16-3 17-5c0 0 8-3 15-16l9-23v-9l2-8s1-6 9-9l10-6v-21s0-3-15-6l-19-2-21 3-58-13-32-2zm-141 251 9 41s-4 24-1 45l1 48-1 35 16 67 3 7v25s3 13 14 18l18 4 24 11 8 10s4 6 10 5c0 0 5-2 5-15l12-21 2-23 6-24 4-17 9-82-4-12-8-12 2-16v-15l3-2 45 2 17-19s25-24 41-30l7 11s6 16 2 41l-34 39-21 21s-13 11-16 24l-7 5-1 10-2 28s0 24 3 30l13 9 15 6 12 10 48 4 50-10 29 6 38-1 16-9 12-5 11-12v-16l3-37-14-7-3-2-16-13-2-12 23-61 1-33s-4-8 2-24v-31l-17-19-18-27-21-17-9-8-24-6-25 2-13-6-47 32-94 46-12 5-12 3s-12 0-17-5l-10-12-9-10-6-15-18-8-19-8s-9-4-13-13l-5-6-7 3-6 38zm101 756h-55v-269h60l136 196 139-196h53v269h-74v-154l-110 154h-44l-105-154z"/></g></svg>