<svg xmlns="http://www.w3.org/2000/svg" xmlns:xlink="http://www.w3.org/1999/xlink" width="87" height="66"><defs><linearGradient id="c" x1="-.95" x2="1.015" y1=".96" y2=".375"><stop offset="0" stop-color="#B4EC51"/><stop offset="1" stop-color="#00C5D7"/></linearGradient><linearGradient id="e" x1=".999" x2=".407" y1=".502" y2=".502"><stop offset="0" stop-color="#B4EC51"/><stop offset="1" stop-color="#00C5D7"/></linearGradient><radialGradient id="d" cx="44.132%" cy="-10.767%" r="158.879%" fx="44.132%" fy="-10.767%" gradientTransform="matrix(.76124 0 0 .76124 .105 -.026)" gradientUnits="objectBoundingBox"><stop offset="0%" stop-color="#29FFE2"/><stop offset="26.33%" stop-color="#1687E6"/><stop offset="100%" stop-color="#0079D2"/></radialGradient><clipPath id="b"><use xlink:href="#a" clip-rule="evenodd"/></clipPath><path id="a" d="M0 0h87v66H0z"/></defs><g clip-path="url(#b)"><g fill-rule="evenodd"><path fill="url(#c)" d="M20.09 6.892A25.215 25.215 0 0 0 19.605 0c8.116.086 14.67 6.674 14.67 14.789 0 8.053-6.455 14.603-14.486 14.785v.004H0a24.772 24.772 0 0 0 12.572-6.534h7.216v-.002c4.397-.092 7.933-3.675 7.933-8.081 0-4.306-3.375-7.825-7.631-8.07Z" transform="translate(45.308 19.984)"/><path fill="url(#d)" d="M13.793 48.562h27.242v-.048c12.703-.8 22.759-11.344 22.759-24.233C63.794 10.871 52.909 0 39.483 0c-11.6 0-21.303 8.115-23.727 18.972-.307-.02-.617-.03-.928-.03C6.638 18.943 0 25.574 0 33.753c0 7.833 6.087 14.244 13.793 14.775v.035Zm43.599-23.95c0 9.346-7.318 16.984-16.547 17.519v.03H14.992v-.002c-4.394-.092-7.928-3.676-7.928-8.084 0-.549.054-1.084.158-1.602.062-.94.166-1.952.235-2.297 1.794-8.94 9.445-12.54 16.921-13.975a17.581 17.581 0 0 1 15.434-9.138c9.709 0 17.58 7.857 17.58 17.549Z" transform="translate(1 1)"/><path fill="url(#e)" d="M27.62 5.822c-8.756 0-25.94.322-27.62 16.032 4.517-9.173 19.844-10.197 27.62-8.252v5.822l11.672-9.712L27.62 0v5.822Z" transform="translate(8.726 11.374)"/></g><g fill-rule="evenodd"><path fill="#2998FF" d="M16.548 54.892c0-.61.49-1.1 1.086-1.1.61 0 1.087.49 1.087 1.1a1.08 1.08 0 0 1-1.087 1.072c-.596 0-1.086-.49-1.086-1.072Zm-13.757 3.96c0 2.993 2.185 4.887 4.808 4.887 2.635 0 3.986-1.749 4.344-3.192l-1.709-.516c-.252.874-1.033 1.92-2.636 1.92-1.51 0-2.913-1.1-2.913-3.099 0-2.132 1.483-3.14 2.887-3.14 1.629 0 2.357.994 2.582 1.895l1.722-.544c-.37-1.522-1.708-3.111-4.304-3.111-2.516-.001-4.781 1.906-4.781 4.9Zm12.13 4.688H13.16v-9.589h1.761v9.59Zm19-6.516-2.608 2.741 2.662 3.775h-2.159l-1.722-2.49-.728.768v1.722h-1.762v-9.589h1.762v5.496l2.251-2.423h2.305Zm.661 1.192 1.735.052a1.887 1.887 0 0 1-.066-.476c0-.808.45-1.43 1.364-1.43.861 0 1.298.555 1.298 1.178 0 .596-.291 1.046-1.02 1.483l-1.417.847c-1.536.928-2.013 2.16-2.026 3.67h6.357v-1.577h-4.12c.134-.331.412-.57.743-.782l1.655-1.006c1.06-.649 1.67-1.55 1.67-2.662 0-1.497-1.18-2.768-3.1-2.768-2 0-3.14 1.364-3.14 2.873.001.213.04.478.067.598Zm-12.95 2.066c0-1.179.756-1.828 1.656-1.828.874 0 1.285.556 1.444 1.1l1.576-.53c-.278-1.1-1.284-2.199-3.06-2.199-1.894 0-3.377 1.444-3.377 3.457 0 2 1.51 3.457 3.43 3.457 1.736 0 2.756-1.113 3.047-2.199l-1.55-.517c-.145.504-.596 1.1-1.496 1.1-.901 0-1.67-.663-1.67-1.84ZM16.76 63.54h1.762v-6.517H16.76v6.517Z"/><path fill="#1ABC9C" d="M41.693 58.852c0 2.993 2.185 4.887 4.808 4.887 2.635 0 3.986-1.749 4.344-3.192l-1.709-.516c-.252.874-1.033 1.92-2.636 1.92-1.51 0-2.913-1.1-2.913-3.099 0-2.132 1.483-3.14 2.887-3.14 1.629 0 2.357.994 2.583 1.895l1.721-.544c-.37-1.522-1.708-3.111-4.304-3.111-2.516-.001-4.781 1.906-4.781 4.9Zm12.13 4.688h-1.761v-9.589h1.761v9.59Zm23.411-9.589v8.41c0 .438.027.914.053 1.18h-1.682a4.504 4.504 0 0 1-.066-.756c-.292.516-.954.914-1.828.914-1.854 0-3.178-1.457-3.178-3.43 0-1.907 1.284-3.404 3.125-3.404 1.126 0 1.656.463 1.841.808V53.95h1.735Zm-18.645 2.874c1.947 0 3.417 1.443 3.417 3.456 0 2-1.47 3.457-3.417 3.457-1.947 0-3.417-1.457-3.417-3.457 0-2.013 1.47-3.456 3.417-3.456Zm8.952 6.012c0 .265.026.57.053.703h1.682a10.761 10.761 0 0 1-.066-1.179v-5.337h-1.762v3.787c0 .755-.45 1.285-1.232 1.285-.82 0-1.191-.582-1.191-1.311v-3.761h-1.762v4.118c0 1.418.9 2.57 2.477 2.57.689 0 1.443-.265 1.8-.875Zm-7.296-2.555c0 1.231-.795 1.854-1.656 1.854-.86 0-1.655-.636-1.655-1.854 0-1.232.794-1.854 1.655-1.854.86 0 1.656.622 1.656 1.854Zm13.678 1.84c-.927 0-1.616-.688-1.616-1.854 0-1.165.715-1.828 1.616-1.828.9 0 1.602.65 1.602 1.815 0 1.179-.701 1.868-1.602 1.868ZM81.053 54.476h-.887v2.622h-.597v-2.622h-.876v-.525h2.36v.525Zm1.793-.525.96 2.282.956-2.282h1.011v3.147H85v-.86l.077-1.485-1.009 2.345h-.529l-1.006-2.343.077 1.483v.86h-.77V53.95h1.006Z"/></g></g></svg>