<?xml version="1.0" encoding="utf-8"?>
<svg width="87px" height="66px" viewBox="0 0 87 66" version="1.1" xmlns:xlink="http://www.w3.org/1999/xlink" xmlns="http://www.w3.org/2000/svg">
  <defs>
    <linearGradient x1="-0.95040166" y1="0.96032715" x2="1.0150703" y2="0.37530518" id="gradient_1">
      <stop offset="0" stop-color="#B4EC51" />
      <stop offset="1" stop-color="#00C5D7" />
    </linearGradient>
    <radialGradient gradientUnits="objectBoundingBox" cx="44.13202%" cy="-10.767293%" fx="44.13202%" fy="-10.767293%" r="158.87852%" gradientTransform="translate(0.44132018,-0.10767293),scale(0.76124364,1),scale(1,0.7612436),translate(-0.44132018,0.10767293)" id="gradient_2">
      <stop offset="0%" stop-color="#29FFE2" />
      <stop offset="26.33%" stop-color="#1687E6" />
      <stop offset="100%" stop-color="#0079D2" />
    </radialGradient>
    <linearGradient x1="0.9990182" y1="0.50164795" x2="0.4074297" y2="0.50164795" id="gradient_3">
      <stop offset="0" stop-color="#B4EC51" />
      <stop offset="1" stop-color="#00C5D7" />
    </linearGradient>
    <rect width="87" height="66" id="artboard_1" />
    <clipPath id="clip_1">
      <use xlink:href="#artboard_1" clip-rule="evenodd" />
    </clipPath>
  </defs>
  <g id="C2C_Website_Logo" clip-path="url(#clip_1)">
    <g id="logo" transform="translate(1 1)">
      <g id="Mask-group">
        <g id="Artboard">
          <g id="Click2Cloud_logo">
            <g id="Click2Cloud-final-logo">
              <g id="Group-2">
                <g id="Group">
                  <path d="M20.0897 6.89167C20.1279 6.32802 20.1471 5.75949 20.1471 5.18638C20.1471 3.40784 19.9603 1.67264 19.6051 0C27.7214 0.0863628 34.275 6.67439 34.275 14.7889C34.275 22.842 27.8203 29.3919 19.7885 29.5741L19.7885 29.5784L0 29.5784C4.83421 28.6552 9.171 26.3305 12.5715 23.0435L19.7882 23.0435L19.7882 23.0416C24.1848 22.9498 27.7208 19.3671 27.7208 14.9607C27.7211 10.6553 24.3456 7.13612 20.0897 6.89167L20.0897 6.89167L20.0897 6.89167Z" transform="translate(44.30841 18.98407)" id="Combined-Shape" fill="url(#gradient_1)" fill-rule="evenodd" stroke="none" />
                  <path d="M13.7931 48.5624L41.0348 48.5624L41.0348 48.5142C53.7382 47.7144 63.7935 37.1704 63.7935 24.2812C63.7935 10.8711 52.909 0 39.483 0C27.8829 0 18.1803 8.1151 15.7557 18.9716C15.449 18.9523 15.1392 18.9429 14.8276 18.9429C6.63869 18.9429 0 25.5733 0 33.7528C0 41.5847 6.08664 47.9964 13.7931 48.5267L13.7931 48.5624L13.7931 48.5624L13.7931 48.5624ZM57.3919 24.612C57.3919 33.9576 50.0739 41.5963 40.8453 42.131L40.8453 42.1603L14.9921 42.1603L14.9921 42.159C10.5976 42.0672 7.06378 38.4827 7.06378 34.0745C7.06378 33.5261 7.1181 32.9908 7.22247 32.4729C7.28412 31.5336 7.38757 30.5211 7.45715 30.1759C9.25064 21.2359 16.9019 17.6352 24.3782 16.2012C27.3628 10.7561 33.1553 7.06348 39.8116 7.06348C49.5207 7.06348 57.3919 14.9204 57.3919 24.612L57.3919 24.612L57.3919 24.612Z" id="Combined-Shape_1_" fill="url(#gradient_2)" fill-rule="evenodd" stroke="none" />
                  <path d="M27.6207 5.82235C18.8641 5.82235 1.67966 6.1437 0 21.8536C4.51714 12.6805 19.8437 11.6566 27.6207 13.6015L27.6207 19.4235L39.2917 9.71206L27.6207 0L27.6207 5.82235L27.6207 5.82235L27.6207 5.82235Z" transform="translate(7.725708 10.374268)" id="redo-arrow-copy-2" fill="url(#gradient_3)" fill-rule="evenodd" stroke="none" />
                </g>
              </g>
              <g id="Group-2_1_" transform="translate(1.7909546 52.791748)">
                <path d="M13.7574 1.09984C13.7574 0.490108 14.2475 0 14.8435 0C15.4526 0 15.9296 0.489803 15.9296 1.09984C15.9296 1.6821 15.4526 2.17221 14.8435 2.17221C14.2475 2.17221 13.7574 1.6821 13.7574 1.09984L13.7574 1.09984L13.7574 1.09984ZM0 5.06002C0 8.05285 2.18533 9.94704 4.80766 9.94704C7.44342 9.94704 8.79411 8.19841 9.15177 6.75526L7.44312 6.23922C7.19135 7.11292 6.41011 8.15904 4.80735 8.15904C3.29737 8.15904 1.89358 7.05982 1.89358 5.06034C1.89358 2.92781 3.37702 1.92105 4.78081 1.92105C6.40981 1.92105 7.13825 2.91408 7.36347 3.81525L9.08524 3.27174C8.71446 1.74894 7.37659 0.159912 4.78111 0.159912C2.26498 0.159298 0 2.066 0 5.06002L0 5.06002L0 5.06002ZM12.1303 9.74838L10.3688 9.74838L10.3688 0.159302L12.1303 0.159302L12.1303 9.74838L12.1303 9.74838L12.1303 9.74838ZM31.1308 3.23176L28.5216 5.97342L31.1839 9.74807L29.0251 9.74807L27.3034 7.25788L26.5749 8.0263L26.5749 9.74838L24.8135 9.74838L24.8135 0.159302L26.5749 0.159302L26.5749 5.65543L28.8265 3.23207L31.1308 3.23207L31.1308 3.23176L31.1308 3.23176ZM31.7915 4.42406L33.5263 4.47655C33.4867 4.33099 33.4601 4.15888 33.4601 4.00018C33.4601 3.19209 33.9106 2.56955 34.8242 2.56955C35.6851 2.56955 36.1221 3.12556 36.1221 3.74842C36.1221 4.34442 35.8307 4.79454 35.1026 5.23125L33.685 6.0787C32.1488 7.00613 31.6718 8.23748 31.6587 9.74778L38.016 9.74778L38.016 8.17128L33.8968 8.17128C34.0296 7.83986 34.3076 7.60213 34.6387 7.38972L36.2943 6.38297C37.3538 5.73448 37.9632 4.83331 37.9632 3.72157C37.9632 2.2244 36.7844 0.953064 34.8639 0.953064C32.8641 0.953064 31.7249 2.31749 31.7249 3.82655C31.7252 4.03955 31.7649 4.30474 31.7915 4.42406L31.7915 4.42406L31.7915 4.42406ZM18.8418 6.49042C18.8418 5.31154 19.5968 4.66245 20.4974 4.66245C21.3714 4.66245 21.7818 5.21847 21.9408 5.76167L23.517 5.2319C23.2387 4.13267 22.2326 3.03375 20.4577 3.03375C18.5635 3.03375 17.0804 4.4769 17.0804 6.49073C17.0804 8.4899 18.5901 9.94709 20.5108 9.94709C22.2457 9.94709 23.2656 8.83443 23.557 7.74834L22.0074 7.23168C21.8618 7.73521 21.4114 8.33152 20.5108 8.33152C19.6099 8.3309 18.8418 7.66868 18.8418 6.49042L18.8418 6.49042L18.8418 6.49042ZM13.9695 9.74837L15.731 9.74837L15.731 3.23175L13.9695 3.23175L13.9695 9.74837L13.9695 9.74837L13.9695 9.74837Z" id="Click2Cloud" fill="#2998FF" fill-rule="evenodd" stroke="none" />
                <path d="M0 4.90073C0 7.89354 2.18533 9.78773 4.80766 9.78773C7.44342 9.78773 8.79411 8.0391 9.15177 6.59596L7.44312 6.07991C7.19135 6.95362 6.40981 7.99974 4.80736 7.99974C3.29768 7.99974 1.89359 6.90052 1.89359 4.90104C1.89359 2.7685 3.37672 1.76175 4.78081 1.76175C6.40981 1.76175 7.13825 2.75477 7.36377 3.65594L9.08555 3.11243C8.71446 1.58963 7.3769 0.000610352 4.78111 0.000610352C2.26467 -3.8147e-06 0 1.9067 0 4.90073L0 4.90073L0 4.90073ZM12.1303 9.58907L10.3688 9.58907L10.3688 0L12.1303 0L12.1303 9.58907L12.1303 9.58907L12.1303 9.58907ZM35.5411 7.62939e-06L35.5411 8.41021C35.5411 8.84782 35.5677 9.32388 35.5942 9.58908L33.9121 9.58908C33.8856 9.45603 33.8456 9.13835 33.8456 8.83378C33.5545 9.34983 32.8922 9.74746 32.0179 9.74746C30.164 9.74746 28.8396 8.29088 28.8396 6.31735C28.8396 4.41064 30.124 2.91408 31.9648 2.91408C33.0909 2.91408 33.6207 3.37733 33.8062 3.72156L33.8062 0L35.5411 0L35.5411 7.62939e-06L35.5411 7.62939e-06ZM16.8964 2.87408C18.8431 2.87408 20.3131 4.31724 20.3131 6.33045C20.3131 8.33023 18.8431 9.78742 16.8964 9.78742C14.9494 9.78742 13.4794 8.33023 13.4794 6.33045C13.4794 4.31693 14.9494 2.87408 16.8964 2.87408L16.8964 2.87408L16.8964 2.87408ZM25.8477 8.88625C25.8477 9.15144 25.8745 9.45602 25.9011 9.58907L27.5829 9.58907C27.5566 9.36385 27.5166 8.91372 27.5166 8.41019L27.5166 3.07275L25.7555 3.07275L25.7555 6.85992C25.7555 7.61523 25.3051 8.145 24.5235 8.145C23.7026 8.145 23.3318 7.56274 23.3318 6.83369L23.3318 3.07275L21.5704 3.07275L21.5704 7.19135C21.5704 8.60886 22.4709 9.76149 24.0471 9.76149C24.7356 9.76118 25.49 9.49599 25.8477 8.88625L25.8477 8.88625L25.8477 8.88625ZM18.552 6.33048C18.552 7.56245 17.7573 8.1847 16.8964 8.1847C16.0352 8.1847 15.2409 7.54872 15.2409 6.33048C15.2409 5.09851 16.0352 4.47687 16.8964 4.47687C17.757 4.47687 18.552 5.09851 18.552 6.33048L18.552 6.33048L18.552 6.33048ZM32.2297 8.17157C31.3029 8.17157 30.6138 7.48249 30.6138 6.31735C30.6138 5.15221 31.3294 4.48938 32.2297 4.48938C33.1306 4.48938 33.8325 5.13848 33.8325 6.30423C33.8325 7.48248 33.1306 8.17157 32.2297 8.17157L32.2297 8.17157L32.2297 8.17157Z" transform="translate(38.901978 0.15930176)" id="Click2Cloud_1_" fill="#1ABC9C" fill-rule="evenodd" stroke="none" />
                <path d="M2.36009 0.525187L1.47257 0.525187L1.47257 3.1468L0.875583 3.1468L0.875583 0.525187L0 0.525187L0 0L2.36009 0L2.36009 0.525187ZM4.15327 0L5.11354 2.28229L6.06867 0L7.08028 0L7.08028 3.1468L6.30745 3.1468L6.30745 2.28661L6.38447 0.801828L5.37543 3.1468L4.84651 3.1468L3.84003 0.803989L3.91706 2.28661L3.91706 3.1468L3.14679 3.1468L3.14679 0L4.15327 0Z" transform="translate(75.90198 0.15930176)" id="TM" fill="#1ABC9C" fill-rule="evenodd" stroke="none" />
              </g>
            </g>
          </g>
        </g>
      </g>
    </g>
  </g>
</svg>