<svg xmlns="http://www.w3.org/2000/svg" width="500" height="122" viewBox="0 24 500 122"><path fill="#0fd15d" d="M56.051 49.964 83.453 36.46 55.931 24.443 28.397 36.329ZM27.906 86.999l-1.378-22.262 20.009-10.016L18.26 40.714 0 48.718l2.372 21.399ZM109.478 69.985l2.624-21.267-18.512-8.004-28.026 14.007 20.262 10.016-1.63 22.262ZM83.453 97.639l-2.001 29.02 23.269-17.517 3.499-28.145ZM28.529 97.639 3.75 80.997l3.259 28.277 23.389 17.385ZM74.694 103.522l-18.523 12.509-18.764-12.509 1.881 29.775 16.763 12.509 16.511-12.509Z"/><path fill="#0f1011" d="M142.979 111.862V47.651h23.58c13.18 0 21.291 8.076 21.291 20.92v22.394c0 12.761-8.159 20.933-21.291 20.933Zm12.293-10.928h11.287c5.787 0 8.902-3.762 8.902-11.107V69.674c0-7.345-3.115-11.107-8.902-11.107h-11.287ZM245.052 82.614c0-11.982 7.62-19.362 20.009-19.362s19.914 7.344 19.914 19.362v10.784c.084 11.982-7.621 19.362-19.914 19.362-12.293 0-20.009-7.345-20.009-19.362Zm11.742 9.825c0 6.698 2.935 10.185 8.267 10.185 5.332 0 8.16-3.487 8.16-10.185v-8.818c0-6.698-2.936-10.185-8.16-10.185s-8.171 3.487-8.171 10.185ZM235.394 111.862h-10.1l-.683-4.553a18.502 18.502 0 0 1-13.564 5.523c-9.154 0-15.983-6.53-15.983-14.378 0-20.297 28.073-20.453 28.073-20.453 0-1.569-2.229-6.362-12.329-6.362-2.976.095-5.92.636-8.735 1.605l-2.277-6.302a38.55 38.55 0 0 1 15.876-3.75c12.425 0 19.686 5.188 19.686 17.05Zm-21.843-8.28a12.376 12.376 0 0 0 9.861-5.439V85.13c-1.905 0-16.355 1.199-16.355 12.222a5.992 5.992 0 0 0 6.458 6.254ZM316.139 113.156c-12.736 0-22.046-8.04-22.046-20.681V67.984c0-12.652 9.31-20.596 22.046-20.596 8.04 0 12.833 2.252 18.249 6.051l-4.697 8.495c-4.613-2.529-7.597-3.978-13.552-3.978-5.954 0-9.849 4.241-9.849 11.119v22.31c0 7.189 3.978 11.119 9.849 11.119 5.872 0 8.939-1.45 13.552-3.978l4.697 8.579c-5.416 3.798-10.209 6.051-18.249 6.051ZM342.164 111.862V44.129h11.562v67.733ZM363.839 83.105c0-11.826 7.501-19.063 19.698-19.063s19.602 7.201 19.602 19.063v10.664c.084 11.838-7.5 19.063-19.614 19.063s-19.698-7.189-19.698-19.063Zm11.574 9.586c0 6.602 2.888 10.029 8.124 10.029 5.236 0 8.04-3.427 8.04-10.029v-8.627c0-6.59-2.888-10.029-8.04-10.029-5.152 0-8.04 3.439-8.04 10.029ZM427.366 112.796c-10.783 0-14.282-6.506-14.282-18.428V64.917h11.622v28.361c0 6.686 1.354 9.585 5.872 9.585a10.111 10.111 0 0 0 8.71-5.379V64.917h11.659v46.945h-10.125l-.899-4.434a19.659 19.659 0 0 1-12.557 5.368ZM489.971 107.92a18.594 18.594 0 0 1-12.736 4.876c-10.568 0-16.08-7.189-16.08-19.063V82.255c0-11.982 5.332-18.249 15.72-18.249 3.935-.079 7.844.66 11.479 2.169V44.129H500v67.733h-9.478Zm-1.617-31.8a20.51 20.51 0 0 0-8.855-1.809c-4.433 0-6.865 2.708-6.865 8.854v9.586c0 6.602 1.797 10.028 7.045 10.028a9.346 9.346 0 0 0 8.675-4.792Z"/></svg>