<svg width="290" height="217" viewBox="0 0 290 217" fill="none" xmlns="http://www.w3.org/2000/svg">
<path d="M179.635 93.038C179.411 93.038 179.185 92.995 178.966 92.904C178.073 92.534 177.649 91.51 178.019 90.617C178.447 89.584 178.964 88.577 179.556 87.627C180.067 86.806 181.145 86.555 181.967 87.066C182.787 87.577 183.039 88.656 182.528 89.477C182.037 90.266 181.608 91.101 181.253 91.957C180.972 92.631 180.321 93.038 179.635 93.038Z" fill="#8860D0"/>
<path d="M105.098 96.755C104.463 96.755 103.851 96.409 103.541 95.806C103.339 95.414 103.144 95.019 102.954 94.62C102.538 93.747 102.91 92.703 103.782 92.288C104.655 91.872 105.699 92.244 106.114 93.116C106.288 93.481 106.468 93.844 106.652 94.203C107.095 95.062 106.757 96.118 105.898 96.56C105.642 96.692 105.368 96.755 105.098 96.755ZM101.579 87.079C100.779 87.079 100.057 86.527 99.8728 85.713C99.1818 82.645 98.8308 79.482 98.8308 76.311C98.8308 74.225 98.9838 72.128 99.2848 70.079C99.4258 69.123 100.313 68.463 101.271 68.602C102.227 68.743 102.889 69.631 102.748 70.588C102.472 72.47 102.331 74.396 102.331 76.312C102.331 79.224 102.653 82.128 103.287 84.944C103.499 85.887 102.908 86.823 101.965 87.036C101.836 87.065 101.706 87.079 101.579 87.079Z" fill="#5680E9"/>
<path d="M183.676 77.177C182.748 77.177 181.974 76.448 181.929 75.51C180.897 53.952 163.172 37.066 141.575 37.066C125.131 37.066 110.457 46.919 104.192 62.166C103.825 63.06 102.802 63.486 101.908 63.12C101.014 62.753 100.587 61.73 100.954 60.836C107.761 44.27 123.705 33.566 141.574 33.566C165.041 33.566 184.302 51.917 185.424 75.343C185.47 76.308 184.725 77.128 183.759 77.175C183.732 77.176 183.704 77.177 183.676 77.177Z" fill="#5680E9"/>
<path d="M93.344 58.007C92.61 57.955 91.865 57.928 91.131 57.928C81.516 57.928 72.345 62.538 66.597 70.261C66.597 70.261 66.597 70.262 66.596 70.262L66.48 70.419C65.907 71.198 66.074 72.293 66.853 72.865C67.165 73.095 67.528 73.205 67.888 73.205C68.426 73.205 68.956 72.958 69.299 72.492L69.403 72.351C69.403 72.351 69.403 72.351 69.404 72.35C74.57 65.409 82.489 61.428 91.13 61.428C91.781 61.428 92.442 61.451 93.093 61.498C94.057 61.569 94.895 60.841 94.964 59.877C95.034 58.913 94.308 58.076 93.344 58.007Z" fill="#5AB9EA"/>
<path d="M62.4629 91.9C63.4279 91.845 64.1659 91.019 64.1099 90.053C64.0809 89.537 64.0659 89.016 64.0659 88.492C64.0659 84.658 64.8509 80.953 66.3989 77.482C66.7929 76.599 66.3969 75.565 65.5139 75.171C64.6329 74.776 63.5969 75.173 63.2029 76.056C61.4529 79.979 60.5659 84.162 60.5659 88.492C60.5659 89.083 60.5829 89.67 60.6159 90.252C60.6689 91.183 61.4399 91.902 62.3619 91.902C62.3949 91.903 62.4289 91.902 62.4629 91.9Z" fill="#5AB9EA"/>
<path d="M65.9719 98.488C65.6169 97.595 65.3069 96.674 65.0499 95.749C64.7919 94.818 63.8289 94.271 62.8959 94.531C61.9649 94.789 61.4189 95.754 61.6779 96.685C61.9679 97.73 62.3189 98.771 62.7189 99.78C62.9919 100.467 63.6499 100.884 64.3459 100.884C64.5609 100.884 64.7799 100.844 64.9919 100.76C65.8899 100.403 66.3289 99.386 65.9719 98.488Z" fill="#5AB9EA"/>
<path d="M76.947 111.547C76.128 111.042 75.328 110.488 74.571 109.9C73.805 109.308 72.708 109.447 72.115 110.211C71.523 110.975 71.662 112.074 72.426 112.667C73.282 113.331 74.185 113.956 75.109 114.526C75.396 114.703 75.713 114.787 76.026 114.787C76.613 114.787 77.186 114.492 77.517 113.956C78.025 113.132 77.769 112.054 76.947 111.547Z" fill="#5AB9EA"/>
<path d="M68.6649 103.589C68.1249 102.787 67.0369 102.576 66.2359 103.115C65.4339 103.655 65.2219 104.742 65.7619 105.544C66.3669 106.442 67.0279 107.319 67.7259 108.149C68.0719 108.561 68.5669 108.773 69.0659 108.773C69.4629 108.773 69.8629 108.638 70.1909 108.362C70.9309 107.74 71.0259 106.636 70.4039 105.897C69.7859 105.162 69.1999 104.385 68.6649 103.589Z" fill="#5AB9EA"/>
<path d="M84.9299 114.844C83.9939 114.625 83.0609 114.352 82.1549 114.034C81.2419 113.714 80.2439 114.193 79.9239 115.105C79.6029 116.017 80.0829 117.016 80.9949 117.336C82.0189 117.696 83.0739 118.004 84.1319 118.252C84.2659 118.283 84.3999 118.298 84.5319 118.298C85.3259 118.298 86.0459 117.754 86.2349 116.946C86.4559 116.006 85.8719 115.065 84.9299 114.844Z" fill="#5AB9EA"/>
<path d="M147.88 115.557H122.837H91.5889C90.6229 115.557 89.8389 116.341 89.8389 117.307C89.8389 118.273 90.6229 119.057 91.5889 119.057H122.837H147.88C148.846 119.057 149.63 118.273 149.63 117.307C149.63 116.341 148.846 115.557 147.88 115.557Z" fill="#5AB9EA"/>
<path d="M117.368 111.128C117.009 111.128 116.646 111.018 116.334 110.789C113.102 108.416 110.216 105.604 107.759 102.431C107.167 101.667 107.307 100.568 108.071 99.976C108.836 99.384 109.934 99.524 110.526 100.288C112.783 103.204 115.434 105.788 118.404 107.968C119.183 108.54 119.351 109.635 118.779 110.414C118.438 110.88 117.906 111.128 117.368 111.128Z" fill="#5680E9"/>
<path d="M35.071 182.268C34.323 182.268 33.699 182.016 33.195 181.512C32.69 181.008 32.438 180.383 32.438 179.636V141.164C32.438 140.38 32.69 139.745 33.195 139.26C33.699 138.775 34.323 138.531 35.071 138.531H45.207C48.417 138.531 51.339 139.063 53.971 140.128C56.603 141.191 58.89 142.703 60.831 144.664C62.771 146.624 64.274 148.93 65.339 151.579C66.403 154.23 66.935 157.161 66.935 160.371C66.935 163.583 66.404 166.522 65.339 169.191C64.275 171.861 62.772 174.175 60.831 176.135C58.89 178.095 56.602 179.607 53.971 180.671C51.339 181.734 48.417 182.267 45.207 182.267H35.071V182.268ZM37.702 177.564H45.206C48.454 177.564 51.318 176.828 53.802 175.352C56.284 173.877 58.244 171.843 59.682 169.248C61.119 166.653 61.838 163.695 61.838 160.371C61.838 157.012 61.118 154.044 59.682 151.468C58.244 148.892 56.285 146.876 53.802 145.42C51.319 143.964 48.454 143.235 45.206 143.235H37.702V177.564V177.564Z" fill="#394B74"/>
<path d="M80.319 182.268C79.571 182.268 78.947 182.016 78.443 181.512C77.938 181.008 77.686 180.383 77.686 179.636V141.164C77.686 140.38 77.938 139.745 78.443 139.26C78.947 138.775 79.571 138.531 80.319 138.531H106.022C106.769 138.531 107.385 138.765 107.871 139.231C108.355 139.699 108.599 140.305 108.599 141.051C108.599 141.723 108.356 142.292 107.871 142.759C107.386 143.226 106.769 143.459 106.022 143.459H82.95V157.795H99.582C100.366 157.795 100.99 158.028 101.458 158.494C101.924 158.962 102.158 159.55 102.158 160.259C102.158 160.968 101.924 161.557 101.458 162.023C100.99 162.491 100.366 162.723 99.582 162.723H82.95V177.339H106.021C106.768 177.339 107.384 177.572 107.87 178.039C108.354 178.506 108.598 179.074 108.598 179.747C108.598 180.494 108.355 181.101 107.87 181.566C107.385 182.034 106.768 182.266 106.021 182.266H80.319V182.268Z" fill="#394B74"/>
<path d="M137.998 182.828C134.974 182.828 132.145 182.26 129.514 181.12C126.882 179.982 124.586 178.386 122.626 176.333C120.666 174.28 119.126 171.891 118.006 169.165C116.886 166.439 116.326 163.509 116.326 160.372C116.326 157.274 116.876 154.372 117.977 151.665C119.078 148.958 120.618 146.578 122.597 144.524C124.576 142.471 126.871 140.866 129.486 139.709C132.098 138.552 134.936 137.973 137.998 137.973C140.798 137.973 143.262 138.356 145.39 139.12C147.518 139.886 149.627 141.128 151.718 142.845C152.017 143.069 152.231 143.321 152.363 143.601C152.493 143.881 152.549 144.161 152.531 144.441C152.511 144.721 152.447 144.993 152.335 145.253C152.297 145.813 152.064 146.261 151.635 146.597C151.205 146.933 150.701 147.111 150.123 147.129C149.544 147.148 148.975 146.952 148.415 146.541C146.995 145.309 145.503 144.376 143.935 143.74C142.368 143.106 140.388 142.788 137.999 142.788C135.722 142.788 133.584 143.256 131.587 144.188C129.589 145.122 127.825 146.391 126.295 147.996C124.764 149.602 123.569 151.469 122.711 153.597C121.852 155.725 121.423 157.984 121.423 160.372C121.423 162.837 121.852 165.124 122.711 167.232C123.569 169.341 124.764 171.209 126.295 172.833C127.825 174.457 129.589 175.717 131.587 176.612C133.584 177.508 135.722 177.957 137.999 177.957C139.978 177.957 141.844 177.63 143.599 176.977C145.354 176.325 147.015 175.4 148.583 174.205C149.18 173.758 149.777 173.561 150.375 173.617C150.972 173.674 151.476 173.917 151.887 174.346C152.297 174.776 152.503 175.364 152.503 176.11C152.503 176.446 152.447 176.773 152.335 177.09C152.223 177.407 152.018 177.697 151.719 177.958C149.778 179.638 147.64 180.869 145.307 181.653C142.974 182.437 140.536 182.828 137.998 182.828Z" fill="#394B74"/>
<path d="M166.053 182.268C165.305 182.268 164.681 182.016 164.177 181.512C163.672 181.008 163.42 180.383 163.42 179.636V141.164C163.42 140.38 163.672 139.745 164.177 139.26C164.681 138.775 165.305 138.531 166.053 138.531C166.836 138.531 167.471 138.774 167.956 139.26C168.441 139.746 168.685 140.38 168.685 141.164V179.636C168.685 180.383 168.442 181.008 167.956 181.512C167.47 182.016 166.836 182.268 166.053 182.268Z" fill="#394B74"/>
<path d="M201.164 182.828C198.14 182.828 195.311 182.26 192.68 181.12C190.048 179.982 187.752 178.386 185.792 176.333C183.832 174.28 182.292 171.891 181.172 169.165C180.052 166.439 179.492 163.509 179.492 160.372C179.492 157.274 180.042 154.372 181.143 151.665C182.244 148.958 183.784 146.578 185.763 144.524C187.742 142.471 190.037 140.866 192.652 139.709C195.264 138.552 198.102 137.973 201.164 137.973C203.964 137.973 206.428 138.356 208.556 139.12C210.684 139.886 212.793 141.128 214.884 142.845C215.183 143.069 215.397 143.321 215.529 143.601C215.659 143.881 215.715 144.161 215.697 144.441C215.677 144.721 215.613 144.993 215.501 145.253C215.463 145.813 215.23 146.261 214.801 146.597C214.371 146.933 213.867 147.111 213.289 147.129C212.71 147.148 212.141 146.952 211.581 146.541C210.161 145.309 208.669 144.376 207.101 143.74C205.534 143.106 203.554 142.788 201.165 142.788C198.888 142.788 196.75 143.256 194.753 144.188C192.755 145.122 190.991 146.391 189.461 147.996C187.93 149.602 186.735 151.469 185.877 153.597C185.018 155.725 184.589 157.984 184.589 160.372C184.589 162.837 185.018 165.124 185.877 167.232C186.735 169.341 187.93 171.209 189.461 172.833C190.991 174.457 192.755 175.717 194.753 176.612C196.75 177.508 198.888 177.957 201.165 177.957C203.144 177.957 205.01 177.63 206.765 176.977C208.52 176.325 210.181 175.4 211.749 174.205C212.346 173.758 212.943 173.561 213.541 173.617C214.138 173.674 214.642 173.917 215.053 174.346C215.463 174.776 215.669 175.364 215.669 176.11C215.669 176.446 215.613 176.773 215.501 177.09C215.389 177.407 215.184 177.697 214.885 177.958C212.944 179.638 210.806 180.869 208.473 181.653C206.14 182.437 203.702 182.828 201.164 182.828Z" fill="#394B74"/>
<path d="M229.22 182.268C228.472 182.268 227.848 182.016 227.344 181.512C226.839 181.008 226.587 180.383 226.587 179.636V141.164C226.587 140.38 226.839 139.745 227.344 139.26C227.848 138.775 228.472 138.531 229.22 138.531H254.923C255.67 138.531 256.286 138.765 256.772 139.231C257.256 139.699 257.5 140.305 257.5 141.051C257.5 141.723 257.257 142.292 256.772 142.759C256.287 143.226 255.67 143.459 254.923 143.459H231.852V157.795H248.484C249.268 157.795 249.892 158.028 250.36 158.494C250.826 158.962 251.06 159.55 251.06 160.259C251.06 160.968 250.826 161.557 250.36 162.023C249.892 162.491 249.268 162.723 248.484 162.723H231.852V177.339H254.923C255.67 177.339 256.286 177.572 256.772 178.039C257.256 178.506 257.5 179.074 257.5 179.747C257.5 180.494 257.257 181.101 256.772 181.566C256.287 182.034 255.67 182.266 254.923 182.266H229.22V182.268Z" fill="#394B74"/>
<path d="M201.96 82.111C202.842 82.404 203.71 82.771 204.54 83.201C204.798 83.334 205.073 83.398 205.344 83.398C205.977 83.398 206.588 83.054 206.899 82.453C207.344 81.595 207.009 80.539 206.151 80.094C205.159 79.58 204.12 79.141 203.064 78.79C202.147 78.485 201.157 78.981 200.852 79.899C200.547 80.815 201.043 81.806 201.96 82.111Z" fill="#8860D0"/>
<path d="M210.89 88.642C211.233 89.108 211.764 89.355 212.301 89.355C212.661 89.355 213.024 89.244 213.337 89.015C214.115 88.442 214.282 87.347 213.71 86.568C213.05 85.671 212.317 84.818 211.531 84.034C210.847 83.352 209.739 83.352 209.056 84.036C208.373 84.72 208.374 85.828 209.058 86.511C209.719 87.171 210.336 87.888 210.89 88.642Z" fill="#8860D0"/>
<path d="M184.844 84.638C185.182 84.638 185.525 84.54 185.826 84.336C186.6 83.81 187.421 83.34 188.264 82.939C189.137 82.523 189.508 81.48 189.093 80.607C188.677 79.734 187.631 79.362 186.761 79.778C185.758 80.256 184.782 80.815 183.86 81.441C183.061 81.984 182.853 83.072 183.396 83.872C183.733 84.369 184.283 84.638 184.844 84.638Z" fill="#8860D0"/>
<path d="M193.388 81.357C193.467 81.357 193.546 81.352 193.625 81.341C194.438 81.231 195.268 81.175 196.092 81.175L196.426 81.178C197.398 81.215 198.192 80.43 198.21 79.463C198.229 78.497 197.461 77.698 196.495 77.679L196.092 77.675C195.111 77.675 194.123 77.741 193.155 77.872C192.197 78.002 191.526 78.883 191.655 79.841C191.776 80.72 192.527 81.357 193.388 81.357Z" fill="#8860D0"/>
<path d="M217.616 95.733C217.616 95.73 217.614 95.728 217.614 95.725C217.428 94.63 217.153 93.539 216.796 92.483C216.487 91.568 215.493 91.077 214.578 91.385C213.662 91.695 213.171 92.687 213.48 93.603C213.779 94.488 214.009 95.401 214.166 96.319C214.312 97.176 214.399 98.042 214.428 98.892C214.572 103.176 212.975 107.269 209.931 110.418C206.773 113.684 202.353 115.557 197.805 115.557H174.419C176.528 113.406 177.758 110.49 177.758 107.395C177.758 103.228 175.535 99.379 171.927 97.296C170.123 96.254 168.11 95.734 166.096 95.734C164.082 95.734 162.069 96.255 160.265 97.296C156.657 99.379 154.434 103.229 154.434 107.395C154.434 111.561 156.657 115.411 160.265 117.494C161.878 118.425 163.66 118.917 165.459 119.015C165.579 119.041 165.702 119.056 165.83 119.056H197.804C203.296 119.056 208.633 116.794 212.447 112.849C216.156 109.013 218.102 104.014 217.926 98.773C217.891 97.769 217.787 96.745 217.616 95.733ZM170.176 114.464C168.937 115.179 167.526 115.558 166.095 115.558C164.664 115.558 163.253 115.18 162.014 114.464C159.497 113.011 157.933 110.302 157.933 107.396C157.933 104.49 159.497 101.781 162.014 100.328C163.253 99.613 164.664 99.234 166.095 99.234C167.526 99.234 168.937 99.612 170.176 100.328C172.693 101.781 174.257 104.49 174.257 107.396C174.257 110.302 172.693 113.01 170.176 114.464Z" fill="#8860D0"/>
</svg>
