<svg xmlns="http://www.w3.org/2000/svg" viewBox="3.13 60.13 396.24 122.74"><defs><style>.cls-1{fill:red}</style></defs><path d="M123.925 100.5h23.133v7.444H132.45v8.354h12.618v7.333H132.45v14.95h-8.525zm26.654 24.666V100.5h8.526v24.553c0 4.718 2.728 6.707 5.74 6.707 2.956 0 5.684-1.989 5.684-6.707v-24.553h8.526v24.667c0 9.208-5.97 14.097-14.21 14.097-8.298 0-14.266-4.889-14.266-14.097zM200.647 108v30.58h-8.526V108h-9.377v-7.5h27.281v7.5zm13.127 17.166V100.5h8.526v24.553c0 4.718 2.73 6.707 5.74 6.707 2.956 0 5.686-1.989 5.686-6.707v-24.553h8.525v24.667c0 9.208-5.968 14.097-14.21 14.097-8.298 0-14.267-4.889-14.267-14.097zm53.083-2.217 7.618 15.631h-9.72l-6.025-13.13h-3.524v13.13h-8.526V100.5h12.788c7.673 0 12.278 4.545 12.278 11.765 0 4.66-2.672 8.241-4.889 10.684zm-11.65-4.832h5.796a8.97 8.97 0 0 0 2.103-5.683c0-2.272-1.193-4.49-3.864-4.49h-4.036zm22.162-17.618h23.36v7.445h-14.834v7.501h12.618v7.334h-12.618v8.356h14.95v7.445h-23.476z" class="cls-1"/><path fill="#231815" d="m337.393 122.55.511 5.232h.284l.511-5.741 4.093-21.542h8.696l-8.411 38.421h-9.891l-4.717-22.906-.284-4.546h-.511l-.399 4.546-4.774 22.906h-9.72l-8.468-38.42h9.094l4.149 21.995.398 5.287h.397l.399-5.231 4.604-22.052h9.435zm17.613-22.05h23.36v7.444h-14.834v7.501h12.62v7.334h-12.62v8.356h14.948v7.445h-23.474zm28.245 38.08V100.5h8.405v38.08zm-124.007 12.905-.153.871c-.025.205-.102.307-.282.307h-5.176l-2.69 17.041a.286.286 0 0 1-.308.256h-1c-.179 0-.255-.102-.23-.256l2.69-17.04h-5.099c-.178 0-.256-.077-.205-.281l.129-.872c.025-.206.102-.308.307-.308h11.788c.178 0 .256.102.23.282zm9.146 8.25a8.746 8.746 0 0 1-.155 1.385l-.282 1.767a.632.632 0 0 1-.716.59h-8.022l-.23 1.41a7.675 7.675 0 0 0-.103 1.05c0 1.974 1.128 2.972 3.102 2.972a4.191 4.191 0 0 0 3.97-2.152c.13-.206.283-.23.436-.128l.64.358c.207.129.18.282.078.462a5.759 5.759 0 0 1-5.176 2.767c-2.946 0-4.51-1.59-4.51-4.125a8.4 8.4 0 0 1 .102-1.102l.667-4.202a5.647 5.647 0 0 1 5.74-5.1c2.766 0 4.459 1.615 4.459 4.049zm-1.435.18c0-1.896-1.129-2.895-3.076-2.895-2.204 0-3.844 1.332-4.253 3.92l-.23 1.358h7.199l.23-1.28a5.785 5.785 0 0 0 .13-1.102zm14.856-1.025c.077.308 0 .41-.18.461l-.845.283a.243.243 0 0 1-.333-.18 2.683 2.683 0 0 0-2.896-2.383c-2.177 0-3.664 1.307-4.126 4.074l-.563 3.742a5.1 5.1 0 0 0-.103 1.024 2.625 2.625 0 0 0 2.897 2.947 3.832 3.832 0 0 0 3.74-2.434c.102-.206.205-.257.384-.18l.795.334c.205.076.205.23.103.384a5.298 5.298 0 0 1-5.126 3.254c-2.767 0-4.305-1.563-4.305-4.125a5.833 5.833 0 0 1 .103-1.128l.641-3.996c.512-3.178 2.434-5.28 5.534-5.28a3.934 3.934 0 0 1 4.28 3.203zm13.473.333a5.242 5.242 0 0 1-.102 1.077l-1.487 9.404a.27.27 0 0 1-.307.256h-.897c-.205 0-.307-.103-.256-.256l1.435-9.122a5.756 5.756 0 0 0 .103-1.102 2.106 2.106 0 0 0-2.358-2.409c-1.589 0-3.484 1.383-4.51 3.356l-1.46 9.277a.286.286 0 0 1-.308.256h-.922c-.18 0-.257-.102-.23-.256l2.997-18.885a.287.287 0 0 1 .307-.256h.924c.178 0 .255.102.23.256l-1.205 7.508a6.074 6.074 0 0 1 4.638-2.64 3.199 3.199 0 0 1 3.408 3.536zm14.293 0a5.242 5.242 0 0 1-.102 1.077l-1.486 9.404a.27.27 0 0 1-.307.256h-.898c-.204 0-.307-.103-.256-.256l1.436-9.122a5.756 5.756 0 0 0 .102-1.102 2.106 2.106 0 0 0-2.358-2.409c-1.588 0-3.46 1.358-4.484 3.331l-1.486 9.302a.27.27 0 0 1-.307.256h-.898c-.204 0-.282-.103-.255-.256l2.151-13.504a.289.289 0 0 1 .308-.257h.896c.18 0 .258.104.231.257l-.333 2.152a5.989 5.989 0 0 1 4.638-2.665 3.199 3.199 0 0 1 3.408 3.536zm14.576.641a8.056 8.056 0 0 1-.103 1.154l-.64 4.048a5.6 5.6 0 0 1-5.946 5.15c-2.946 0-4.637-1.64-4.637-4.125a8.777 8.777 0 0 1 .102-1.153l.667-4.1c.486-3.229 2.537-5.15 5.893-5.15 2.946 0 4.664 1.69 4.664 4.176zm-9.148 1.205-.59 3.818a6.025 6.025 0 0 0-.102 1.024c0 1.922 1.23 2.947 3.229 2.947a4.192 4.192 0 0 0 4.407-3.947l.589-3.689a6.329 6.329 0 0 0 .128-1.18c0-1.92-1.255-2.97-3.228-2.97-2.332 0-3.998 1.306-4.433 3.997zm16.393-10.25-2.997 18.885a.287.287 0 0 1-.307.256h-.923c-.18 0-.257-.103-.23-.256l2.997-18.885a.287.287 0 0 1 .307-.256h.924c.178 0 .256.102.23.256zm13.272 9.045a8.056 8.056 0 0 1-.103 1.154l-.64 4.048a5.6 5.6 0 0 1-5.945 5.15c-2.947 0-4.638-1.64-4.638-4.125a8.777 8.777 0 0 1 .102-1.153l.667-4.1c.486-3.229 2.537-5.15 5.893-5.15 2.946 0 4.664 1.69 4.664 4.176zm-9.148 1.205-.59 3.818a6.026 6.026 0 0 0-.102 1.024c0 1.922 1.23 2.947 3.229 2.947a4.192 4.192 0 0 0 4.407-3.947l.589-3.689a6.328 6.328 0 0 0 .128-1.18c0-1.92-1.255-2.97-3.228-2.97-2.332 0-3.998 1.306-4.433 3.997zm23.773-3.562-1.922 12.095c-.64 3.945-3.074 5.74-6.072 5.74a5.803 5.803 0 0 1-4.459-1.871.267.267 0 0 1 0-.411l.487-.59a.263.263 0 0 1 .435 0 4.564 4.564 0 0 0 3.485 1.539c2.281 0 4.126-1.205 4.664-4.536l.384-2.51a6.312 6.312 0 0 1-4.97 3.15c-2.28 0-3.563-1.486-3.563-3.895a7.88 7.88 0 0 1 .103-1.28l.641-4.024c.487-3.125 2.383-5.073 5.56-5.073a12.465 12.465 0 0 1 5.022 1.18c.231.126.256.229.205.486zm-1.589.46a9.12 9.12 0 0 0-3.613-.793c-2.356 0-3.74 1.409-4.125 3.817l-.615 3.793a7.295 7.295 0 0 0-.102 1.23c0 1.82.846 2.742 2.435 2.742 1.665 0 3.56-1.256 4.944-3.844zm7.889-1.767-2.153 13.504a.287.287 0 0 1-.307.256h-.922c-.18 0-.258-.102-.231-.256l2.151-13.504a.289.289 0 0 1 .309-.257h.922c.18 0 .256.104.23.257zm.845-5.33-.41 2.486a.314.314 0 0 1-.333.282h-.897c-.179 0-.282-.104-.23-.282l.383-2.486a.34.34 0 0 1 .36-.307h.87c.205 0 .283.102.257.307zm12.913 8.866a8.744 8.744 0 0 1-.155 1.384l-.28 1.767a.634.634 0 0 1-.718.59h-8.021l-.23 1.41a7.464 7.464 0 0 0-.104 1.05c0 1.974 1.129 2.972 3.102 2.972a4.191 4.191 0 0 0 3.971-2.152c.129-.206.282-.23.436-.128l.64.358c.206.129.18.282.077.462a5.759 5.759 0 0 1-5.175 2.767c-2.947 0-4.51-1.59-4.51-4.125a8.4 8.4 0 0 1 .101-1.102l.667-4.202a5.647 5.647 0 0 1 5.74-5.1c2.767 0 4.459 1.615 4.459 4.049zm-1.435.18c0-1.897-1.129-2.896-3.075-2.896-2.205 0-3.844 1.332-4.254 3.92l-.23 1.358h7.2l.23-1.28a5.784 5.784 0 0 0 .129-1.102zm14.062-1.129c.025.231 0 .334-.257.385l-.667.206c-.23.076-.331 0-.384-.155a2.484 2.484 0 0 0-2.818-2.23c-2.588 0-3.408 1.487-3.408 2.563 0 1.307 1.281 1.846 2.999 2.537 2.075.845 3.715 1.743 3.715 3.844 0 1.974-1.41 4.305-4.997 4.305-2.537 0-4.304-1.282-4.587-3.229-.05-.256 0-.36.205-.41l.718-.23c.23-.077.333-.026.384.178.18 1.513 1.46 2.384 3.28 2.384 2.588 0 3.536-1.589 3.536-2.87 0-1.46-1.256-1.974-3.152-2.742-2.075-.872-3.562-1.691-3.562-3.716 0-1.767 1.358-3.894 4.792-3.894 2.383 0 3.921 1.205 4.203 3.074z"/><circle cx="95.223" cy="155.465" r="4.969" class="cls-1"/><circle cx="101.476" cy="140.586" r="4.472" class="cls-1"/><circle cx="103.407" cy="126.065" r="4.025" class="cls-1"/><circle cx="99.954" cy="112.594" r="3.622" class="cls-1"/><circle cx="92.885" cy="103.239" r="3.26" class="cls-1"/><circle cx="83.956" cy="96.781" r="2.934" class="cls-1"/><circle cx="74.823" cy="93.902" r="2.641" class="cls-1"/><circle cx="66.146" cy="95.283" r="2.376" class="cls-1"/><circle cx="58.702" cy="99.145" r="2.139" class="cls-1"/><circle cx="53.785" cy="104.868" r="1.925" class="cls-1"/><circle cx="53.704" cy="112.551" r="1.732" class="cls-1"/><circle cx="79.535" cy="72.865" r="4.969" class="cls-1"/><circle cx="63.523" cy="74.89" r="4.472" class="cls-1"/><circle cx="49.983" cy="80.478" r="4.025" class="cls-1"/><circle cx="40.042" cy="90.204" r="3.622" class="cls-1"/><circle cx="35.475" cy="101.004" r="3.26" class="cls-1"/><circle cx="34.347" cy="111.965" r="2.934" class="cls-1"/><circle cx="36.42" cy="121.314" r="2.641" class="cls-1"/><circle cx="41.955" cy="128.138" r="2.376" class="cls-1"/><circle cx="49.021" cy="132.654" r="2.139" class="cls-1"/><circle cx="56.436" cy="134.051" r="1.925" class="cls-1"/><circle cx="63.131" cy="130.279" r="1.732" class="cls-1"/><circle cx="15.846" cy="127.751" r="4.969" class="cls-1"/><circle cx="25.606" cy="140.606" r="4.472" class="cls-1"/><circle cx="37.215" cy="149.538" r="4.025" class="cls-1"/><circle cx="50.608" cy="153.284" r="3.622" class="cls-1"/><circle cx="62.245" cy="151.839" r="3.26" class="cls-1"/><circle cx="72.302" cy="147.336" r="2.934" class="cls-1"/><circle cx="79.362" cy="140.866" r="2.641" class="cls-1"/><circle cx="82.504" cy="132.661" r="2.376" class="cls-1"/><circle cx="82.881" cy="124.283" r="2.139" class="cls-1"/><circle cx="80.384" cy="117.163" r="1.925" class="cls-1"/><circle cx="73.77" cy="113.252" r="1.732" class="cls-1"/></svg>