<svg id="图层_1" data-name="图层 1" xmlns="http://www.w3.org/2000/svg" xmlns:xlink="http://www.w3.org/1999/xlink" viewBox="0 0 255 80"><defs><style>.cls-1{fill:url(#linear-gradient);}.cls-2{fill:#005d96;}.cls-3{fill:#c79f62;}.cls-4{fill:#717071;}</style><linearGradient id="linear-gradient" x1="42.32" y1="41.2" x2="116.48" y2="41.2" gradientUnits="userSpaceOnUse"><stop offset="0" stop-color="#9e9e9f"/><stop offset="0.19" stop-color="#bebfbf"/><stop offset="0.47" stop-color="#fff"/><stop offset="0.69" stop-color="#dbdcdc"/><stop offset="1" stop-color="#a6a6a7"/></linearGradient></defs><path class="cls-1" d="M113,28.09a26.44,26.44,0,0,0-36.17-9.9L45.69,35.77a6.45,6.45,0,0,0-3.13,4,6.63,6.63,0,0,0,9.69,7.52L83.33,29.69A12.93,12.93,0,0,1,93.4,28.41a13.19,13.19,0,0,1,9.27,16.28A13.24,13.24,0,0,1,86.41,54a13.6,13.6,0,0,1-3.62-1.58l-12.29,7a26.8,26.8,0,0,0,32.55,4.9,25.51,25.51,0,0,0,12.43-16.06A25.52,25.52,0,0,0,113,28.09Z"/><path class="cls-2" d="M94.28,42.74a6.47,6.47,0,0,0-.67-5.07,6.54,6.54,0,0,0-4-3.13,6.41,6.41,0,0,0-5.08.64L53.29,52.85a13.39,13.39,0,0,1-18.2-5,13.36,13.36,0,0,1,5-18.18,12.86,12.86,0,0,1,10.07-1.28A14,14,0,0,1,53.82,30l12.36-7A25.85,25.85,0,0,0,53.73,15.6a25.53,25.53,0,0,0-19.12,1.94l.22.81-1.06,1L32.33,19l0-.16a25.91,25.91,0,0,0-7.06,6.5l.18.68L24.36,27.1,24.08,27A27.71,27.71,0,0,0,21,34.26c-.07.27-.11.53-.17.79h0l.39,1.44-.9.89a25.74,25.74,0,0,0,3.19,17.1A25.79,25.79,0,0,0,39.65,67a25.8,25.8,0,0,0,20.23-2.59L91.13,46.75A6.46,6.46,0,0,0,94.28,42.74ZM40.69,15.45l1.45.39.38,1.44-1.06,1L40,18l-.39-1.44Zm-5.08,5.09,1.43.38.39,1.45-1,1.05L34.94,23l-.39-1.44ZM26.17,26.4l1.44.38L28,28.22l-1,1.06-1.44-.39-.39-1.44Zm-.74,4.32,1.44.38.39,1.44L26.2,33.6l-1.44-.39-.38-1.44Zm-.73,9.1-1.44-.39L22.87,38l1.06-1.05,1.44.38.38,1.44Zm2.55-2.55-1.45-.38-.38-1.44,1-1.05,1.44.38.39,1.44Zm2.9-16.87,1.44.38L32,22.22l-1.06,1.06-1.44-.39-.39-1.44Zm1.14,8.11-1.44-.39-.39-1.44,1.06-1.05L32,26l.38,1.44Z"/><polygon class="cls-2" points="9.66 22.78 8.61 23.83 8.99 25.27 10.44 25.66 11.49 24.6 11.1 23.16 9.66 22.78"/><polygon class="cls-2" points="13.58 20 14.64 18.95 14.25 17.51 12.81 17.12 11.76 18.18 12.15 19.61 13.58 20"/><polygon class="cls-2" points="22.18 24.21 23.24 23.16 22.85 21.72 21.41 21.34 20.36 22.39 20.75 23.83 22.18 24.21"/><path class="cls-2" d="M34.61,17.54l-.17-.63L33,16.52,32,17.58l.34,1.28c.4-.25.78-.51,1.19-.75S34.23,17.73,34.61,17.54Z"/><path class="cls-2" d="M25,24.6l-1.45-.38-1,1.05.39,1.44,1.16.31c.36-.57.75-1.12,1.15-1.66Z"/><path class="cls-2" d="M19.4,34.67l-1,1.06.38,1.44,1.45.38.15-.16q.2-1.17.48-2.34Z"/><polygon class="cls-2" points="18.53 31.68 19.97 32.06 21.02 31.01 20.64 29.57 19.2 29.19 18.14 30.24 18.53 31.68"/><polygon class="cls-2" points="15.88 24.97 17.32 25.36 18.38 24.3 17.99 22.87 16.55 22.48 15.5 23.53 15.88 24.97"/><polygon class="cls-2" points="21.88 19.16 22.94 18.11 22.55 16.67 21.11 16.28 20.06 17.34 20.44 18.78 21.88 19.16"/><polygon class="cls-2" points="29.94 18.63 30.99 17.58 30.6 16.14 29.16 15.75 28.11 16.8 28.49 18.24 29.94 18.63"/><polygon class="cls-2" points="36.44 16.63 37.49 15.57 37.1 14.13 35.66 13.75 34.61 14.8 34.99 16.24 36.44 16.63"/><polygon class="cls-2" points="27.06 22.07 28.11 21.02 27.72 19.58 26.29 19.19 25.23 20.25 25.61 21.69 27.06 22.07"/><polygon class="cls-2" points="15.72 28.71 14.28 28.33 13.23 29.38 13.61 30.82 15.05 31.21 16.11 30.15 15.72 28.71"/><polygon class="cls-2" points="5.49 15.71 4.43 16.77 4.82 18.21 6.26 18.59 7.31 17.54 6.92 16.1 5.49 15.71"/><path class="cls-3" d="M93.33,14.74l0,0,.36.05Z"/><path class="cls-3" d="M93.65,14.83l-.36-.05h0l.37.05Z"/><path class="cls-3" d="M102,17.3l-.28-.07.29.13Z"/><path class="cls-4" d="M137.64,30.14h3.67A5.67,5.67,0,0,1,147,35.76V59A2,2,0,0,0,149,61.06h3v3.57h-3A5.62,5.62,0,0,1,143.41,59V35.76a2.06,2.06,0,0,0-2.1-2h-3.67Zm8.5-13.38v9.5h-3.57v-9.5Zm21.57,20.68h-9.08A5.62,5.62,0,0,1,153,31.82V17h3.57v4.62h11.12v3.56H156.59v6.67a2,2,0,0,0,2,2h9.08ZM163,39.07v2.67h15.54a5.71,5.71,0,0,1,5.62,5.67V58.75a5.71,5.71,0,0,1-5.62,5.67H158.58A5.66,5.66,0,0,1,153,58.75V47.41a5.66,5.66,0,0,1,5.56-5.67h.84V39.07Zm-6.4,12.23h24V47.41a2.07,2.07,0,0,0-2.05-2.1H158.58a2.05,2.05,0,0,0-2,2.1Zm24,7.45V54.87h-24v3.88a2,2,0,0,0,2,2.1h19.95A2.06,2.06,0,0,0,180.58,58.75Zm4.3-21.31H175.8a5.67,5.67,0,0,1-5.67-5.62V17h3.57v6.92L183.46,20l1.37,3.31L173.7,27.73v4.09a2.06,2.06,0,0,0,2.1,2h9.08Z"/><path class="cls-4" d="M206,33.5h46.3v3.57H218.6L213,59.64h30.08a3,3,0,0,0,3-3V46.2h3.57V56.6a6.62,6.62,0,0,1-6.61,6.61H208.84L215,37.07h-9Zm1.94-14.59h42.42v3.57H207.89Z"/></svg>