<svg xmlns="http://www.w3.org/2000/svg" id="图层_1" data-name="图层 1" viewBox="0 0 255 80"><defs><linearGradient id="linear-gradient" x1="42.32" x2="116.48" y1="41.2" y2="41.2" gradientUnits="userSpaceOnUse"><stop offset="0" stop-color="#9e9e9f"/><stop offset=".19" stop-color="#bebfbf"/><stop offset=".47" stop-color="#fff"/><stop offset=".69" stop-color="#dbdcdc"/><stop offset="1" stop-color="#a6a6a7"/></linearGradient><style>.cls-2{fill:#005d96}.cls-3{fill:#c79f62}.cls-4{fill:#717071}</style></defs><path d="M113 28.09a26.44 26.44 0 0 0-36.17-9.9L45.69 35.77a6.45 6.45 0 0 0-3.13 4 6.63 6.63 0 0 0 9.69 7.52l31.08-17.6a12.93 12.93 0 0 1 10.07-1.28 13.19 13.19 0 0 1 9.27 16.28A13.24 13.24 0 0 1 86.41 54a13.6 13.6 0 0 1-3.62-1.58l-12.29 7a26.8 26.8 0 0 0 32.55 4.9 25.51 25.51 0 0 0 12.43-16.06A25.52 25.52 0 0 0 113 28.09Z" style="fill:url(#linear-gradient)"/><path d="M94.28 42.74a6.47 6.47 0 0 0-.67-5.07 6.54 6.54 0 0 0-4-3.13 6.41 6.41 0 0 0-5.08.64L53.29 52.85a13.39 13.39 0 0 1-18.2-5 13.36 13.36 0 0 1 5-18.18 12.86 12.86 0 0 1 10.07-1.28A14 14 0 0 1 53.82 30l12.36-7a25.85 25.85 0 0 0-12.45-7.4 25.53 25.53 0 0 0-19.12 1.94l.22.81-1.06 1-1.44-.35v-.16a25.91 25.91 0 0 0-7.06 6.5l.18.68-1.09 1.08-.28-.1A27.71 27.71 0 0 0 21 34.26c-.07.27-.11.53-.17.79l.39 1.44-.9.89a25.74 25.74 0 0 0 3.19 17.1A25.79 25.79 0 0 0 39.65 67a25.8 25.8 0 0 0 20.23-2.59l31.25-17.66a6.46 6.46 0 0 0 3.15-4.01ZM40.69 15.45l1.45.39.38 1.44-1.06 1L40 18l-.39-1.44Zm-5.08 5.09 1.43.38.39 1.45-1 1.05-1.49-.42-.39-1.44Zm-9.44 5.86 1.44.38.39 1.44-1 1.06-1.44-.39-.39-1.44Zm-.74 4.32 1.44.38.39 1.44-1.06 1.06-1.44-.39-.38-1.44Zm-.73 9.1-1.44-.39-.39-1.43 1.06-1.05 1.44.38.38 1.44Zm2.55-2.55-1.45-.38-.38-1.44 1-1.05 1.44.38.39 1.44Zm2.9-16.87 1.44.38.41 1.44-1.06 1.06-1.44-.39-.39-1.44Zm1.14 8.11-1.44-.39-.39-1.44 1.06-1.05L32 26l.38 1.44ZM9.66 22.78l-1.05 1.05.38 1.44 1.45.39 1.05-1.06-.39-1.44-1.44-.38zM13.58 20l1.06-1.05-.39-1.44-1.44-.39-1.05 1.06.39 1.43 1.43.39zM22.18 24.21l1.06-1.05-.39-1.44-1.44-.38-1.05 1.05.39 1.44 1.43.38z" class="cls-2"/><path d="m34.61 17.54-.17-.63-1.44-.39-1 1.06.34 1.28c.4-.25.78-.51 1.19-.75s.7-.38 1.08-.57ZM25 24.6l-1.45-.38-1 1.05.39 1.44 1.16.31c.36-.57.75-1.12 1.15-1.66ZM19.4 34.67l-1 1.06.38 1.44 1.45.38.15-.16q.2-1.17.48-2.34ZM18.53 31.68l1.44.38 1.05-1.05-.38-1.44-1.44-.38-1.06 1.05.39 1.44zM15.88 24.97l1.44.39 1.06-1.06-.39-1.43-1.44-.39-1.05 1.05.38 1.44zM21.88 19.16l1.06-1.05-.39-1.44-1.44-.39-1.05 1.06.38 1.44 1.44.38zM29.94 18.63l1.05-1.05-.39-1.44-1.44-.39-1.05 1.05.38 1.44 1.45.39zM36.44 16.63l1.05-1.06-.39-1.44-1.44-.38-1.05 1.05.38 1.44 1.45.39zM27.06 22.07l1.05-1.05-.39-1.44-1.43-.39-1.06 1.06.38 1.44 1.45.38zM15.72 28.71l-1.44-.38-1.05 1.05.38 1.44 1.44.39 1.06-1.06-.39-1.44zM5.49 15.71l-1.06 1.06.39 1.44 1.44.38 1.05-1.05-.39-1.44-1.43-.39z" class="cls-2"/><path d="m93.33 14.74.36.05ZM93.65 14.83l-.36-.05.37.05ZM102 17.3l-.28-.07.29.13Z" class="cls-3"/><path d="M137.64 30.14h3.67a5.67 5.67 0 0 1 5.69 5.62V59a2 2 0 0 0 2 2.06h3v3.57h-3a5.62 5.62 0 0 1-5.59-5.63V35.76a2.06 2.06 0 0 0-2.1-2h-3.67Zm8.5-13.38v9.5h-3.57v-9.5Zm21.57 20.68h-9.08a5.62 5.62 0 0 1-5.63-5.62V17h3.57v4.62h11.12v3.56h-11.1v6.67a2 2 0 0 0 2 2h9.08ZM163 39.07v2.67h15.54a5.71 5.71 0 0 1 5.62 5.67v11.34a5.71 5.71 0 0 1-5.62 5.67h-19.96a5.66 5.66 0 0 1-5.58-5.67V47.41a5.66 5.66 0 0 1 5.56-5.67h.84v-2.67Zm-6.4 12.23h24v-3.89a2.07 2.07 0 0 0-2.05-2.1h-19.97a2.05 2.05 0 0 0-2 2.1Zm24 7.45v-3.88h-24v3.88a2 2 0 0 0 2 2.1h19.95a2.06 2.06 0 0 0 2.03-2.1Zm4.3-21.31h-9.1a5.67 5.67 0 0 1-5.67-5.62V17h3.57v6.92l9.76-3.92 1.37 3.31-11.13 4.42v4.09a2.06 2.06 0 0 0 2.1 2h9.08ZM206 33.5h46.3v3.57h-33.7L213 59.64h30.08a3 3 0 0 0 3-3V46.2h3.57v10.4a6.62 6.62 0 0 1-6.61 6.61h-34.2L215 37.07h-9Zm1.94-14.59h42.42v3.57h-42.47Z" class="cls-4"/></svg>