<svg width="353" height="117" viewBox="0 0 353 117" fill="none"
    xmlns="http://www.w3.org/2000/svg">
    <path fill-rule="evenodd" clip-rule="evenodd" d="M0 62.4442V14H25.0499V53.9969C25.0499 55.5853 25.0499 60.4611 29.0196 60.8651H39.0903C39.7828 69.8946 44.4071 77.8235 51.2542 82.9429V83.4896H29.0196C13.0041 83.4896 0 74.0589 0 62.4442Z" fill="black"/>
    <path fill-rule="evenodd" clip-rule="evenodd" d="M66.2808 84C79.3806 84 90.0001 72.3594 90.0001 58C90.0001 43.6406 79.3806 32 66.2808 32C53.181 32 42.5615 43.6406 42.5615 58C42.5615 72.3594 53.181 84 66.2808 84ZM68.7808 47.5088C68.7808 46.1281 67.6615 45.0088 66.2808 45.0088C64.9 45.0088 63.7808 46.1281 63.7808 47.5088V67.579C63.7808 68.9597 64.9 70.079 66.2808 70.079C67.6615 70.079 68.7808 68.9597 68.7808 67.579V47.5088Z" fill="black"/>
    <path d="M0 10H68V14H58.3582H0V10Z" fill="black"/>
    <path d="M111.816 58.2641H143.4V63.4001H111.816V58.2641ZM110.616 77.9441H144.936V83.2241H110.616V77.9441ZM126.552 64.9841H132.264V89.2721H126.552V64.9841ZM114.552 74.8241C114.216 73.6721 113.256 70.8881 112.584 69.3521C113.592 69.0641 114.456 68.1041 115.416 66.5681C116.424 65.0801 119.496 59.3201 121.128 53.8481L127.176 55.7681C124.776 61.5761 121.224 67.6721 118.056 71.7521V71.8961C118.056 71.8961 114.552 73.8161 114.552 74.8241ZM114.552 74.8241V70.6001L117.336 68.9681H141.768L141.72 74.1041H119.352C117.096 74.1041 114.984 74.3921 114.552 74.8241ZM107.112 48.7601H145.032V54.1361H107.112V48.7601ZM104.28 48.7601H110.04V62.2961C110.04 70.1201 109.32 82.0721 104.904 89.5121C103.848 88.5041 101.352 86.8241 99.96 86.2001C103.992 79.3841 104.28 69.3521 104.28 62.2961V48.7601ZM121.08 45.2561L126.888 44.0081C127.992 45.8321 128.952 48.2801 129.288 49.9601L123.192 51.4001C122.952 49.7681 122.088 47.1761 121.08 45.2561Z" fill="black"/>
    <path d="M179.496 46.9361L182.376 43.7681C184.632 44.4881 187.56 45.8321 189.096 46.9841L186.072 50.4881C184.728 49.3361 181.848 47.8001 179.496 46.9361ZM155.064 48.7121H192.072V53.2721H155.064V48.7121ZM158.76 55.5281H172.92V59.2241H158.76V55.5281ZM158.904 61.4801H163.512V70.3121H158.904V61.4801ZM183.864 54.4721L189.192 55.7681C186.408 63.5921 181.464 70.0241 175.464 74.0561C174.648 73.0001 172.632 70.9841 171.48 70.0241C177.24 66.7121 181.704 61.1441 183.864 54.4721ZM172.584 44.2481H178.008C178.344 57.4961 183.288 69.3521 187.56 69.3041C188.616 69.3041 189.048 67.6721 189.288 63.5441C190.44 64.6001 192.264 65.6081 193.608 66.0881C192.84 72.9041 191.112 74.4881 187.224 74.4881C178.824 74.4881 173.208 60.2321 172.584 44.2481ZM158.904 61.4801H172.632V71.8961H158.904V68.2001H167.928V65.1761H158.904V61.4801ZM160.776 75.9281H166.488V82.1201C166.488 83.4161 166.872 83.6081 169.128 83.6081C170.136 83.6081 174.36 83.6081 175.656 83.6081C177.48 83.6081 177.816 83.0801 178.008 79.2881C179.16 80.1521 181.608 80.9681 183.144 81.3041C182.472 87.2561 180.888 88.6961 176.184 88.6961C174.888 88.6961 169.752 88.6961 168.456 88.6961C162.216 88.6961 160.776 87.1121 160.776 82.1681V75.9281ZM165.24 74.6321L168.936 71.5601C171.624 73.0001 174.84 75.3041 176.376 77.1281L172.392 80.5841C171 78.7601 167.88 76.2641 165.24 74.6321ZM181.032 77.6081L185.832 75.1601C189 78.0401 192.264 82.0721 193.56 85.1921L188.328 87.8801C187.224 84.9041 184.152 80.6321 181.032 77.6081ZM154.344 75.8801L159.48 77.7041C158.328 81.7361 156.456 85.7681 153.192 88.3601L148.392 85.0961C151.32 82.9361 153.336 79.4801 154.344 75.8801ZM152.376 48.7121H157.656V56.0561C157.656 61.9601 156.744 70.4561 152.184 75.8801C151.368 74.8721 149.064 72.9521 147.96 72.3761C151.992 67.5761 152.376 60.8561 152.376 56.0081V48.7121Z" fill="black"/>
    <path d="M203.448 68.9201H234.936V89.2721H228.984V73.4801H209.112V89.2721H203.448V68.9201ZM206.856 76.1201H231V80.2961H206.856V76.1201ZM202.68 47.8481H217.896V52.3121H202.68V47.8481ZM196.968 55.4801H219.048V59.9921H196.968V55.4801ZM206.856 83.1281H231V87.6881H206.856V83.1281ZM206.232 49.1921H211.656V54.4721C211.656 59.3681 209.832 65.9921 200.088 70.4561C199.32 69.3041 197.688 67.5281 196.392 66.6161C205.416 63.1601 206.232 57.9281 206.232 54.4241V49.1921ZM201.816 43.9601L206.952 44.9681C205.752 49.2881 203.544 53.4161 201.096 56.0561C200.04 55.2401 197.832 53.9441 196.584 53.3681C199.032 51.0641 200.904 47.5121 201.816 43.9601ZM210.744 59.7521C212.472 60.5681 217.848 63.6401 219.24 64.5521L215.112 68.2001C213.24 66.6161 209.016 63.4961 206.856 62.1041L210.744 59.7521ZM226.008 52.8401V60.9521H233.352V52.8401H226.008ZM220.68 47.7521H239.016V66.0881H220.68V47.7521Z" fill="black"/>
    <path d="M251.688 44.0081L257.688 45.3041C255.96 49.7201 253.8 54.4241 251.976 57.4961L246.984 56.2001C248.712 52.9361 250.68 47.8481 251.688 44.0081ZM244.44 53.8481C249.624 53.7041 257.4 53.3681 264.84 53.0321L264.792 58.0241C257.736 58.5521 250.344 58.9841 244.872 59.3201L244.44 53.8481ZM247.272 61.5761H262.536V66.3281H252.6V89.2721H247.272V61.5761ZM259.8 61.5761H265.512V83.5121C265.512 85.9601 265.032 87.4001 263.4 88.2641C261.72 89.1281 259.56 89.2241 256.632 89.2241C256.344 87.6881 255.528 85.4801 254.808 84.0881C256.488 84.1841 258.408 84.1841 259.032 84.1361C259.608 84.1361 259.8 83.9921 259.8 83.3681V61.5761ZM249.72 68.8241H263.016V73.0961H249.72V68.8241ZM249.72 75.8801H263.016V80.1521H249.72V75.8801ZM269.256 44.4401H275.016V58.8401C275.016 60.5201 275.304 60.7601 277.128 60.7601C277.896 60.7601 281.352 60.7601 282.36 60.7601C283.944 60.7601 284.232 60.0401 284.424 55.8161C285.624 56.7281 287.976 57.5921 289.56 57.9281C288.936 64.1681 287.4 65.8961 282.936 65.8961C281.736 65.8961 277.416 65.8961 276.312 65.8961C270.648 65.8961 269.256 64.2641 269.256 58.9361V44.4401ZM283.656 47.2721L287.304 51.4481C283.032 53.5121 277.464 55.3361 272.712 56.6321C272.472 55.4801 271.704 53.7521 271.08 52.6481C275.544 51.2561 280.488 49.0961 283.656 47.2721ZM269.256 66.8561H274.968V81.9761C274.968 83.7521 275.304 83.9441 277.176 83.9441C277.992 83.9441 281.592 83.9441 282.648 83.9441C284.328 83.9441 284.616 83.0801 284.856 78.1841C286.056 79.0481 288.36 79.9601 289.944 80.2961C289.32 87.0641 287.784 88.9841 283.176 88.9841C281.976 88.9841 277.512 88.9841 276.36 88.9841C270.696 88.9841 269.256 87.3521 269.256 82.0241V66.8561ZM284.04 68.8721L287.784 73.0961C283.416 75.4481 277.608 77.4641 272.664 78.8561C272.376 77.7521 271.56 75.9281 270.984 74.8241C275.64 73.3361 280.776 70.9841 284.04 68.8721ZM258.216 49.2881L263.112 47.4641C265.464 50.9201 267.96 55.4801 268.872 58.6481L263.64 60.7601C262.824 57.6881 260.52 52.8881 258.216 49.2881Z" fill="black"/>
    <path d="M99.269 0V24.5135C99.269 30.3907 103.715 35.1628 109.19 35.1628H120V25.9702H109.19C108.441 25.9702 107.833 25.3172 107.833 24.5135C107.833 16.3256 107.833 8.18791 107.833 0H99.269Z" fill="black"/>
    <path d="M159.544 5.57593C154.068 5.57593 149.576 10.348 149.576 16.2252V24.5136C149.576 30.3908 154.068 35.1629 159.544 35.1629H167.218C172.694 35.1629 177.139 30.3908 177.139 24.5136V16.2252C177.139 10.348 172.694 5.57593 167.218 5.57593H159.544ZM167.218 14.7685C167.967 14.7685 168.575 15.4215 168.575 16.2252V24.5136C168.575 25.3173 167.967 25.9703 167.218 25.9703H159.544C158.795 25.9703 158.14 25.3173 158.14 24.5136V16.2252C158.14 15.4215 158.795 14.7685 159.544 14.7685H167.218Z" fill="black"/>
    <path d="M131.034 6.30127C125.559 6.30127 121.066 11.0734 121.066 16.9506V25.2389C121.066 31.1161 125.559 35.8882 131.034 35.8882H138.709C144.184 35.8882 148.63 31.1161 148.63 25.2389V16.9506C148.63 11.0734 144.184 6.30127 138.709 6.30127H131.034ZM138.709 15.4938C139.458 15.4938 140.066 16.1468 140.066 16.9506V25.2389C140.066 26.0427 139.458 26.6957 138.709 26.6957H131.034C130.286 26.6957 129.63 26.0427 129.63 25.2389V16.9506C129.63 16.1468 130.286 15.4938 131.034 15.4938H138.709Z" fill="black"/>
    <path d="M187.576 35.1628C187.576 31.1442 187.576 32.6511 187.576 24.7646H193.8C194.408 24.7646 194.923 25.1665 195.11 25.7693L197.824 35.1628H206.763L203.487 23.6595C203.019 22.1023 202.317 20.947 200.96 20.1432C202.317 19.3395 203.019 18.1842 203.487 16.627L206.622 5.57581H197.684L195.11 14.5674C194.923 15.12 194.408 15.5721 193.8 15.5721C191.741 15.5721 189.635 15.5721 187.576 15.5721C187.576 13.2614 187.576 1.40651 187.576 0H179.012C179.012 7.03256 179.012 28.08 179.012 35.1628L187.576 35.1628Z" fill="black"/>
    <path fill-rule="evenodd" clip-rule="evenodd" d="M230.349 36.0002C230.374 36.0002 230.4 35.9988 230.425 35.9961C230.451 35.9934 230.476 35.9894 230.501 35.9841C230.526 35.9787 230.551 35.9721 230.575 35.9641C230.6 35.9561 230.624 35.9469 230.647 35.9364C230.671 35.9259 230.694 35.9142 230.717 35.9013C230.739 35.8884 230.761 35.8743 230.782 35.8591C230.803 35.8438 230.824 35.8275 230.844 35.8101C230.863 35.7927 230.882 35.7743 230.9 35.7549C230.918 35.7356 230.936 35.7153 230.952 35.6941C230.968 35.6729 230.983 35.6509 230.997 35.6281C231.012 35.6053 231.025 35.5818 231.037 35.5576C231.049 35.5334 231.06 35.5087 231.069 35.4833C231.079 35.458 231.088 35.4322 231.095 35.406C231.102 35.3797 231.109 35.3532 231.114 35.3263C231.119 35.2994 231.122 35.2723 231.125 35.245C231.127 35.2177 231.129 35.1904 231.129 35.1629V25.9704C231.129 25.943 231.127 25.9156 231.125 25.8883C231.122 25.861 231.119 25.8339 231.114 25.807C231.109 25.7802 231.102 25.7536 231.095 25.7273C231.088 25.7011 231.079 25.6753 231.069 25.65C231.06 25.6247 231.049 25.5999 231.037 25.5757C231.025 25.5516 231.012 25.5281 230.997 25.5053C230.983 25.4825 230.968 25.4605 230.952 25.4393C230.936 25.4181 230.918 25.3978 230.9 25.3784C230.882 25.359 230.863 25.3406 230.844 25.3232C230.824 25.3058 230.803 25.2895 230.782 25.2743C230.761 25.259 230.739 25.245 230.717 25.232C230.694 25.2191 230.671 25.2074 230.647 25.1969C230.624 25.1864 230.6 25.1772 230.575 25.1692C230.551 25.1613 230.526 25.1546 230.501 25.1492C230.476 25.1439 230.451 25.1399 230.425 25.1372C230.4 25.1345 230.374 25.1332 230.349 25.1332H217.011C216.596 25.1332 216.388 24.9267 216.388 24.5136V16.2253C216.388 15.8122 216.596 15.6057 217.011 15.6057H230.349C230.374 15.6057 230.4 15.6044 230.425 15.6017C230.451 15.599 230.476 15.595 230.501 15.5897C230.526 15.5843 230.551 15.5776 230.575 15.5697C230.6 15.5617 230.624 15.5525 230.647 15.542C230.671 15.5315 230.694 15.5198 230.717 15.5069C230.739 15.4939 230.761 15.4799 230.782 15.4646C230.803 15.4494 230.824 15.4331 230.844 15.4157C230.863 15.3983 230.882 15.3799 230.9 15.3605C230.918 15.3411 230.936 15.3208 230.952 15.2997C230.968 15.2785 230.983 15.2564 230.997 15.2336C231.012 15.2108 231.025 15.1874 231.037 15.1632C231.049 15.139 231.06 15.1142 231.069 15.0889C231.079 15.0636 231.088 15.0378 231.095 15.0116C231.102 14.9853 231.109 14.9587 231.114 14.9319C231.119 14.905 231.122 14.8779 231.125 14.8506C231.127 14.8233 231.129 14.796 231.129 14.7685V5.57598C231.129 5.54855 231.127 5.5212 231.125 5.49393C231.122 5.46664 231.119 5.43954 231.114 5.41263C231.109 5.38576 231.102 5.35919 231.095 5.33293C231.088 5.30669 231.079 5.28092 231.069 5.25557C231.06 5.23026 231.049 5.20551 231.037 5.18131C231.025 5.15715 231.012 5.13366 230.997 5.11086C230.983 5.08806 230.968 5.06606 230.952 5.04485C230.936 5.02367 230.918 5.00338 230.9 4.98398C230.882 4.96459 230.863 4.94619 230.844 4.92881C230.824 4.9114 230.803 4.89508 230.782 4.87988C230.761 4.86464 230.739 4.85056 230.717 4.83764C230.694 4.8247 230.671 4.81297 230.647 4.80248C230.624 4.79198 230.6 4.78276 230.575 4.77481C230.551 4.76685 230.526 4.7602 230.501 4.75484C230.476 4.74952 230.451 4.74549 230.425 4.74279C230.4 4.74011 230.374 4.73877 230.349 4.73877H217.011C214.038 4.73877 211.503 5.86041 209.406 8.10372C207.311 10.3452 206.264 13.0524 206.264 16.2253V24.5136C206.264 27.6866 207.311 30.3938 209.406 32.6352C211.503 34.8785 214.038 36.0002 217.011 36.0002H230.349ZM229.569 34.3257V26.8076H217.011C216.404 26.8076 215.889 26.5858 215.466 26.1424C215.041 25.696 214.828 25.1531 214.828 24.5137V16.2253C214.828 15.5858 215.041 15.0429 215.466 14.5966C215.889 14.1531 216.404 13.9313 217.011 13.9313H229.569V6.4132H217.011C214.468 6.4132 212.3 7.37201 210.507 9.28964C208.718 11.2039 207.824 13.5158 207.824 16.2253V24.5137C207.824 27.2231 208.718 29.535 210.507 31.4493C212.3 33.3669 214.468 34.3257 217.011 34.3257L229.569 34.3257Z" fill="black"/>
    <path fill-rule="evenodd" clip-rule="evenodd" d="M250.588 35.5757C250.572 35.6078 250.553 35.6385 250.532 35.6679C250.511 35.6973 250.489 35.7251 250.465 35.7514C250.441 35.7776 250.415 35.802 250.388 35.8246C250.361 35.8472 250.332 35.8677 250.303 35.8863C250.273 35.9049 250.242 35.9212 250.211 35.9355C250.179 35.9497 250.147 35.9616 250.113 35.9712C250.08 35.9808 250.047 35.988 250.012 35.9929C249.978 35.9977 249.944 36.0001 249.91 36.0001H242.188C239.235 36.0001 236.714 34.8782 234.623 32.6342C232.533 30.3903 231.487 27.6835 231.487 24.5136V16.2253C231.487 13.0555 232.533 10.3486 234.623 8.10469C236.714 5.86074 239.235 4.73877 242.188 4.73877H249.91C252.863 4.73877 255.385 5.86074 257.475 8.10469C259.566 10.3486 260.611 13.0555 260.611 16.2253V35.1629C260.611 35.1904 260.61 35.2177 260.607 35.245C260.605 35.2723 260.601 35.2994 260.596 35.3263C260.591 35.3532 260.585 35.3797 260.577 35.406C260.57 35.4322 260.561 35.458 260.552 35.4833C260.542 35.5087 260.531 35.5334 260.519 35.5576C260.507 35.5818 260.494 35.6053 260.48 35.6281C260.465 35.6509 260.45 35.6729 260.434 35.6941C260.418 35.7153 260.401 35.7356 260.382 35.7549C260.364 35.7743 260.346 35.7927 260.326 35.8101C260.306 35.8275 260.286 35.8438 260.264 35.8591C260.243 35.8743 260.221 35.8884 260.199 35.9013C260.176 35.9142 260.153 35.9259 260.129 35.9364C260.106 35.9469 260.082 35.9561 260.058 35.9641C260.033 35.9721 260.008 35.9787 259.983 35.9841C259.958 35.9894 259.933 35.9934 259.907 35.9961C259.882 35.9988 259.856 36.0002 259.831 36.0002H251.267C251.233 36.0002 251.199 35.9977 251.164 35.9929C251.13 35.988 251.097 35.9808 251.063 35.9712C251.03 35.9616 250.998 35.9497 250.966 35.9355C250.935 35.9213 250.904 35.9049 250.874 35.8863C250.845 35.8677 250.816 35.8472 250.789 35.8246C250.762 35.802 250.736 35.7776 250.712 35.7514C250.688 35.7252 250.666 35.6973 250.645 35.6679C250.624 35.6385 250.605 35.6078 250.588 35.5757ZM250.487 25.4073V16.2253C250.487 15.8122 250.295 15.6057 249.91 15.6057H242.188C241.804 15.6057 241.611 15.8122 241.611 16.2253V24.5136C241.611 24.9267 241.804 25.1332 242.188 25.1332H249.91C249.964 25.1332 250.018 25.1392 250.071 25.1513C250.124 25.1633 250.176 25.1811 250.225 25.2048C250.275 25.2284 250.322 25.2572 250.366 25.2914C250.41 25.3255 250.45 25.3641 250.487 25.4073ZM249.13 34.3257V26.8076H242.188C241.599 26.8076 241.095 26.5835 240.678 26.1354C240.26 25.6873 240.051 25.1467 240.051 24.5136V16.2253C240.051 15.5922 240.26 15.0516 240.678 14.6035C241.095 14.1554 241.599 13.9313 242.188 13.9313H249.91C250.5 13.9313 251.003 14.1554 251.421 14.6035C251.838 15.0516 252.047 15.5922 252.047 16.2253V34.3257H259.051V16.2253C259.051 13.5179 258.158 11.2056 256.372 9.28866C254.586 7.37167 252.432 6.41318 249.91 6.41318H242.188C239.666 6.41318 237.512 7.37167 235.726 9.28866C233.94 11.2056 233.047 13.5179 233.047 16.2253V24.5136C233.047 27.2211 233.94 29.5333 235.726 31.4502C237.512 33.3672 239.666 34.3257 242.188 34.3257H249.13Z" fill="black"/>
    <path fill-rule="evenodd" clip-rule="evenodd" d="M271.624 15.6057H279.299C279.684 15.6057 279.876 15.8122 279.876 16.2253V35.1629C279.876 35.1904 279.878 35.2177 279.88 35.245C279.883 35.2723 279.886 35.2994 279.891 35.3263C279.896 35.3532 279.903 35.3797 279.91 35.406C279.917 35.4322 279.926 35.458 279.936 35.4833C279.945 35.5087 279.956 35.5334 279.968 35.5576C279.98 35.5818 279.993 35.6053 280.008 35.6281C280.022 35.6509 280.037 35.6729 280.053 35.6941C280.069 35.7153 280.087 35.7355 280.105 35.7549C280.123 35.7743 280.142 35.7927 280.161 35.8101C280.181 35.8275 280.202 35.8438 280.223 35.8591C280.244 35.8743 280.266 35.8884 280.289 35.9013C280.311 35.9142 280.334 35.9259 280.358 35.9364C280.381 35.9469 280.405 35.9561 280.43 35.9641C280.454 35.9721 280.479 35.9787 280.504 35.9841C280.529 35.9894 280.554 35.9934 280.58 35.9961C280.605 35.9988 280.631 36.0001 280.656 36.0001H289.22C289.246 36.0001 289.271 35.9988 289.297 35.9961C289.322 35.9934 289.347 35.9894 289.372 35.9841C289.398 35.9787 289.422 35.9721 289.447 35.9641C289.471 35.9561 289.495 35.9469 289.519 35.9364C289.542 35.9259 289.565 35.9142 289.588 35.9013C289.61 35.8884 289.632 35.8743 289.653 35.8591C289.675 35.8438 289.695 35.8275 289.715 35.8101C289.735 35.7927 289.754 35.7743 289.772 35.7549C289.79 35.7355 289.807 35.7153 289.823 35.6941C289.839 35.6729 289.854 35.6509 289.869 35.6281C289.883 35.6053 289.896 35.5818 289.908 35.5576C289.92 35.5334 289.931 35.5087 289.941 35.4833C289.951 35.458 289.959 35.4322 289.967 35.406C289.974 35.3797 289.98 35.3532 289.985 35.3263C289.99 35.2994 289.994 35.2723 289.996 35.245C289.999 35.2177 290 35.1904 290 35.1629V16.2253C290 13.0555 288.955 10.3486 286.864 8.10468C284.774 5.86074 282.252 4.73877 279.299 4.73877H271.624C268.671 4.73877 266.15 5.86074 264.059 8.10468C261.969 10.3486 260.923 13.0555 260.923 16.2253V35.1629C260.923 35.1904 260.925 35.2177 260.927 35.245C260.93 35.2723 260.933 35.2994 260.938 35.3263C260.943 35.3532 260.95 35.3797 260.957 35.406C260.964 35.4322 260.973 35.458 260.983 35.4833C260.993 35.5087 261.003 35.5334 261.015 35.5576C261.027 35.5818 261.04 35.6053 261.055 35.6281C261.069 35.6509 261.084 35.6729 261.1 35.6941C261.117 35.7153 261.134 35.7355 261.152 35.7549C261.17 35.7743 261.189 35.7927 261.208 35.8101C261.228 35.8275 261.249 35.8438 261.27 35.8591C261.291 35.8743 261.313 35.8884 261.336 35.9013C261.358 35.9142 261.381 35.9259 261.405 35.9364C261.428 35.9469 261.452 35.9561 261.477 35.9641C261.501 35.9721 261.526 35.9787 261.551 35.9841C261.576 35.9894 261.601 35.9934 261.627 35.9961C261.652 35.9988 261.678 36.0001 261.703 36.0001H270.267C270.293 36.0001 270.318 35.9988 270.344 35.9961C270.369 35.9934 270.394 35.9894 270.419 35.9841C270.445 35.9787 270.469 35.9721 270.494 35.9641C270.518 35.9561 270.542 35.9469 270.566 35.9364C270.589 35.9259 270.612 35.9142 270.635 35.9013C270.657 35.8884 270.679 35.8743 270.701 35.8591C270.722 35.8438 270.742 35.8275 270.762 35.8101C270.782 35.7927 270.801 35.7743 270.819 35.7549C270.837 35.7355 270.854 35.7153 270.87 35.6941C270.886 35.6729 270.901 35.6509 270.916 35.6281C270.93 35.6053 270.943 35.5818 270.955 35.5576C270.967 35.5334 270.978 35.5087 270.988 35.4833C270.998 35.458 271.006 35.4322 271.014 35.406C271.021 35.3797 271.027 35.3532 271.032 35.3263C271.037 35.2994 271.041 35.2723 271.043 35.245C271.046 35.2177 271.047 35.1904 271.047 35.1629V16.2253C271.047 15.8122 271.24 15.6057 271.624 15.6057ZM280.81 14.6035C280.392 14.1554 279.889 13.9313 279.299 13.9313H271.624C271.035 13.9313 270.531 14.1554 270.114 14.6035C269.696 15.0516 269.487 15.5922 269.487 16.2253V34.3257H262.483V16.2253C262.483 13.5179 263.376 11.2056 265.162 9.28866C266.948 7.37167 269.102 6.41318 271.624 6.41318H279.299C281.822 6.41318 283.976 7.37167 285.761 9.28866C287.547 11.2056 288.44 13.5179 288.44 16.2253V34.3257H281.436V16.2253C281.436 15.5922 281.227 15.0516 280.81 14.6035Z" fill="black"/>
</svg>
