<svg xmlns="http://www.w3.org/2000/svg" xmlns:xlink="http://www.w3.org/1999/xlink" width="246" height="89.227" viewBox="0 0 246 89.227">
  <defs>
    <clipPath id="clip-path">
      <rect id="Rettangolo_1" data-name="Rettangolo 1" width="246" height="89.227" fill="none"/>
    </clipPath>
  </defs>
  <g id="Raggruppa_70" data-name="Raggruppa 70" transform="translate(0 0)">
    <path id="Tracciato_1" data-name="Tracciato 1" d="M32.376,0,0,89.226H49.407L81.783,0Z" transform="translate(0 0)" fill="#407324"/>
    <path id="Tracciato_2" data-name="Tracciato 2" d="M119.024,0,86.648,89.226h49.408L168.432,0Z" transform="translate(-31.91 0)" fill="#6d9450"/>
    <path id="Tracciato_3" data-name="Tracciato 3" d="M205.674,0,173.3,89.226H222.7L255.081,0Z" transform="translate(-63.82 0)" fill="#87a970"/>
    <path id="Tracciato_4" data-name="Tracciato 4" d="M292.322,0,259.947,89.226h49.408L341.73,0Z" transform="translate(-95.731 0)" fill="#a4bd92"/>
    <g id="Raggruppa_2" data-name="Raggruppa 2" transform="translate(0 0)">
      <g id="Raggruppa_1" data-name="Raggruppa 1" clip-path="url(#clip-path)">
        <path id="Tracciato_5" data-name="Tracciato 5" d="M58.738,70.245a13.3,13.3,0,0,1-7.108-1.456A9.663,9.663,0,0,1,46.309,59.9c-.063-3.95,1.413-7.175,4.924-9.107a15.053,15.053,0,0,1,15.029-.1c4.221,2.249,6,6.914,4.832,11.762-1.022,4.243-5,7.358-9.969,7.78-.79.067-1.591.009-2.387.009M65.2,59.758c.042-3.277-2.642-5.765-6.269-5.813-3.584-.047-6.441,2.424-6.5,5.623s2.718,5.767,6.308,5.828c3.574.06,6.419-2.422,6.461-5.638" transform="translate(-17.053 -17.946)" fill="#fcfdfb"/>
        <path id="Tracciato_6" data-name="Tracciato 6" d="M155.85,62.173V69.41c-1.034-1.1-2.167-.88-3.252-.881-5.907-.008-11.815,0-18.193,0,1.605-1.161,1.4-2.529,1.4-3.857-.009-4.574.006-9.149-.01-13.723,0-1.193.372-2.513-.927-3.568h11.882c1.994,0,3.987.015,5.98,0,1.08-.01,2.3.365,3.084-.97v7.136a3.39,3.39,0,0,0-3.191-1.313c-3.054.073-6.114.083-9.168,0-1.282-.037-1.528.457-1.548,1.614-.022,1.242.4,1.676,1.6,1.538,2.438-.278,4.993.642,7.446-.86v6.32c-2.632-1.518-5.422-.645-8.121-.784-1.315-.068-.824,1.106-.866,1.795-.04.66-.3,1.552.919,1.548,3.72-.013,7.442-.041,11.161.023.857.015.994-.719,1.8-1.243" transform="translate(-49.497 -17.088)" fill="#fcfdfb"/>
        <path id="Tracciato_7" data-name="Tracciato 7" d="M218.57,49.812h8.066c-1.784,2.148-.821,4.567-.951,6.831-.035.613.618.582,1.077.583q3.888.012,7.777,0c.537,0,1.267.005,1.225-.679-.135-2.205.9-4.577-1.009-6.715h8.5a3.382,3.382,0,0,0-1.316,3.191c.055,4.908.017,9.816.028,14.726,0,1.027-.3,2.185,1.007,2.915h-8.144c1.827-2.5.795-5.235.914-7.828.03-.651-.742-.632-1.271-.634q-3.789-.01-7.579,0c-.613,0-1.262.035-1.267.889-.013,1.989.013,3.979-.008,5.969-.008.732.762.84,1.121,1.567h-8.581a2.938,2.938,0,0,0,1.347-2.982c-.041-4.842-.015-9.684-.02-14.527,0-1.147.3-2.392-.921-3.31" transform="translate(-80.343 -18.344)" fill="#fcfdfb"/>
        <path id="Tracciato_8" data-name="Tracciato 8" d="M325.873,70.661h-8.226c1.543-1.284,1.205-2.862,1.209-4.362.01-4.509,0-9.019.008-13.529,0-1.051.134-2.125-.947-2.97h8.612c-1.887.941-1.586,2.243-1.589,3.452-.009,4.841.008,9.682-.013,14.523a3.439,3.439,0,0,0,.945,2.886" transform="translate(-116.98 -18.34)" fill="#fcfdfb"/>
      </g>
    </g>
  </g>
</svg>
