<svg id="svg" version="1.1" xmlns="http://www.w3.org/2000/svg" style="display: block;" viewBox="0 0 6108 1925"><path d="M0,0 L6108,0 L6108,1925 L0,1925 Z " transform="translate(0,0)" style="fill: #FEFEFE;"/><path d="M0,0 L3,0 L3,299 L-7,304 L-31,318 L-59,334 L-83,348 L-111,364 L-135,378 L-163,394 L-189,409 L-215,424 L-241,439 L-267,454 L-293,469 L-319,484 L-345,499 L-371,514 L-397,529 L-423,544 L-449,559 L-458,564 L-459,796 L-431,780 L-403,764 L-375,748 L-347,732 L-321,717 L-298,704 L-277,692 L-251,677 L-228,664 L-204,650 L-179,636 L-160,625 L-132,609 L-108,595 L-81,580 L-57,566 L-29,550 L-6,537 L4,531 L10,533 L36,548 L60,562 L88,578 L114,593 L140,608 L166,623 L192,638 L218,653 L246,669 L270,683 L298,699 L324,714 L350,729 L376,744 L402,759 L428,774 L454,789 L482,805 L508,820 L532,834 L560,850 L586,865 L612,880 L638,895 L664,910 L690,925 L718,941 L726,946 L726,1249 L713,1257 L687,1272 L661,1287 L635,1302 L611,1316 L583,1332 L559,1346 L533,1361 L507,1376 L481,1391 L457,1405 L431,1420 L405,1435 L379,1450 L353,1465 L329,1479 L303,1494 L277,1509 L251,1524 L225,1539 L201,1553 L175,1568 L149,1583 L123,1598 L97,1613 L73,1627 L45,1643 L21,1657 L4,1667 L-1,1666 L-26,1652 L-43,1642 L-67,1628 L-93,1613 L-119,1598 L-143,1584 L-169,1569 L-195,1554 L-219,1540 L-245,1525 L-269,1511 L-295,1496 L-319,1482 L-345,1467 L-371,1452 L-395,1438 L-421,1423 L-445,1409 L-471,1394 L-497,1379 L-521,1365 L-547,1350 L-571,1336 L-597,1321 L-621,1307 L-647,1292 L-651,1288 L-636,1279 L-612,1265 L-586,1250 L-562,1236 L-538,1222 L-512,1207 L-485,1191 L-457,1175 L-433,1161 L-409,1147 L-390,1136 L-384,1138 L-357,1154 L-334,1167 L-310,1181 L-284,1196 L-258,1211 L-232,1226 L-206,1241 L-182,1255 L-156,1270 L-130,1285 L-104,1300 L-78,1315 L-54,1329 L-28,1344 L-2,1359 L3,1361 L29,1346 L57,1330 L81,1316 L109,1300 L137,1284 L161,1270 L189,1254 L217,1238 L241,1224 L269,1208 L297,1192 L323,1177 L349,1162 L377,1146 L401,1132 L429,1116 L457,1100 L481,1086 L488,1082 L490,1082 L487,1079 L460,1064 L436,1050 L409,1035 L385,1021 L360,1007 L332,991 L309,978 L281,962 L258,949 L230,933 L202,917 L177,903 L153,889 L126,874 L102,860 L75,845 L51,831 L33,821 L9,807 L4,804 L-1,805 L-26,819 L-43,829 L-69,844 L-95,859 L-121,874 L-147,889 L-171,903 L-194,916 L-218,930 L-246,946 L-270,960 L-298,976 L-322,990 L-350,1006 L-376,1021 L-400,1035 L-428,1051 L-452,1065 L-480,1081 L-506,1096 L-532,1111 L-558,1126 L-584,1141 L-610,1156 L-636,1171 L-662,1186 L-688,1201 L-716,1217 L-719,1218 L-719,414 L-694,400 L-670,386 L-644,371 L-618,356 L-590,340 L-564,325 L-540,311 L-512,295 L-486,280 L-460,265 L-434,250 L-408,235 L-380,219 L-356,205 L-328,189 L-302,174 L-276,159 L-255,147 L-229,132 L-205,118 L-177,102 L-156,90 L-132,76 L-104,60 L-78,45 L-52,30 L-31,18 L-5,3 Z " transform="translate(939,120)" style="fill: #004F87;"/><path d="M0,0 L3,0 L3,299 L-7,304 L-31,318 L-59,334 L-83,348 L-111,364 L-135,378 L-163,394 L-189,409 L-215,424 L-241,439 L-267,454 L-293,469 L-319,484 L-345,499 L-371,514 L-397,529 L-423,544 L-449,559 L-458,564 L-459,796 L-431,780 L-403,764 L-375,748 L-347,732 L-321,717 L-298,704 L-277,692 L-251,677 L-228,664 L-204,650 L-179,636 L-160,625 L-132,609 L-108,595 L-81,580 L-57,566 L-29,550 L-6,537 L2,532 L4,532 L4,803 L-12,811 L-36,825 L-62,840 L-88,855 L-114,870 L-142,886 L-169,902 L-194,916 L-218,930 L-246,946 L-270,960 L-298,976 L-322,990 L-350,1006 L-376,1021 L-400,1035 L-428,1051 L-452,1065 L-480,1081 L-506,1096 L-532,1111 L-558,1126 L-584,1141 L-610,1156 L-636,1171 L-662,1186 L-688,1201 L-716,1217 L-719,1218 L-719,414 L-694,400 L-670,386 L-644,371 L-618,356 L-590,340 L-564,325 L-540,311 L-512,295 L-486,280 L-460,265 L-434,250 L-408,235 L-380,219 L-356,205 L-328,189 L-302,174 L-276,159 L-255,147 L-229,132 L-205,118 L-177,102 L-156,90 L-132,76 L-104,60 L-78,45 L-52,30 L-31,18 L-5,3 Z " transform="translate(939,120)" style="fill: #4D86AD;"/><path d="M0,0 L4,2 L25,14 L49,28 L70,40 L85,49 L101,58 L116,67 L142,82 L168,97 L177,102 L194,112 L220,127 L244,141 L270,156 L296,171 L322,186 L346,200 L372,215 L396,229 L422,244 L446,258 L472,273 L496,287 L522,302 L546,316 L572,331 L596,345 L622,360 L646,374 L672,389 L696,403 L720,417 L720,821 L709,815 L681,799 L654,783 L628,768 L604,754 L580,740 L551,723 L525,708 L498,692 L472,677 L463,671 L462,567 L434,551 L408,536 L384,522 L358,507 L334,493 L308,478 L284,464 L270,456 L246,442 L220,427 L196,413 L181,404 L170,398 L146,384 L132,376 L108,362 L84,348 L58,333 L34,319 L8,304 L0,300 Z " transform="translate(942,120)" style="fill: #B8CFDD;"/><path d="M0,0 L371,0 L371,356 L369,365 L363,374 L353,379 L345,381 L0,381 Z " transform="translate(2370,553)" style="fill: #010101;"/><path d="M0,0 L364,0 L364,358 L360,367 L355,373 L347,377 L340,379 L0,379 Z " transform="translate(5524,555)" style="fill: #FDFDFD;"/><path d="M0,0 L72,0 L71,6 L61,37 L252,37 L253,361 L249,374 L243,382 L234,387 L225,389 L-115,388 L-115,37 L-16,37 L-13,28 Z " transform="translate(1961,991)" style="fill: #000000;"/><path d="M0,0 L67,0 L67,31 L220,31 L220,316 L217,329 L211,338 L205,343 L198,346 L193,347 L65,347 L65,377 L4,377 L4,348 L-152,348 L-152,31 L0,31 Z " transform="translate(2002,558)" style="fill: #000000;"/><path d="M0,0 L174,0 L174,49 L93,49 L90,58 L79,86 L172,86 L172,335 L199,334 L203,330 L204,327 L205,215 L178,215 L178,164 L205,164 L205,50 L180,50 L180,0 L379,0 L379,51 L366,51 L366,161 L379,161 L379,214 L366,214 L366,382 L304,382 L304,215 L265,215 L265,349 L260,365 L251,375 L241,380 L234,382 L173,382 L172,345 L169,354 L162,362 L153,366 L147,367 L13,367 L13,163 L-2,163 L-2,109 L4,107 L9,97 L26,50 L0,50 Z " transform="translate(3062,999)" style="fill: #000000;"/><path d="M0,0 L72,0 L69,9 L60,30 L291,30 L291,79 L34,80 L23,104 L285,104 L285,360 L282,370 L276,377 L267,381 L262,382 L78,382 L78,340 L213,339 L216,338 L217,315 L-6,315 L-6,382 L-70,382 L-70,181 L-93,181 L-93,128 L-69,127 L-61,123 L-58,119 L-47,96 L-39,80 L-93,79 L-93,30 L-14,30 L-12,24 Z " transform="translate(4385,989)" style="fill: #010101;"/><path d="M0,0 L53,0 L52,17 L49,49 L45,58 L39,63 L32,66 L26,67 L-247,67 L-247,92 L55,92 L55,142 L13,142 L13,220 L57,220 L57,269 L-324,269 L-324,220 L-311,220 L-311,18 L-11,17 L-3,13 L-2,11 L-1,2 Z " transform="translate(3204,547)" style="fill: #010101;"/><path d="M0,0 L57,0 L49,17 L119,17 L122,0 L188,0 L187,13 L186,15 L317,15 L317,57 L188,57 L188,71 L315,71 L315,111 L188,111 L188,128 L315,128 L315,168 L188,168 L188,186 L314,186 L314,224 L20,224 L20,234 L-40,234 L-40,89 L-62,89 L-62,48 L-38,47 L-29,43 L-26,42 L-24,38 L-8,12 L-1,1 Z " transform="translate(5053,553)" style="fill: #000000;"/><path d="M0,0 L371,0 L371,356 L369,365 L363,374 L353,379 L345,381 L0,381 Z M60,49 L60,334 L306,334 L311,329 L311,49 Z " transform="translate(2370,553)" style="fill: #000000;"/><path d="M0,0 L375,0 L375,151 L371,163 L365,171 L359,175 L346,179 L0,179 Z " transform="translate(4454,760)" style="fill: #020202;"/><path d="M0,0 L364,0 L364,358 L360,367 L355,373 L347,377 L340,379 L0,379 Z M55,52 L55,335 L302,335 L307,332 L309,328 L309,52 Z " transform="translate(5524,555)" style="fill: #000000;"/><path d="M0,0 L213,0 L213,185 L210,194 L204,203 L195,209 L185,212 L60,212 L61,323 L63,327 L65,328 L109,329 L109,376 L18,376 L8,371 L3,365 L0,354 Z " transform="translate(4862,997)" style="fill: #000000;"/><path d="M0,0 L280,0 L280,178 L277,188 L271,195 L259,200 L0,200 Z " transform="translate(5528,1154)" style="fill: #000000;"/><path d="M0,0 L60,0 L60,17 L59,24 L146,24 L146,363 L140,375 L131,381 L121,384 L52,384 L52,335 L79,334 L80,333 L81,82 L54,82 L50,127 L45,176 L42,207 L38,247 L35,278 L31,318 L28,349 L26,364 L21,374 L12,380 L6,382 L-53,382 L-53,333 L-32,333 L-29,299 L-26,273 L-23,242 L-19,203 L-14,156 L-11,125 L-8,94 L-6,82 L-45,82 L-45,24 L-1,24 L-1,12 Z " transform="translate(2486,994)" style="fill: #000000;"/><path d="M0,0 L144,0 L144,152 L140,163 L136,169 L132,172 L130,172 L137,180 L142,188 L144,195 L144,334 L140,345 L134,352 L126,356 L122,357 L55,357 L55,373 L0,373 Z " transform="translate(4704,999)" style="fill: #000000;"/><path d="M0,0 L79,0 L77,5 L73,12 L323,12 L323,58 L295,71 L271,83 L248,94 L213,111 L188,123 L185,125 L206,133 L215,135 L227,136 L321,137 L321,187 L196,187 L175,185 L155,179 L117,160 L109,161 L80,174 L59,183 L46,186 L29,187 L-55,187 L-55,137 L20,136 L32,132 L45,127 L46,126 L24,115 L5,105 L-24,90 L-39,82 L-39,81 L81,81 L110,93 L117,92 L155,74 L174,65 L25,65 L16,70 L5,73 L-2,74 L-53,74 L-53,19 L-22,18 L-14,15 L-8,10 Z " transform="translate(4509,558)" style="fill: #000000;"/><path d="M0,0 L54,0 L54,37 L52,46 L48,54 L41,60 L31,64 L-67,64 L-67,103 L55,103 L55,158 L35,158 L35,384 L-27,384 L-27,158 L-67,158 L-67,341 L-69,355 L-75,367 L-80,373 L-88,378 L-104,382 L-166,382 L-166,335 L-133,334 L-128,329 L-127,327 L-126,17 L-8,16 L-2,13 L-1,11 Z " transform="translate(4211,994)" style="fill: #010101;"/><path d="M0,0 L60,0 L60,168 L142,167 L148,164 L153,158 L156,150 L158,129 L164,86 L175,5 L176,4 L239,4 L238,15 L234,41 L232,54 L229,73 L227,86 L213,176 L210,188 L202,204 L193,213 L185,217 L175,220 L60,220 L61,313 L65,318 L70,320 L234,321 L234,366 L34,366 L23,364 L13,359 L6,352 L2,344 L0,336 Z " transform="translate(2806,1003)" style="fill: #000000;"/><path d="M0,0 L52,0 L52,37 L48,49 L44,55 L37,61 L27,65 L-59,65 L-59,98 L46,98 L47,236 L45,244 L39,256 L32,262 L24,266 L14,268 L-61,267 L-61,353 L-66,366 L-73,374 L-80,379 L-89,382 L-95,383 L-136,383 L-136,337 L-126,335 L-123,332 L-122,329 L-121,17 L-6,16 L-2,14 L-1,12 Z " transform="translate(4020,994)" style="fill: #000000;"/><path d="M0,0 L376,0 L376,346 L371,361 L365,369 L356,375 L348,377 L289,377 L289,330 L309,329 L311,327 L312,52 L0,52 Z " transform="translate(5523,994)" style="fill: #000000;"/><path d="M0,0 L75,0 L75,11 L181,10 L183,0 L229,0 L229,42 L225,50 L216,56 L203,60 L93,61 L104,70 L115,79 L125,83 L228,84 L228,131 L160,132 L90,132 L83,129 L67,114 L57,105 L44,93 L42,92 L40,96 L11,125 L1,130 L-6,132 L-156,132 L-156,86 L-50,85 L-39,82 L-25,71 L-12,61 L-155,60 L-155,11 L0,11 Z " transform="translate(3565,680)" style="fill: #000000;"/><path d="M0,0 L59,0 L59,11 L277,11 L278,137 L281,142 L283,143 L307,144 L307,190 L242,190 L232,187 L224,182 L218,175 L214,165 L213,161 L213,58 L53,58 L52,71 L49,87 L45,114 L43,127 L40,151 L37,164 L33,174 L27,182 L19,187 L9,190 L-71,190 L-71,146 L-27,145 L-22,142 L-18,131 L-15,110 L-10,73 L-7,58 L-71,58 L-71,11 L-2,11 L-1,2 Z " transform="translate(3549,1178)" style="fill: #010101;"/><path d="M0,0 L66,0 L66,22 L213,22 L213,69 L-26,70 L-31,82 L21,82 L22,160 L23,162 L67,163 L67,207 L-11,207 L-20,204 L-27,196 L-30,190 L-31,182 L-32,84 L-50,126 L-69,170 L-74,182 L-81,191 L-90,197 L-96,199 L-165,199 L-165,158 L-127,157 L-121,154 L-117,149 L-104,118 L-83,69 L-165,69 L-165,22 L0,22 Z " transform="translate(4099,735)" style="fill: #010101;"/><path d="M0,0 L251,0 L251,280 L246,285 L0,285 Z M16,27 L16,75 L90,75 L90,115 L16,115 L16,161 L90,161 L90,219 L15,219 L15,268 L212,268 L224,263 L230,256 L233,250 L234,243 L234,184 L184,184 L183,218 L146,219 L146,162 L234,162 L234,115 L146,115 L146,76 L236,76 L236,27 Z " transform="translate(2430,602)" style="fill: #FAFAFA;"/><path d="M0,0 L169,0 L169,58 L100,58 L98,69 L88,109 L83,127 L78,146 L74,162 L69,181 L65,197 L61,214 L59,222 L108,221 L109,220 L110,151 L168,151 L168,250 L164,261 L160,266 L152,270 L148,271 L-4,271 L-4,215 L0,203 L7,177 L14,154 L21,130 L28,104 L35,81 L41,60 L42,58 L0,58 Z " transform="translate(2255,1107)" style="fill: #010101;"/><path d="M0,0 L79,0 L73,11 L58,37 L42,64 L27,90 L10,119 L-4,143 L-18,167 L-28,184 L-30,187 L116,187 L116,243 L-147,243 L-147,187 L-112,186 L-95,157 L-78,129 L-61,101 L-42,69 L-25,41 L-8,13 Z " transform="translate(5272,1119)" style="fill: #000000;"/><path d="M0,0 L57,0 L57,24 L146,24 L146,71 L57,71 L57,122 L149,122 L149,165 L-82,165 L-82,122 L0,122 L0,71 L-82,71 L-82,24 L0,24 Z " transform="translate(4164,558)" style="fill: #000000;"/><path d="M0,0 L65,0 L63,9 L48,52 L38,81 L37,375 L-23,375 L-23,124 L-57,124 L-57,77 L-38,76 L-33,73 L-26,62 L-9,21 Z " transform="translate(2716,1001)" style="fill: #000000;"/><path d="M0,0 L240,0 L246,3 L254,11 L283,55 L296,74 L305,84 L312,90 L321,94 L334,95 L334,153 L284,153 L274,150 L264,144 L256,137 L242,118 L230,101 L217,83 L206,68 L198,61 L196,60 L0,59 Z " transform="translate(5158,999)" style="fill: #010101;"/><path d="M0,0 L55,0 L55,23 L79,23 L79,70 L55,70 L55,236 L51,246 L44,252 L38,254 L-35,254 L-35,214 L-7,213 L-2,210 L-1,208 L0,72 L-141,72 L-141,23 L0,23 Z " transform="translate(5739,621)" style="fill: #000000;"/><path d="M0,0 L64,0 L64,18 L220,18 L219,33 L215,78 L214,94 L158,94 L158,62 L-97,62 L-97,96 L-158,96 L-158,18 L0,18 Z " transform="translate(3634,989)" style="fill: #020202;"/><path d="M0,0 L55,0 L55,10 L218,10 L218,52 L57,52 L57,139 L0,139 L0,53 L-161,53 L-161,11 L0,11 Z " transform="translate(5150,791)" style="fill: #010101;"/><path d="M0,0 L185,0 L185,82 L182,96 L176,105 L170,110 L162,114 L150,116 L0,116 Z " transform="translate(3608,823)" style="fill: #010101;"/><path d="M0,0 L186,0 L186,82 L183,95 L178,103 L171,109 L155,114 L0,114 Z " transform="translate(3407,823)" style="fill: #000000;"/><path d="M0,0 L182,0 L182,85 L178,98 L170,107 L162,111 L148,114 L0,114 Z " transform="translate(3412,557)" style="fill: #000000;"/><path d="M0,0 L185,0 L185,79 L182,92 L176,102 L168,108 L159,111 L154,112 L0,112 Z " transform="translate(3608,557)" style="fill: #000000;"/><path d="M0,0 L93,0 L93,213 L0,213 Z " transform="translate(1911,644)" style="fill: #FCFCFC;"/><path d="M0,0 L93,0 L93,205 L90,210 L88,211 L0,211 Z " transform="translate(2067,644)" style="fill: #FCFCFC;"/><path d="M0,0 L199,0 L199,78 L0,78 Z " transform="translate(2957,689)" style="fill: #FCFCFC;"/><path d="M0,0 L155,0 L155,94 L151,99 L149,100 L0,100 Z " transform="translate(5593,1207)" style="fill: #FCFCFC;"/><path d="M0,0 L284,0 L284,50 L0,50 Z " transform="translate(5526,1078)" style="fill: #000000;"/><path d="M0,0 L245,0 L245,56 L0,56 Z " transform="translate(1907,1073)" style="fill: #FCFCFC;"/><path d="M0,0 L65,0 L73,11 L95,11 L100,6 L102,0 L150,0 L147,10 L136,39 L131,45 L122,49 L91,49 L100,65 L115,90 L121,100 L125,102 L155,103 L155,148 L93,148 L81,145 L72,139 L67,130 L59,114 L45,87 L33,65 L14,28 L4,9 L0,2 Z " transform="translate(4928,1223)" style="fill: #000000;"/><path d="M0,0 L244,0 L244,53 L0,53 Z " transform="translate(1908,1177)" style="fill: #FBFBFB;"/><path d="M0,0 L243,0 L243,48 L240,52 L0,52 Z " transform="translate(1908,1280)" style="fill: #FEFEFE;"/><path d="M0,0 L50,0 L47,11 L36,44 L32,50 L26,54 L19,56 L-27,57 L-18,67 L-13,74 L-7,77 L47,78 L47,118 L-25,118 L-36,116 L-47,110 L-55,102 L-65,88 L-81,67 L-95,48 L-111,27 L-125,8 L-127,4 L-63,4 L-54,14 L-51,18 L-12,18 L-8,16 L-4,10 Z " transform="translate(4265,814)" style="fill: #010101;"/><path d="M0,0 L77,0 L90,19 L106,42 L121,64 L137,87 L141,93 L145,95 L157,96 L157,146 L117,146 L104,142 L93,135 L85,127 L64,96 L45,68 L26,40 L7,12 L0,2 Z " transform="translate(5337,1216)" style="fill: #010101;"/><path d="M0,0 L77,0 L69,16 L52,49 L40,71 L28,94 L21,103 L12,111 L0,117 L-17,121 L-67,121 L-67,61 L-43,60 L-35,56 L-28,48 L-14,23 L-4,6 Z " transform="translate(5175,1080)" style="fill: #000000;"/><path d="M0,0 L168,0 L168,59 L0,59 Z " transform="translate(2258,997)" style="fill: #010101;"/><path d="M0,0 L52,0 L49,11 L33,58 L17,106 L5,141 L-2,151 L-12,158 L-26,162 L-84,162 L-84,121 L-46,120 L-42,118 L-40,113 L-27,77 L-6,16 Z " transform="translate(5680,713)" style="fill: #020202;"/><path d="M0,0 L61,0 L60,8 L55,29 L50,47 L45,66 L38,80 L31,87 L21,92 L12,94 L-106,94 L-106,49 L-22,48 L-14,44 L-10,39 L-7,30 L-1,2 Z " transform="translate(3584,1070)" style="fill: #000000;"/><path d="M0,0 L60,0 L65,17 L69,35 L74,43 L80,47 L83,48 L172,49 L172,90 L42,90 L32,86 L24,79 L19,72 L14,58 L5,23 L1,8 Z " transform="translate(3682,1070)" style="fill: #000000;"/><path d="M0,0 L50,0 L50,173 L0,173 Z " transform="translate(4018,562)" style="fill: #000000;"/><path d="M0,0 L68,0 L65,11 L58,38 L53,55 L47,77 L41,89 L34,96 L25,100 L21,101 L-45,101 L-45,53 L-20,52 L-15,49 L-11,41 L-7,25 L-3,12 Z " transform="translate(2923,834)" style="fill: #010101;"/><path d="M0,0 L42,0 L42,170 L38,176 L33,179 L0,179 Z " transform="translate(3134,1137)" style="fill: #FDFDFD;"/><path d="M0,0 L69,0 L75,20 L81,41 L83,45 L88,48 L107,49 L107,98 L53,98 L40,94 L29,86 L22,75 L18,64 L13,46 L7,26 L0,2 Z " transform="translate(3154,834)" style="fill: #010101;"/><path d="M0,0 L224,0 L224,33 L0,33 Z " transform="translate(4379,1224)" style="fill: #F8F8F8;"/><path d="M0,0 L224,0 L224,32 L0,32 Z " transform="translate(4379,1144)" style="fill: #FCFCFC;"/><path d="M0,0 L54,0 L66,22 L71,31 L77,35 L131,36 L131,74 L42,74 L30,69 L23,61 L8,21 Z " transform="translate(5236,855)" style="fill: #040404;"/><path d="M0,0 L50,0 L41,19 L31,38 L20,59 L16,66 L9,71 L4,73 L-3,74 L-74,74 L-74,37 L-29,36 L-20,32 L-14,23 L-1,1 Z " transform="translate(5063,858)" style="fill: #000000;"/><path d="M0,0 L48,0 L47,17 L42,58 L39,68 L32,76 L22,80 L18,81 L-30,81 L-30,42 L-9,41 L-6,36 L-1,3 Z " transform="translate(3964,656)" style="fill: #010101;"/><path d="M0,0 L39,0 L39,113 L0,113 Z " transform="translate(3327,1049)" style="fill: #FBFBFB;"/><path d="M0,0 L47,0 L50,9 L55,28 L58,32 L69,33 L69,75 L29,75 L21,71 L18,66 L14,50 L8,29 Z " transform="translate(3934,562)" style="fill: #010101;"/><path d="M0,0 L33,0 L33,101 L30,110 L27,112 L0,112 Z " transform="translate(4759,1199)" style="fill: #F7F7F7;"/><path d="M0,0 L34,0 L34,98 L31,103 L29,104 L0,104 Z " transform="translate(4759,1047)" style="fill: #FAFAFA;"/><path d="M0,0 L47,0 L47,61 L44,66 L39,69 L0,69 Z " transform="translate(3961,1144)" style="fill: #FDFDFD;"/><path d="M0,0 L93,0 L93,24 L90,30 L87,32 L0,32 Z " transform="translate(4922,1125)" style="fill: #FCFCFC;"/><path d="M0,0 L93,0 L93,31 L0,31 Z " transform="translate(4922,1046)" style="fill: #F8F8F8;"/><path d="M0,0 L85,0 L85,22 L80,26 L0,26 Z " transform="translate(4675,871)" style="fill: #F7F7F7;"/><path d="M0,0 L83,0 L83,26 L0,26 Z " transform="translate(4524,871)" style="fill: #F7F7F7;"/><path d="M0,0 L85,0 L85,25 L0,25 Z " transform="translate(4675,804)" style="fill: #FCFCFC;"/><path d="M0,0 L83,0 L83,25 L0,25 Z " transform="translate(4524,804)" style="fill: #FCFCFC;"/><path d="M0,0 L70,0 L70,23 L68,25 L0,25 Z " transform="translate(3464,868)" style="fill: #FEFEFE;"/><path d="M0,0 L69,0 L69,23 L67,25 L0,25 Z " transform="translate(3665,870)" style="fill: #FDFDFD;"/><path d="M0,0 L69,0 L69,22 L67,24 L0,24 Z " transform="translate(3665,600)" style="fill: #FAFAFA;"/><path d="M0,0 L69,0 L69,19 L66,24 L0,24 Z " transform="translate(3467,602)" style="fill: #FAFAFA;"/><path d="M0,0 L103,0 L103,15 L102,16 L0,16 Z " transform="translate(5073,723)" style="fill: #F3F3F3;"/><path d="M0,0 L103,0 L103,15 L0,15 Z " transform="translate(5073,668)" style="fill: #FBFBFB;"/><path d="M0,0 L103,0 L103,14 L0,14 Z " transform="translate(5073,612)" style="fill: #F6F6F6;"/></svg>