<?xml version="1.0" encoding="utf-8"?>
<!-- Generator: Adobe Illustrator 27.2.0, SVG Export Plug-In . SVG Version: 6.00 Build 0)  -->
<svg version="1.1" id="Layer_1" xmlns="http://www.w3.org/2000/svg" xmlns:xlink="http://www.w3.org/1999/xlink" x="0px" y="0px"
	 viewBox="0 0 1051.5 301.4" style="enable-background:new 0 0 1051.5 301.4;" xml:space="preserve">
<style type="text/css">
	.st0{fill-rule:evenodd;clip-rule:evenodd;fill:#00561F;}
</style>
<g>
	<path class="st0" d="M938.7,109.1c2.2-1.7,1.7-27,0.5-34.8c-1.5-3.8-1.9-9.2-1.3-12c0.8-3.9,2.8-5,5.4-3.7c2.9,1.4,6,5.7,9.2,12.5
		c2.3,4.7-0.1,4.1-0.1,5.7c-0.1,8.7-1,17.3-1,23.1c-0.1,3.6,4.6,4,5.5,1.9c0.8-14.3-1-33.1,0.4-41.4c0.1-5.4-2.2-12.1,0-13.8
		c2.6-2,8.3-0.8,11,0.5c1.9,1.1,1.9-2.4,3.4-2.9c0.4-0.1,0.6-0.1,1-0.3c2.9-0.8,6.1-0.5,7.6,0.9c2.6,2.3,5.7,4.3,8.5,3.1
		c0.5-0.2,1.1-0.6,1.7-1.1c3.7-3.7-0.4-14.7,7.1-15.4c2,0,4.1,1,5.7,2.6c1.9,1.5,3.6,3.6,4.6,5h0.1c1.7,2,1.9,4.2-0.1,7.6
		c-0.9,1.8-2.4,3.7-4.6,6.2c-0.4,0.5-0.9,1-1.3,1.5c-0.4,0.4-0.9,0.6-1.1,2.9c0.1,1.5,1.3,2.2,2.4,2.9c1.3,0.9,2.4,2,1.8,5.2
		c-0.3,1,1,1.8,2.8,2.3c3.4,0.9,8.5,1,9.3,1.5c1.4,0.8,2.7-1.7,0.8-3.2c-0.6-0.6-2.5-2.3-4.5-3.6c-1.9-1.3-4.1-2.4-5.6-3.6
		c-1-0.9-1.9-1.7-2-2.4c-0.1-1.1,0.6-1.9,2-2.3c1.8-0.6,4.3-0.9,7.3-1.1c3.7-0.3,8.5-3.8,11.9-2.8c3.2,1,5.6,0.6,10.2,11.5
		c0.8,2-1.3,5.1-3.2,7.9c-2.8,4.5-3.6,8.7-6.5,13.3c-2,3.3-7.8,13-4.7,12.4c11-2.4,14.5-1.9,20.5,3.6c4,3.4,7.8,5.7,8.2,9.8v1
		c-0.1,0.8-0.3,1.5-0.5,2.4c-6.4,10.8-20.7,2.7-32.9,7.8c-2,2.3-1.3,6.4-6.2,7.9c-1.3,0.4-2.7,1-4,1.7c-1.7,0.9-3.2,1.9-4.6,3.1
		c-3.3,2.7-5.7,5.6-5.9,7.5c-0.1,1.8,2.3,2.2,5.9,2c1.4,0,2.9-0.3,4.6-0.4c3.3-0.5,6.9-1,10.1-1.4c4.6-0.5,7.4-3.2,9.2-1.8
		c5.2,4,6.1,4.6,8.8,12c2.3,6.6-7.3,9.1-12.2,7.8c-7.6-1.8-9.7-2.9-15.8-2.2c-1,0.1-2.3,0.3-3.7,0.5c-0.4,0-0.6,0.3-0.9,0.5
		c-2.6,2.5,0,15.4-2.4,21.3c-1.8,4.6-4.3,9.9-6.8,13.6c-1.7,2.4-3.4,4.6-5.3,6.1c-4.6,4-9.3,5.2-11.9,3.2c-1-0.8-2.4-2.4-4.3-4.7
		c-1.5-1.7-3.4-3.7-5.7-5.9c-3.6-3.2-9.7-5.5-12.9-8.5c-2-3.3,9.9-2.4,18.6-2.9c4-0.1,7.3-0.8,8-2.2c2.7-4.6,2.4-9.2,1.9-14.8
		c0.1-2.2-2.8-0.9-7.7-1.4c-0.8-0.1-1.5-0.1-2.3-0.1c-8.3,0.4-20.6,6.2-25.6,3.7c-5.4-2.5-5.9-4-7.8-5.7c-4-3.7-5.6-7.1,2.5-9.2
		c7.8-2.2,18.2-1,26.4-2c1.4-0.3,2.9-0.1,4.5-0.3c1.7-0.1,3.1-0.3,3.8-1.1c2.2-2.4-2.2-5-1.9-7.3c0.6-3.7,10.1-4.8,11-7.4
		c1-2.8,2.7-1.3,3.1-4.7c0.4-3.1-7,0.3-10.1,1.1c-2.2,0.6-4.1,0.9-5.9,1.4c-2.4,0.6-4.8,1.7-7.5,4.6c-1.5,1.7-9.3,3.9-14.8-0.6
		c-2.4-2-3.6-4.3,1.8-7.5c2.2-1.3,8.5-5,10.7-6c2.4-1.1,5.7-2.2,9.8-3.1c4.6-1.1,10.1-2.2,16.2-3.3l2.5-0.4c4-0.8,8-1.3,12-1.7
		c1.7-0.1,3.2-0.2,4.6-0.5c4.3-0.3,7.9-0.5,10.2-0.8c2.3-0.3,3.6-2.8,1.8-4c-0.6-0.4-5.5-0.1-12,0.3c-1.4,0.1-2.9,0.1-4.6,0.3
		c-1.9,0.3-3.8,0.4-5.9,0.5c-2.8,0.3-5.7,0.5-8.7,0.8c-3.4,0.3-6.8,0.6-9.8,1.4c-1.3,0.3-3.8,0.5-6,1.8c-0.1,0.1-0.3,0.1-0.4,0.2
		c-1.5,1.1-2.7,3.3-4.6,3.6c-3.3,0.5-6,0.4-7.8,0.6c-2.4,0.3-3.6,0.9-6.5,1.3c-2.6,0.4-8.3,1.4-12,4.7c-3.7,3.1-4.1,12.1-6.1,15.9
		c-1.5,3.2-3.3,6.2-4.7,9.1c-1.8,3.4-3.4,6.1-7,7c-5,1.1-8.9-5.1-9.3-8.9v-1.3v-0.1c1.4-5.6,2.7-10.2,3.1-15.3
		c0.4-3.4-0.9-6.9-0.5-9.7c0.4-2.7,2.2-3.7,3.4-5.4c1.5-1.7,2.9-3.7,5.5-3.2c2.2,0.4,3.4,2,5.6,2.3
		C934.9,112.1,936.5,111,938.7,109.1L938.7,109.1z M972.6,56.1h-0.4c-0.8,0.6-0.6,1.7-0.6,2.3c-0.6,5.3-1.5,9.6-1.4,14.5
		c0.5,0.4,1.4,0.1,2.4-0.4c2.4-1.4,5.5-4.7,6-7.6C979.2,59.1,977.2,55,972.6,56.1L972.6,56.1z M972.6,84.2c-1,0.3-2.8,0.9-3.1,3.7
		c-0.4,5.4-3.6,5.2-1.9,10.2c0.6,0.5,2.8-0.1,5-1.4c2.4-1.4,4.8-3.4,5.1-5.1c0.8-6,0.6-9.1-4.3-7.8C973.4,84,973.1,84.1,972.6,84.2
		L972.6,84.2z M988.8,72.6c-0.4,0.1-0.8,0.4-1.1,1.1c-0.9,1.9-1.4,2.3-0.8,4.2c0.3,0.3,1.1-0.1,1.9-0.6c0.9-0.6,1.9-1.5,2-2.2
		c0.3-2.3,0.4-3.2-1.5-2.8C989.3,72.5,989,72.5,988.8,72.6L988.8,72.6z M988.8,96.1c-0.4,0.5-0.4,0.5-0.9,1.9
		c0.1,0.3,0.4,0.4,0.9,0.5c0.9,0.3,2.3,0.3,2.9-0.4c1.5-1.8,1.7-2.3-0.2-2.9c-0.1,0.1-0.8-1.3-1.8,0C989.3,95.7,988.9,96,988.8,96.1
		L988.8,96.1z M1003.3,73.5c-1,0.8-0.5,2.4-0.1,3.8l0.1,0.1c0.5,0.6,2.2,1.1,3.7,0.9c0.4,0,0.6,0,0.9,0.1c2.5,0.1,4.1,0.1,4.8-0.8
		c0.6-0.9,0.8-2.7-0.3-3.4c-1.3-0.5-2.9-0.8-4.6-1c-1.5-0.1-3.1-0.1-3.8,0C1003.8,73.3,1003.6,73.4,1003.3,73.5L1003.3,73.5z
		 M1003.3,90c-0.1,0-0.3,0-0.4,0.1c-2,0.3-1.7,0.9-2.3,2.8c0.1,0.5,1.5,1,2.7,1c0.5,0,1-0.1,1.3-0.4c0.8-0.9,2.2-1.5,0.9-2.8
		C1005,90.1,1004.6,89.8,1003.3,90z"/>
	<path class="st0" d="M750.9,89.6c7.4,0.3,12.2-0.5,12.1-1.9c0.3-6,0.3-16.4-1.4-24.3c-1-4.1,1.9-6.6,4.2-7.9
		c5.5-3.2,6.9-4.7,9.9-4.3c5.5,0.8,9.4,4.2,13.3,9.1c1.8,2.7,3.3-1,1,12.1c-1.2,6.8,0,7.3,0.9,8.3c3.1,1.1,6.2,0.4,11-1.1
		c5.6-1.7,7.7-10.3,18.9,2.9c1.5,1.5,2.7,3.8,0.6,6.6c-2.4,3.3-8.2,5.1-14.8,8.8c-8.5,4.7-22.3,5.6-20.3,11.7
		c5.7,14.7,21.5,35.6,42.3,50.1c5.3,3.7,11.8,6.8,19.1,8.8c10.7,2.9,19.6,5.2,14.4,7.9c-8,4.2-38,9.1-46.4,4.5
		c-8.7-4.7-34.7-45.9-39.3-54c-0.3-0.4-0.9-0.4-1.4,0.6c-4.7,10.7-15,30.6-25.5,38.9c-4.6,3.6-11.3,1.8-13.4,0.1
		c-2.4-1.8-17.6-5.1-20.1-9.8c-1.3-3.1,0.8-3.2,2.4-3.4c20-0.9,22.7-6.8,27.4-10.3c12.2-9.4,14.1-25.9,12.5-26.5
		c-18.2,1.7-24.6,3.9-30.5-2.9c-11.3-22.7-2.2-26.5,8.5-25.1C741.9,88.8,749,89.6,750.9,89.6z"/>
	<path class="st0" d="M566.7,111.4c2.2,0.6,4.1,1.9,6,5.6c5.5,8.8,3.2,19.8,4.7,26.6c1.4,0.8,4.8,0.1,8.9-0.5
		c5.2-0.9,11-1.9,10.8-3.3c-0.8-7.5,0.4-55.3-0.6-61.9c-0.1-0.6-0.6-2.9-0.8-3.6c-2.4-11,8-14.3,11.1-13.9
		c5.5,0.6,16.3,10.8,14.7,15.4c-2.8,4.8-3.1,18.5-3.2,31.5c-0.1,11.2-0.3,22.1,0.3,26.1c0,3.4,13.9-0.9,18.5-2.7
		c5.9-1.1,4.6-19.5,9.6-22.9c2.4-1.7,16.2,0.8,18.4,12.4c0.3,6.2-1.7,14.4-3.2,22.2c-1,5.6-1.9,12.2-2.2,14.8
		c-0.1,2.5-10.8,13.5-14.4,15.9c-5.6,1.4-7.4-11.9-7.4-19c0-3.8,0.1-5.1-0.9-5.9c-3.3-0.4-11.8,1.1-16.9,3.8c-2.7,1.4-3.6,5.4-7.3,6
		c-14.4-0.5-28.9,2.3-31.1,4.6c-1.3,1.3-8,7-9.2,8.7c-1.1,1.5-6.3,0-7.8,0.5c-3.7,1.1-5.9-5.4-9.9-10.7c-4.5-5.6-1.4-8.9,1.2-14.9
		c2.9-6.8,3.8-18.9,3.2-26.9C559.1,115.1,558.8,110.2,566.7,111.4z"/>
	<path class="st0" d="M459.7,55.9c2.4,0.1,5.2,0.1,8-0.1c5-0.5,11.3-4.8,15.9-4.8c6.6-0.1,15.6,9.3,17.8,15.2
		c1.3,5.1-1.9,9.2-5.5,11.1l-3.1,0.9c-3.4,1.8-9.8,10.1-9.6,11.7c-0.1,2.4-0.1,4.1,2.4,5.9c1.5,2.3-2.3,11.9-6.9,13.6
		c-1.4,0.8-2.7,1.5-6.3,1.5c-4.2-0.1-8.7,1-13,2.8c-3.2,1.4-6.4,3.2-9.4,5.1c-0.3,23.1-2.2,44.6-2.9,67.6
		c-1.7,12.1-5.7,23.2-11.9,24.1c-4.5-0.5-8.7-10.2-8.9-25.4l-1-62.8c-2.4,0.4-5.4,1.4-8.7,2.7c-2.4,0.9-5.1,2-7.9,3.2
		c-1.4,1.3-2.7,2.3-3.9,3.8c-1.3,1.5-2.2,4-3.8,4.3c-3.8,0.9-7.9,0.4-11.2-1.9c-2.7-2.2-2.7-7.4-6.5-13.1c-3.1-3.8-6-6.6-6-12
		c1.9-4.8,2.5-7.4,4.2-10.3c0.4-1.4,0.8-2.8,0.9-5c0.5-5.6,1.3-10.2,3.3-15.6c1.7-2.9,9.4-7.8,15.4-2.7c2.7,0.8,4.7-1,8-2.9
		c3.1-1.8,5.3-3.2,7.5-4.5c4.1-2.3,7-3.8,11.7-5.4c-0.3-6.9-1.1-14.1-1-20.8c0.1-1.4-0.4-2.7-0.8-3.6c-2.8-5.7,3.6-13.1,12.7-15.4
		c2.6-0.4,13.9,5.1,14,10.2c-0.3,7.3-1,15.6-0.4,22.1C454.8,55.5,457.1,55.8,459.7,55.9L459.7,55.9z M416.8,103.2
		c2.5,0,4-0.6,7.1-2.5c2-1.3,1.4-15.2,0.8-17.6c-1-1.5-2.8,0.6-3.4,1c-1.5,0.9-3.1,1.5-4.5,1.9c-2.8,0.8-5.5,0.8-7.8,0.1
		c-2.3-1,0.3,15.9,3.1,16.6C414.2,103.1,415.6,103.2,416.8,103.2L416.8,103.2z M459.7,88.3c2-1.5,3.7-3.3,4.2-4.5
		c2.4-3.4,5.6-9.1,3.7-13.5c-1.9-1.4-5-1.5-7.9-1.1c-2.7,0.4-5.2,1.3-6.8,1.9c-1.5,2.7-2.6,18.6-0.5,19.8
		C454.8,91.1,457.5,90,459.7,88.3z"/>
	<path class="st0" d="M398.8,254.8h-1.4c-0.6-2.1-1.5-4-2.9-5.6c-1.8-2.1-3.9-3.1-6.4-3.1c-1.4,0-2.6,0.4-3.6,1.1
		c-1,0.8-1.5,1.9-1.5,3.4c0,1.2,0.3,2.2,0.9,3c0.6,0.7,1.9,1.7,4,2.6l6.9,3.5c1.2,0.6,2.2,1.5,3.1,2.7c1.4,1.8,2,3.8,2,6
		c0,2.6-0.8,4.7-2.6,6.6c-2.1,2.3-5.2,3.4-9.1,3.4c-1.5,0-2.9-0.2-4.2-0.6c-1.3-0.3-2.6-0.6-4-1.1c-0.4,0-0.7,0.2-0.9,0.5
		c-0.2,0.4-0.4,0.7-0.5,1.2h-1.4v-11.7h1.4c0.6,2.9,1.6,5.2,3,6.9c1.8,2.1,4,3.2,6.7,3.2c1.9,0,3.4-0.5,4.4-1.5c1-1,1.5-2.3,1.5-3.9
		c0-1.4-0.5-2.6-1.5-3.5c-0.7-0.6-1.9-1.3-3.8-2.2l-3.2-1.6c-3.5-1.7-5.8-3.6-7-5.6c-0.7-1.3-1-2.8-1-4.5c0-3,1-5.4,3.1-7.1
		c1.8-1.5,4.2-2.2,7.3-2.2c1.5,0,3,0.3,4.7,0.7c1.6,0.6,2.5,0.8,2.7,0.8c0.6,0,1-0.3,1.3-0.7c0.1-0.2,0.2-0.5,0.3-0.8h1.5V254.8
		L398.8,254.8z M437.8,245.3v1.2c-1.4,0.2-2.3,0.6-2.8,0.9c-0.6,0.5-0.9,1.6-0.9,3.1v15.1c0,1.7-0.2,3.2-0.6,4.8
		c-0.5,1.9-1.2,3.4-2.1,4.3c-1.1,1.2-2.6,2.1-4.4,2.8c-1.6,0.5-3.1,0.7-4.9,0.7c-1.6,0-3-0.2-4.4-0.5c-2-0.5-3.8-1.3-5.2-2.5
		c-1.2-1.1-1.9-2.1-2.4-3c-0.6-1.3-0.8-3.1-0.8-5.5v-15.9c0-1.8-0.4-3-1-3.5c-0.4-0.4-1.4-0.6-3-0.8v-1.2h16.1v1.2
		c-1.8,0-3,0.2-3.4,0.7c-0.8,0.6-1.2,1.8-1.2,3.7v15.9c0,3.2,0.6,5.5,1.7,7c1.2,1.5,2.9,2.2,5.2,2.2c3.6,0,6.1-1.4,7.4-4
		c0.7-1.5,1.1-3.6,1.1-6.4v-14.4c0-1.7-0.3-2.8-0.8-3.4c-0.6-0.8-1.9-1.3-3.9-1.3v-1.2H437.8L437.8,245.3z M441.9,277.4v-1.2
		c1.6-0.2,2.7-0.5,3.1-0.7c0.6-0.6,1-1.6,1-3.1v-22.5c-1.2-1.6-2.1-2.5-2.8-3c-0.5-0.3-0.8-0.5-1.3-0.5v-1.2h10.1l16.4,20.2
		l0.1-14.3c0-1.7-0.3-2.8-0.7-3.4c-0.7-0.8-1.8-1.3-3.7-1.3v-1.2h10.3v1.2c-1.7,0.2-2.7,0.6-3.1,1.1c-0.4,0.6-0.6,1.4-0.6,2.7v27.9
		h-1.4l-21.1-25.7l-0.1,19c0,1.7,0.3,2.9,0.8,3.4c0.6,0.6,1.8,1,3.6,1.2v1.2H441.9L441.9,277.4z M536.8,276.1
		c-0.2,0-0.4,0.1-0.6,0.1v1.2h0.6V276.1L536.8,276.1z M536.8,245.3v1.3c-0.6,0.2-1,0.4-1.4,0.6c-0.4,0.2-0.8,0.6-1.1,1.2l-9.1,14.8
		v8.7c0,1.8,0.4,3,0.9,3.5c0.5,0.4,1.7,0.6,3.5,0.8v1.2h-16.4v-1.2c1.8-0.2,3-0.5,3.4-0.7c0.6-0.6,0.9-1.8,0.9-3.6v-6.9l-8.7-15.8
		c-0.3-0.5-0.5-0.8-0.6-1c-0.9-1-1.9-1.6-3.2-1.6v-1.2h15.9v1.2c-1.7,0-2.7,0.1-3.1,0.3c-0.5,0.2-0.6,0.6-0.6,1.3
		c0,0.3,0.1,0.7,0.5,1.4c0.3,0.6,0.6,1,0.6,1.3l5.7,11l5.3-8.8c0.4-0.6,0.6-1.2,1-1.8c0.6-1.2,0.8-2,0.8-2.5c0-0.8-0.4-1.4-1.1-1.7
		c-0.6-0.4-1.7-0.5-2.9-0.5v-1.2H536.8L536.8,245.3z M536.8,246.6c0.3,0,0.5-0.1,0.6-0.1v-1.2h-0.6V246.6L536.8,246.6z M549.4,249.6
		v5.5l-0.2-0.5l-4.4,11.5h4.6v1.8H544c-0.7,1.8-1.2,3.2-1.6,4.2c-0.4,1-0.6,1.7-0.6,1.9c0,0.8,0.5,1.4,1.4,1.8
		c0.6,0.2,1.4,0.3,2.5,0.3v1.2h-9v-1.3c0.9-0.3,1.6-0.7,2.1-1.5c0.5-0.6,1.1-1.8,1.8-4L549.4,249.6L549.4,249.6z M568.3,276.1
		c-1,0-1.8-0.5-2.6-1.4c-0.5-0.7-1.3-2.5-2.5-5.2l-10.5-24.9h-1.4l-1.9,5v5.5l4.6,11.1h-4.6v1.8h5.3c0.7,1.6,1.2,2.7,1.4,3.2
		c0.6,1.5,0.8,2.5,0.8,3c0,0.8-0.3,1.3-0.8,1.6c-0.5,0.2-1.5,0.3-3,0.3v1.2h15.2V276.1L568.3,276.1z M568.3,245.3v9.5h-0.2
		L568.3,245.3L568.3,245.3z M619.9,269.2h-16.4v-5.4h16.4V269.2L619.9,269.2z M647.4,254.8h-1.3c-0.6-2.1-1.6-4-2.9-5.6
		c-1.8-2.1-4-3.1-6.5-3.1c-1.4,0-2.5,0.4-3.5,1.1c-1,0.8-1.6,1.9-1.6,3.4c0,1.2,0.4,2.2,1,3c0.6,0.7,1.9,1.7,3.9,2.6l7,3.5
		c1.2,0.6,2.2,1.5,3.1,2.7c1.4,1.8,2,3.8,2,6c0,2.6-0.8,4.7-2.6,6.6c-2.1,2.3-5.2,3.4-9.2,3.4c-1.6,0-3-0.2-4.3-0.6
		c-1.3-0.3-2.6-0.6-3.9-1.1c-0.5,0-0.7,0.2-0.9,0.5c-0.2,0.4-0.4,0.7-0.5,1.2h-1.4v-11.7h1.4c0.6,2.9,1.5,5.2,2.9,6.9
		c1.8,2.1,4.1,3.2,6.8,3.2c1.8,0,3.3-0.5,4.3-1.5c1-1,1.6-2.3,1.6-3.9c0-1.4-0.5-2.6-1.5-3.5c-0.6-0.6-1.9-1.3-3.9-2.2l-3.1-1.6
		c-3.5-1.7-5.8-3.6-7-5.6c-0.7-1.3-1.1-2.8-1.1-4.5c0-3,1.1-5.4,3.2-7.1c1.8-1.5,4.2-2.2,7.3-2.2c1.5,0,3,0.3,4.6,0.7
		c1.7,0.6,2.6,0.8,2.8,0.8c0.6,0,0.9-0.3,1.2-0.7c0.2-0.2,0.3-0.5,0.4-0.8h1.4V254.8L647.4,254.8z M654,246.5v-1.2h27.4v9.5h-1.1
		c-0.6-3.1-1.7-5.4-3.4-6.5c-1.6-0.9-4-1.4-7.5-1.4c-1.4,0-2.3,0.1-2.8,0.4c-0.5,0.2-0.7,0.8-0.7,1.8v11c2.5,0,4.2-0.5,5.3-1.4
		c1.3-1,2.1-3,2.5-5.7h1.2v16.1h-1.2c-0.3-2.9-1-4.8-2.2-5.8c-1.2-1-3-1.6-5.5-1.6v11.5c0,1,0.3,1.7,0.8,2c0.6,0.4,1.7,0.6,3.2,0.6
		c2.8,0,5.1-0.5,6.8-1.5c2.3-1.3,4.2-3.6,5.6-6.9h1.3l-1.9,9.9H654v-1.2c1.7-0.1,2.7-0.4,3-0.6c0.7-0.5,1.1-1.3,1.1-2.7v-23
		c0-1.4-0.4-2.3-1.2-2.8C656.3,246.7,655.4,246.5,654,246.5L654,246.5z M688,277.4v-1.2c1.7-0.2,2.7-0.5,3.1-0.7
		c0.7-0.6,1-1.6,1-3.1v-22.5c-1.2-1.6-2.1-2.5-2.7-3c-0.5-0.3-0.9-0.5-1.3-0.5v-1.2h10l16.4,20.2l0.1-14.3c0-1.7-0.2-2.8-0.7-3.4
		c-0.6-0.8-1.8-1.3-3.6-1.3v-1.2h10.2v1.2c-1.6,0.2-2.7,0.6-3.1,1.1c-0.5,0.6-0.6,1.4-0.6,2.7v27.9h-1.3l-21.2-25.7l-0.1,19
		c0,1.7,0.3,2.9,0.9,3.4c0.6,0.6,1.8,1,3.6,1.2v1.2H688L688,277.4z M770.4,245.3v1.2c-1.4,0.2-2.3,0.6-2.8,0.9
		c-0.6,0.5-0.9,1.6-0.9,3.1v15.1c0,1.7-0.2,3.2-0.6,4.8c-0.5,1.9-1.2,3.4-2.1,4.3c-1.1,1.2-2.6,2.1-4.4,2.8
		c-1.6,0.5-3.1,0.7-4.9,0.7c-1.6,0-3.1-0.2-4.4-0.5c-2.1-0.5-3.8-1.3-5.2-2.5c-1.2-1.1-1.9-2.1-2.4-3c-0.6-1.3-0.8-3.1-0.8-5.5
		v-15.9c0-1.8-0.4-3-1-3.5c-0.4-0.4-1.4-0.6-3-0.8v-1.2H754v1.2c-1.8,0-3,0.2-3.5,0.7c-0.7,0.6-1.1,1.8-1.1,3.7v15.9
		c0,3.2,0.6,5.5,1.7,7c1.2,1.5,2.9,2.2,5.2,2.2c3.6,0,6.1-1.4,7.4-4c0.7-1.5,1-3.6,1-6.4v-14.4c0-1.7-0.2-2.8-0.7-3.4
		c-0.6-0.8-1.9-1.3-3.9-1.3v-1.2H770.4L770.4,245.3z M774.1,277.4v-1.2c1.6-0.2,2.6-0.5,3.1-0.7c0.7-0.6,1-1.6,1-3.1v-22.5
		c-1.2-1.6-2.1-2.5-2.8-3c-0.5-0.3-0.8-0.5-1.3-0.5v-1.2h10.1l16.4,20.2l0.1-14.3c0-1.7-0.3-2.8-0.7-3.4c-0.6-0.8-1.8-1.3-3.7-1.3
		v-1.2h10.2v1.2c-1.6,0.2-2.6,0.6-3,1.1c-0.4,0.6-0.7,1.4-0.7,2.7v27.9h-1.3l-21.2-25.7l-0.1,19c0,1.7,0.4,2.9,0.9,3.4
		c0.6,0.6,1.8,1,3.6,1.2v1.2H774.1L774.1,277.4z M827.1,276.1v1.2h-16.6v-1.2c2-0.2,3.2-0.5,3.7-0.9c0.5-0.6,0.7-1.3,0.7-2.4v-23
		c0-1.4-0.5-2.3-1.4-2.8c-0.6-0.4-1.7-0.6-3-0.6v-1.2h16.6v1.2c-1.5,0-2.5,0.2-3.1,0.5c-0.9,0.5-1.4,1.5-1.4,2.9v23
		c0,1.4,0.5,2.3,1.3,2.8C824.5,276,825.6,276.1,827.1,276.1L827.1,276.1z M862.6,245.3v1.2c-1.3,0.2-2.1,0.5-2.7,1
		c-0.5,0.5-1,1.5-1.6,2.9l-10.8,27.8h-1.3l-12.2-28.4c-0.6-1.4-1.1-2.2-1.6-2.6c-0.5-0.3-1.2-0.6-2.4-0.7v-1.2h16v1.2
		c-1.7,0-2.8,0.1-3.3,0.4c-0.6,0.2-0.8,0.7-0.8,1.6c0,0.4,0.3,1.1,0.6,2c0.4,1,0.7,1.8,0.8,2.1l6.2,15l6-15.6
		c0.3-0.7,0.6-1.3,0.7-1.8c0.2-0.6,0.3-1,0.3-1.4c0-1.5-1.4-2.2-4.2-2.2v-1.2H862.6L862.6,245.3z M866.7,246.5v-1.2h27.4v9.5h-1.2
		c-0.6-3.1-1.7-5.4-3.4-6.5c-1.5-0.9-4-1.4-7.5-1.4c-1.4,0-2.3,0.1-2.8,0.4c-0.5,0.2-0.6,0.8-0.6,1.8v11c2.4,0,4.2-0.5,5.3-1.4
		c1.3-1,2-3,2.4-5.7h1.2v16.1h-1.2c-0.3-2.9-1-4.8-2.2-5.8c-1.1-1-3-1.6-5.4-1.6v11.5c0,1,0.3,1.7,0.8,2c0.6,0.4,1.6,0.6,3.1,0.6
		c2.8,0,5.1-0.5,6.8-1.5c2.4-1.3,4.2-3.6,5.6-6.9h1.3l-1.8,9.9h-27.8v-1.2c1.7-0.1,2.7-0.4,3.1-0.6c0.7-0.5,1.1-1.3,1.1-2.7v-23
		c0-1.4-0.5-2.3-1.3-2.8C869.1,246.7,868.1,246.5,866.7,246.5L866.7,246.5z M568.3,254.8v-9.5h28.5l0.1,9.5h-1.4
		c-0.5-3.3-1.7-5.5-3.7-6.8c-1.3-0.7-3-1.1-5.5-1.1v24.9c0,1.9,0.4,3.1,1,3.7c0.6,0.5,1.8,0.6,3.7,0.6v1.2h-17v-1.2
		c1.9,0,3.1-0.2,3.6-0.6c0.7-0.6,1-1.8,1-3.7v-24.9c-2.4,0-4.2,0.4-5.5,1.1c-2,1.2-3.2,3.5-3.7,6.8H568.3L568.3,254.8z M568.3,276.1
		L568.3,276.1l0.1,1.2h-0.1V276.1L568.3,276.1z M915.6,245.3v1.8c-0.5-0.1-0.9-0.1-1.5-0.1c-1.2,0-1.9,0.1-2.2,0.3
		c-0.4,0.3-0.6,0.8-0.6,1.7V261c1.8,0,3.1-0.1,4.3-0.4v6.6l-3.1-4.7h-1.2v9.3c0,1.8,0.3,3,0.8,3.4c0.5,0.5,1.6,0.7,3.3,0.9v1.2
		h-16.1v-1.2c1.8-0.2,2.9-0.5,3.3-0.8c0.6-0.6,0.8-1.7,0.8-3.5v-21c0-1.9-0.3-3.1-1-3.7c-0.6-0.5-1.6-0.7-3.1-0.7v-1.2h15.3H915.6
		L915.6,245.3z M957.7,254.8h-1.4c-0.6-2.1-1.5-4-2.8-5.6c-1.8-2.1-4-3.1-6.5-3.1c-1.4,0-2.6,0.4-3.6,1.1c-1,0.8-1.5,1.9-1.5,3.4
		c0,1.2,0.3,2.2,0.9,3c0.6,0.7,2,1.7,4,2.6l6.9,3.5c1.2,0.6,2.3,1.5,3.2,2.7c1.3,1.8,2,3.8,2,6c0,2.6-0.9,4.7-2.7,6.6
		c-2.1,2.3-5.2,3.4-9.1,3.4c-1.5,0-2.9-0.2-4.2-0.6c-1.3-0.3-2.6-0.6-3.9-1.1c-0.5,0-0.8,0.2-1,0.5c-0.2,0.4-0.3,0.7-0.5,1.2h-1.4
		v-11.7h1.4c0.6,2.9,1.6,5.2,3,6.9c1.8,2.1,4,3.2,6.7,3.2c1.9,0,3.4-0.5,4.4-1.5c1-1,1.6-2.3,1.6-3.9c0-1.4-0.6-2.6-1.5-3.5
		c-0.7-0.6-1.9-1.3-3.9-2.2L945,264c-3.5-1.7-5.9-3.6-7.1-5.6c-0.6-1.3-1-2.8-1-4.5c0-3,1-5.4,3.1-7.1c1.8-1.5,4.2-2.2,7.3-2.2
		c1.5,0,3,0.3,4.7,0.7c1.7,0.6,2.5,0.8,2.7,0.8c0.6,0,1-0.3,1.3-0.7c0.1-0.2,0.2-0.5,0.3-0.8h1.5V254.8L957.7,254.8z M981,276.1v1.2
		h-16.5v-1.2c1.9-0.2,3.2-0.5,3.7-0.9c0.5-0.6,0.6-1.3,0.6-2.4v-23c0-1.4-0.4-2.3-1.3-2.8c-0.6-0.4-1.7-0.6-3-0.6v-1.2H981v1.2
		c-1.4,0-2.4,0.2-3.1,0.5c-0.9,0.5-1.4,1.5-1.4,2.9v23c0,1.4,0.4,2.3,1.3,2.8C978.5,276,979.5,276.1,981,276.1L981,276.1z
		 M1008.6,276.1v1.2h-16.9v-1.2c1.9,0,3-0.2,3.6-0.6c0.6-0.6,1-1.8,1-3.7v-24.9c-2.4,0-4.2,0.4-5.4,1.1c-2.1,1.2-3.3,3.5-3.7,6.8
		h-1.4l0.1-9.5h28.5l0.1,9.5h-1.3c-0.5-3.3-1.7-5.5-3.7-6.8c-1.3-0.7-3.1-1.1-5.4-1.1v24.9c0,1.9,0.4,3.1,1,3.7
		C1005.6,276,1006.8,276.1,1008.6,276.1L1008.6,276.1z M915.6,267.2l6.7,10.2h9.7v-1.2c-0.4,0-0.7,0-1-0.1c-0.4-0.2-0.6-0.4-0.9-0.7
		l-9.5-13.6c2.1-0.7,3.7-1.4,4.7-2.1c1.8-1.5,2.7-3.4,2.7-6c0-2.7-1.1-4.7-3.4-6.2c-2-1.3-5.1-2-9-2.1v1.8c1.2,0.2,2.2,0.6,2.9,1.5
		c1,1.1,1.5,2.9,1.5,5.2c0,3-0.7,5-2.1,6c-0.5,0.4-1.3,0.7-2.2,0.9V267.2L915.6,267.2z M1051.5,245.3v1.2c-0.9,0.2-1.7,0.4-2,0.7
		c-0.5,0.2-0.8,0.6-1.2,1.2l-9.1,14.8v8.7c0,1.8,0.3,3,0.9,3.5c0.5,0.4,1.6,0.6,3.4,0.8v1.2h-16.4v-1.2c1.8-0.2,3-0.5,3.4-0.7
		c0.6-0.6,1-1.8,1-3.6v-6.9l-8.7-15.8c-0.3-0.5-0.5-0.8-0.6-1c-0.8-1-1.9-1.6-3.1-1.6v-1.2h15.9v1.2c-1.7,0-2.7,0.1-3.1,0.3
		c-0.5,0.2-0.7,0.6-0.7,1.3c0,0.3,0.2,0.7,0.5,1.4c0.4,0.6,0.6,1,0.6,1.3l5.7,11l5.3-8.8c0.4-0.6,0.7-1.2,1-1.8
		c0.6-1.2,0.8-2,0.8-2.5c0-0.8-0.4-1.4-1-1.7c-0.7-0.4-1.7-0.5-3-0.5v-1.2H1051.5z"/>
	<path class="st0" d="M232.3,66.6c0.3,0.3,0.6,0.4,1.1,0.3c1.5-0.2,2.4-3.3,4.1-2.2c1,0.8,1,2.5,1.1,3.4c0,1.2-0.8,1.8-3.9,2.4
		c-0.2,0.1-0.3,0-0.8,0.5c-0.4,0.7,0.8,1.4-0.4,2.5c-0.6,0.5,1.9,2.6,2.1,2.9c0.2,0.4,0.8,0.1,0.7-0.6c-0.1-0.2-0.2-0.9-0.4-1.5
		c-0.4-1.1-0.9-2.2-0.6-2.6c0.3-0.6,1.3,0,2.5,0.8c0.9,0.6,2.6,0.6,3.1,1.4c0.6,0.8,1.1,1.1,0.4,4.3c-0.2,0.5-1.1,0.9-2,1.1
		c-1.4,0.5-2.2,1.3-3.6,1.8c-0.8,0.3-2.7,1.1-3.2,1.6c-0.1,0.1-0.1,0.3,0,0.4h0.1c2.8,1.3,3.4,2,3.9,4.2c0.4,1.8,1,3.2-0.5,4.2
		c-1.3,0.5-2.4,0.2-3.4-0.4c-1.2-0.9-2.5-2.2-4.1-3c-0.3-0.2-0.6-0.3-1.1-0.4c-0.7,0.1-1.2,1-2.2,0.8c-0.2,0-0.4-0.1-0.5-0.1
		c-0.7-0.4-1.7-0.4-2.5-0.4c-1.3,0-2.4,0.3-2.7,0.7c-0.5,0.6,1,1.5,2.7,2.5c0.5,0.4,1.1,0.7,1.8,1.1c0.4,0.3,0.8,0.4,1.2,0.5
		c0.5,0.2,1,0.3,1.1,0.6c0.5,1.8,0.6,2-0.1,4.1c-0.2,0.6-0.5,0.9-1,1c-1.1,0.2-2.4-0.5-3-1.3c-1.7-2-1.8-2.5-4-3.7
		c-1-0.5-2.7,3.3-4.4,4.3c-1.2,0.7-2.6,1.4-3.8,1.8c-2.7,0.9-5.1,0.4-5.4-0.9c-0.1-0.5-0.1-2.1-0.4-4c-0.2-1.3-1.1-2.8-1.3-4
		c0.1-1.6,5.4,4,6.7,3.3c1.4-0.5,2.1-1.6,2.9-2.9c0.4-0.4-0.4-0.7-1.4-1.6c-1.6-1.6-6-2.4-6.8-4c-0.7-1.5-0.6-1.8-0.7-2.6
		c-0.3-1.4-0.1-2.5,2.1-1.6c2,0.9,4.1,2.9,6.1,4c0.7,0.4,1.5,1.2,2,1.1c0.9-0.2,0.4-1.5,0.8-1.9c0.8-0.7,3.1,0.6,3.7,0.2
		c0.7-0.4,0.8,0.2,1.5-0.5c0.6-0.6-1.6-1.1-2.5-1.4c-1.4-0.5-2-1.3-4-1c-0.6,0.1-2.7-0.7-3.2-2.6c-0.2-0.9,0-1.6,1.7-1.3
		c0.7,0,2.7,0.3,3.4,0.4c1.5,0.4,3.9,1.5,6.9,3.1l0.5,0.3c0.8,0.4,1.6,0.9,2.5,1.4c1.2,0.8,2.5,1.6,3.3,2.1c0.3,0.1,0.4,0.3,0.6,0.3
		c0.5,0.4,1.2,0,1.1-0.5c0-0.2-0.7-0.6-1.7-1.3c-0.9-0.6-2-1.4-3.3-2.2l-0.2-0.1c-1-0.6-1.9-1.2-2.8-1.8c-0.5-0.4-1.1-0.6-1.6-0.9
		c-0.4-0.2-1-0.5-1.7-0.6c-0.5-0.1-1.2,0.3-1.8,0c-0.8-0.4-1.4-0.9-1.8-1.1c-0.5-0.3-0.9-0.4-1.6-0.8c-0.7-0.4-2.1-1.1-3.5-1.1
		c-1.3,0.1-2.9,2-4,2.5c-1,0.4-1.8,0.9-2.6,1.2c-1,0.4-1.8,0.8-2.7,0.4c-1.4-0.6-1.1-3.2-0.3-3.9c1.2-1,2.3-1.8,3.3-2.8
		c0.6-0.7,1-1.7,1.5-2.2c0.5-0.5,1.1-0.5,1.7-0.6c0.6-0.2,1.3-0.4,1.8,0.2c0.4,0.4,0.4,1.1,0.9,1.5c0.6,0.6,1.1,0.6,2,0.5
		c0.7,0,4.9-5.6,6-7.6c0.3-1.1,1.1-2.4,1.7-2.9c0.9-0.7,1.5-0.5,1.8,0.1c0.4,0.8,0.4,2.3-0.1,4.4c-0.3,1.4-0.7,0.8-1,1.2
		c-1.5,1.8-3.2,3.6-4.1,4.9c-0.6,0.7,0.4,1.6,0.9,1.3c1.8-2.1,3.7-4.9,5.3-6.9c0.6-0.9,1.2-1.7,1.8-2.2c0.4-0.5,0.9-1.2,1.2-1.8
		c0.4-0.7,0.7-1.2,1.1-1.2c0.8,0,1.7,1,2.1,1.7c0.1,0.1,0.2,0.2,0.2,0.3c0.3,0.6,0.9-0.2,1.3,0c0.9,0.3,1.7,1,1.8,1.6
		C231.6,65.5,231.9,66.3,232.3,66.6L232.3,66.6z M222,75c0.4,0,0.9-0.1,1.1-0.3c1.1-1.1,1.7-1.9,0.4-2.4c-0.1,0.1-0.7-0.5-1.4,0.1
		l-0.1,0.1c-1.1,1.1-1.7,0.6-2.2,1.9C219.8,74.7,221,75,222,75L222,75z M225,78.5L225,78.5c0.7-0.2,0.8-0.3,0.5-0.7
		c-0.1,0,0-0.4-0.4-0.4l-0.1,0.1c-0.4,0.1-0.4,0-0.7,0.3C224.2,78,224.6,78.4,225,78.5L225,78.5z M225,69.5c0.7,0.2,2.1,0,2.7-0.6
		c0.3-0.2,0.4-0.4,0.5-0.6c0.6-0.9,0.7-1.7,0-2.2c-0.1-0.1-0.3-0.2-0.4-0.2c-0.3,0-0.3,0.3-0.4,0.4c-0.9,0.9-1.7,1.6-2.4,2.5
		c-0.2,0.2-0.3,0.3-0.4,0.5C224.6,69.3,224.7,69.4,225,69.5L225,69.5z M228.2,79.5c0.2,0.1,0.3,0.2,0.4,0.2c0.3-0.1,0.7,0,0.7-0.4
		c-0.1-0.3-0.1-0.4-0.5-0.6c-0.3-0.2-0.4-0.2-0.6,0c-0.1,0-0.2,0.1-0.4,0.3C227.9,78.9,228,79.3,228.2,79.5L228.2,79.5z M228.2,73.4
		c0.3,0,0.4-0.1,0.4-0.2c0.5-0.4,0.7-0.6,0.2-0.9c-0.1,0.1-0.2-0.1-0.6,0.1c-0.5,0.3-0.6,0.3-0.9,0.8
		C227.4,73.3,227.9,73.4,228.2,73.4L228.2,73.4z M232.3,77.3c0.3,0.2,0.5,0.3,0.8,0.3c0.3-0.1,0.6-0.5,0.5-0.8
		c-0.4-0.5-0.9-1.1-1.3-1.4c-0.2-0.1-0.3-0.2-0.4-0.3c-0.5-0.3-0.7,0.4-0.9,0.7c-0.1,0.3,0.2,0.7,0.6,0.9
		C232,76.9,232.2,77.1,232.3,77.3z"/>
	<path class="st0" d="M169.9,41.2c1.9,0.6,3.3,0.7,3.3,0.4c0.5-1.6,1.2-4.4,1.3-6.7c0.1-1.1,1.1-1.6,1.8-1.8c1.7-0.5,2.2-0.8,3-0.5
		c1.4,0.6,2.2,1.8,2.9,3.4c0.3,0.8,1-0.1-0.6,3.3c-0.7,1.7-0.5,1.9-0.3,2.3c0.7,0.5,1.6,0.4,3,0.4c1.7-0.1,2.7-2.3,4.8,2.1
		c0.3,0.5,0.4,1.2-0.3,1.8c-0.9,0.7-2.5,0.8-4.6,1.3c-2.6,0.6-6.4-0.1-6.3,1.7c0.5,4.4,3.3,11.1,7.9,16.4c1.1,1.4,2.7,2.7,4.6,3.8
		c2.6,1.5,4.8,2.7,3.3,3.1c-2.5,0.5-10.8-0.3-12.7-2c-2-1.9-6.2-14.8-6.8-17.3c-0.1-0.1-0.3-0.2-0.4,0.1c-2,2.5-6.2,7.2-9.6,8.7
		c-1.5,0.6-3.2-0.4-3.6-1c-0.5-0.6-4.4-2.6-4.7-4c-0.1-0.9,0.4-0.8,0.9-0.7c5.4,1.1,6.6-0.3,8.1-0.9c4-1.7,5.6-6,5.3-6.2
		c-5.1-0.9-6.9-0.7-8-2.9c-1.5-7,1.2-7.3,4-6.2C167.6,40.4,169.4,41.1,169.9,41.2z"/>
	<path class="st0" d="M109.8,55.3c0.7-0.1,1.3,0,2.2,0.7c2.4,1.6,3.1,4.7,4.2,6.2c0.4,0,1.2-0.5,2.2-1.1c1.2-0.9,2.6-1.8,2.4-2.1
		c-1-1.8-6.2-14.1-7.2-15.6c-0.1-0.2-0.4-0.6-0.5-0.8c-1.9-2.6,0.4-4.6,1.2-4.8c1.4-0.4,5.4,0.9,5.4,2.3c-0.2,1.5,1.3,5,2.7,8.4
		c1.3,2.8,2.5,5.6,3.1,6.6c0.4,0.9,3.4-1.8,4.4-2.8c1.3-0.9-1.1-5.4-0.2-6.9c0.4-0.7,4.1-1.7,6,1.1c0.9,1.6,1.3,3.9,1.8,6
		c0.3,1.5,0.9,3.3,1.1,4c0.3,0.7-1.2,4.7-1.8,5.7c-1.2,1-3.3-2.2-4-4c-0.4-1-0.5-1.3-0.9-1.4c-0.9,0.3-2.9,1.7-3.9,2.9
		c-0.5,0.6-0.4,1.8-1.1,2.4c-3.7,1.5-7.1,3.9-7.4,4.7c-0.2,0.4-1.3,2.7-1.4,3.3c-0.1,0.5-1.6,0.7-1.9,1c-0.8,0.8-2-0.6-3.7-1.6
		c-1.8-0.9-1.3-2-1.4-3.9c0-2-1.1-5.2-2.2-7.2C108.3,57,107.7,55.8,109.8,55.3z"/>
	<path class="st0" d="M79,57.3c1.6-1,4.6-0.9,6-0.3c1.3,0.7,1.5,2.2,1.1,3.3l-0.4,0.8c-0.4,1.1,0.1,3.9,0.4,4.1
		c0.4,0.5,0.8,0.9,1.7,0.7c0.7,0.1,1.9,2.7,1.4,4c-0.2,0.4-0.3,0.9-0.9,1.6c-1.5,1.4-2.4,3.7-2.8,6c4.6,4.6,8.5,9.1,12.9,13.7
		c2.1,2.6,3.5,5.6,2.5,6.9c-0.9,0.8-3.7-0.2-6.8-3.1l-12.7-12c-0.6,1-1.2,2.5-2,4.4V89c0.1,0.5,0.4,1.1,0.2,1.6
		c-0.2,0.3-0.4,0.5-0.6,0.8c-0.5,0.5-1.2,1-1.9,1.1c-0.8,0.1-1.7-0.6-3.1-1c-0.3-0.1-0.5-0.2-0.9-0.3c-1.3-0.1-2.5-0.1-3.5-1.1
		c-0.6-1.3-1-1.9-1.2-2.8c-0.2-0.4-0.4-0.7-0.8-1.1c-1.1-1.1-1.8-2.2-2.5-3.7c-0.3-0.9,0.3-3.3,2.4-3.6c0.7-0.4,0.8-1.1,1-2.1
		c0.8-2.8,0.9-3.9,1.8-5.7c-1.4-1.3-3-2.6-4.3-3.9c-0.3-0.3-0.6-0.4-0.9-0.5c-0.9-0.3-1.4-1.2-1.4-2.4v-0.4c0-0.9,0.3-1.8,0.9-2.8
		c0.3-0.5,3.7-1.8,4.7-0.8c1.4,1.4,2.9,3.3,4.4,4.3c0.1-0.1,0.3-0.3,0.4-0.3c0.7-0.6,1.6-1.5,2.5-2.5c0.8-1.1,1.2-3.2,2-4.1
		C78.6,57.5,78.8,57.4,79,57.3L79,57.3z M73.9,81.7c0.4,0.3,0.9,0.4,1.1,0.2c1.3-1.1,1.5-1.3,1.8-2.7c0.2-0.5-1.8-2.5-2.9-3.3
		c-0.2-0.2-0.4-0.3-0.4-0.4c-0.5,0-0.4,0.7-0.4,1c-0.3,1.3-1.1,2.3-1.9,2.8C70.6,79.5,72.6,81.1,73.9,81.7L73.9,81.7z M79,70.7
		c0.6,0.6,1.2,1.1,1.4,1c1.1-0.8,1.1-2.9,0.9-3.7c-0.3-1.1-0.8-2.8-2-3.3c-0.1,0.1-0.2,0.1-0.3,0.1c-1.1,0.4-2.1,2.2-2.4,3
		C76.7,68.2,77.9,69.7,79,70.7z"/>
	<path class="st0" d="M150.7,284.5c-73.9,0-133.8-59.9-133.8-133.8c0-73.9,59.9-133.8,133.8-133.8c73.9,0,133.8,59.9,133.8,133.8
		C284.5,224.6,224.6,284.5,150.7,284.5L150.7,284.5z M150.7,14C75.2,14,14,75.2,14,150.7c0,75.5,61.2,136.7,136.7,136.7
		c75.5,0,136.7-61.2,136.7-136.7C287.4,75.2,226.2,14,150.7,14L150.7,14z M150.7,291.5c77.7,0,140.8-63,140.8-140.8
		c0-77.7-63-140.8-140.8-140.8C73,9.9,9.9,73,9.9,150.7C9.9,228.5,73,291.5,150.7,291.5L150.7,291.5z M150.7,0
		C67.5,0,0,67.5,0,150.7c0,83.2,67.5,150.7,150.7,150.7c83.2,0,150.7-67.5,150.7-150.7C301.4,67.5,233.9,0,150.7,0z"/>
	<path class="st0" d="M59.3,128.7l-7.5-1.9L52,126c1.9,0.2,3.7-0.1,5.2-1.1c1.5-0.9,2.4-2.1,2.8-3.5c0.3-1.1,0.3-2.1-0.1-2.9
		c-0.4-0.8-1-1.3-1.8-1.6c-0.5-0.1-1-0.2-1.4,0c-0.6,0.2-1.3,0.5-2,1.1c-0.5,0.4-1.5,1.4-2.9,3c-2,2.2-3.7,3.6-5.1,4.2
		c-1.4,0.6-2.8,0.7-4.3,0.2c-1.9-0.5-3.3-1.7-4.2-3.5c-0.9-1.8-1.1-3.9-0.4-6.1c0.2-0.7,0.5-1.3,0.8-1.9c0.3-0.6,0.8-1.3,1.5-2.1
		c0.4-0.5,0.6-0.9,0.7-1.2c0.1-0.3,0.1-0.6-0.1-1c-0.1-0.4-0.4-0.7-0.8-1.1l0.2-0.6l8.4,2.4l-0.2,0.6c-2.5-0.2-4.6,0.2-6.2,1.2
		c-1.6,1-2.7,2.3-3.1,3.9c-0.3,1.2-0.3,2.3,0.2,3.2c0.5,0.9,1.1,1.5,2,1.8c0.5,0.1,1.1,0.2,1.6,0c0.6-0.1,1.2-0.4,1.8-0.9
		c0.6-0.4,1.5-1.3,2.6-2.5c1.6-1.7,2.8-3,3.8-3.6c1-0.7,1.9-1.1,2.9-1.4c1-0.2,2-0.2,3.1,0.1c1.8,0.5,3.1,1.6,4,3.2
		c0.9,1.7,1,3.5,0.5,5.5c-0.2,0.7-0.5,1.4-0.9,2c-0.3,0.5-0.7,1-1.3,1.7c-0.6,0.6-0.9,1.1-1,1.4c-0.1,0.3-0.1,0.5,0.1,0.7
		c0.1,0.2,0.5,0.5,1.1,0.8L59.3,128.7z"/>
	<path class="st0" d="M58.3,129.2L56.6,141l-0.6-0.1l0.1-0.6c0.1-0.9,0.1-1.5,0-1.9c-0.1-0.4-0.4-0.6-0.7-0.8
		c-0.3-0.2-1.1-0.4-2.4-0.5l-11.2-1.5c-2.1-0.3-3.4-0.3-4.1-0.1c-0.7,0.2-1.3,0.7-1.9,1.3c-0.5,0.7-0.9,1.5-1,2.6
		c-0.2,1.2,0,2.3,0.4,3.3c0.4,1,1.1,1.7,2,2.3c0.9,0.6,2.6,1,5,1.4l9.4,1.3c1,0.1,1.8,0.1,2.2,0c0.5-0.2,0.8-0.4,1-0.7
		c0.3-0.5,0.6-1.2,0.7-2.1l0.6,0.1l-1.1,7.9l-0.6-0.1l0.1-0.5c0.1-0.6,0-1.2-0.2-1.7c-0.2-0.5-0.5-0.8-1-1.1c-0.3-0.2-1-0.4-1.9-0.5
		l-8.7-1.2c-2.7-0.4-4.6-0.8-5.8-1.3c-1.1-0.5-2.1-1.5-2.9-3c-0.8-1.5-1.1-3.5-0.7-5.8c0.3-2,0.7-3.5,1.4-4.5c0.9-1.4,2-2.3,3.2-2.8
		c1.2-0.5,2.8-0.6,4.7-0.3l11.2,1.5c1.3,0.2,2.2,0.2,2.5,0.1c0.3-0.1,0.6-0.3,0.9-0.7c0.2-0.3,0.4-1,0.5-2L58.3,129.2z"/>
	<path class="st0" d="M55.5,157.2l-13.8,12.1l9.9-0.5c1.4-0.1,2.3-0.3,2.8-0.7c0.6-0.6,0.9-1.5,0.8-2.8l0.6,0l0.4,7.6l-0.6,0
		c-0.2-1-0.4-1.6-0.6-1.9c-0.2-0.3-0.6-0.6-1-0.7c-0.5-0.2-1.2-0.2-2.3-0.2l-19.3,1l0-0.6L51,153.9l-14.7,0.7
		c-1.3,0.1-2.2,0.4-2.6,1c-0.4,0.6-0.6,1.3-0.6,2.1l0,0.5l-0.6,0l-0.4-8.2l0.6,0c0.1,1.3,0.4,2.1,0.9,2.6c0.5,0.5,1.4,0.7,2.6,0.6
		l16.3-0.8l0.6-0.5c0.6-0.5,1-1,1.1-1.4c0.2-0.4,0.3-0.9,0.2-1.6l0.6,0L55.5,157.2z"/>
	<path class="st0" d="M66.4,201.1l-0.6,0.2c-0.4-0.7-0.8-1.1-1.3-1.4c-0.7-0.4-2.2-0.7-4.6-1.1l-9.6-1.6l-5.2,2.1
		c-1.1,0.4-1.8,0.8-2,1c-0.2,0.2-0.4,0.5-0.4,1c-0.1,0.4,0,0.9,0.2,1.5l0.5,1.2l-0.6,0.2l-4.8-12.1l0.6-0.2l0.4,1.1
		c0.3,0.6,0.6,1.1,0.9,1.4c0.3,0.2,0.6,0.3,1,0.3c0.3,0,1-0.2,2.1-0.6l4.3-1.7l7.2-8.7c1.4-1.7,2.2-2.9,2.4-3.4
		c0.2-0.5,0.1-1.2-0.2-1.9l0.6-0.2l4.1,10.3l-0.6,0.2l-0.2-0.5c-0.2-0.6-0.5-1-0.8-1.2c-0.3-0.2-0.5-0.2-0.7-0.1
		c-0.4,0.2-1.2,1-2.4,2.4l-5.6,6.7l8,1.3c2,0.3,3.2,0.4,3.7,0.2c0.3-0.1,0.5-0.3,0.6-0.7c0.1-0.5,0-1.2-0.3-2.2l0.6-0.2L66.4,201.1z
		"/>
	<path class="st0" d="M57.4,214.1l4.8-7.2l-8.6,1.4L57.4,214.1L57.4,214.1z M56.7,215.3l-4.4-6.9l-2.4,0.4c-0.8,0.1-1.4,0.3-1.8,0.6
		c-0.5,0.4-0.8,0.8-0.8,1.4c0,0.4,0.3,1.1,0.9,2.1l-0.5,0.3l-4.2-6.5l0.5-0.3c0.6,0.6,1.2,1,2,1.2c0.8,0.1,2.1,0.1,4-0.2l20-3.1
		l0.2,0.3L58.7,222c-1.1,1.6-1.7,2.8-1.8,3.5c-0.1,0.5,0,1.1,0.4,1.7l-0.5,0.3l-6.1-9.4l0.5-0.3l0.2,0.4c0.5,0.8,0.9,1.2,1.3,1.4
		c0.3,0.1,0.6,0.1,0.9-0.1c0.2-0.1,0.3-0.3,0.5-0.4c0.1-0.1,0.3-0.4,0.8-1.1L56.7,215.3z"/>
	<path class="st0" d="M87.1,225.3l-4.5,4.3l-0.4-0.4c0.8-1.3,1.3-2.3,1.4-3c0.2-0.8,0.1-1.5-0.2-2.4c-0.1-0.5-0.6-1.1-1.3-1.9
		l-1.2-1.3L67.9,233c-0.9,0.8-1.3,1.4-1.5,1.7c-0.1,0.3-0.1,0.7,0,1.1c0.1,0.4,0.4,0.9,0.8,1.4l0.5,0.6l-0.5,0.4l-8.4-8.8l0.5-0.4
		l0.5,0.6c0.5,0.5,0.9,0.8,1.4,0.9c0.3,0.1,0.7,0.1,1.1-0.1c0.3-0.1,0.8-0.5,1.7-1.3L77,216.6l-1.2-1.2c-1.1-1.1-2.1-1.7-3.1-1.8
		c-1.3-0.1-2.7,0.4-4.2,1.4l-0.4-0.5l4.5-4.3L87.1,225.3z"/>
	
		<rect x="81.4" y="233.4" transform="matrix(0.6126 -0.7904 0.7904 0.6126 -155.6444 157.5789)" class="st0" width="3" height="8.4"/>
	<path class="st0" d="M106.3,237.1l-3.9,6.7l-0.6-0.4c0.7-1.8,0.8-3.6,0.3-5.3c-0.5-1.7-1.4-2.9-2.7-3.7c-1-0.6-1.9-0.8-2.8-0.6
		c-0.9,0.2-1.6,0.6-2,1.3c-0.3,0.4-0.4,0.9-0.4,1.4c0,0.6,0.2,1.4,0.5,2.2c0.3,0.6,1,1.8,2.1,3.6c1.6,2.5,2.5,4.6,2.7,6.1
		c0.2,1.5-0.1,2.9-0.9,4.2c-1,1.7-2.5,2.7-4.5,3.1c-2,0.4-4,0-6-1.2c-0.6-0.4-1.2-0.8-1.7-1.3c-0.5-0.5-1-1.1-1.7-2
		c-0.4-0.5-0.7-0.8-1-1c-0.3-0.2-0.6-0.2-1-0.2c-0.4,0-0.8,0.2-1.2,0.5l-0.5-0.3l4.5-7.5l0.5,0.3c-0.9,2.4-1,4.5-0.5,6.3
		c0.5,1.8,1.5,3.2,2.9,4.1c1.1,0.7,2.1,0.9,3.1,0.7c1-0.2,1.8-0.7,2.2-1.5c0.3-0.5,0.4-1,0.5-1.6c0-0.6-0.1-1.2-0.4-1.9
		c-0.3-0.7-0.9-1.8-1.8-3.2c-1.3-2-2.1-3.5-2.5-4.6c-0.4-1.1-0.6-2.2-0.5-3.2c0-1,0.3-2,0.9-2.9c1-1.6,2.4-2.6,4.2-3
		c1.8-0.4,3.6-0.1,5.4,1c0.6,0.4,1.2,0.8,1.7,1.4c0.4,0.4,0.8,0.9,1.3,1.7c0.5,0.7,0.8,1.2,1.1,1.3c0.3,0.2,0.5,0.2,0.7,0.1
		c0.2-0.1,0.6-0.4,1.1-0.9L106.3,237.1z"/>
	<path class="st0" d="M113.5,242.4l-3.5,8.8l0.4,0.2c1.4,0.5,2.5,0.5,3.5-0.1c1-0.6,1.8-1.7,2.7-3.3l0.6,0.2l-4.5,11.3l-0.6-0.2
		c0.4-1.3,0.5-2.4,0.4-3.3c-0.1-0.9-0.4-1.7-0.8-2.1c-0.4-0.5-1.2-0.9-2.2-1.3l-2.4,6.1c-0.5,1.2-0.7,1.9-0.7,2.2
		c0,0.3,0.1,0.6,0.3,0.9c0.2,0.3,0.6,0.5,1.2,0.8l1.3,0.5c2,0.8,3.8,1,5.4,0.5c1.6-0.4,3-1.5,4.3-3.2l0.6,0.2l-3.7,6.5l-18.6-7.4
		l0.2-0.6l0.7,0.3c0.6,0.2,1.2,0.3,1.6,0.3c0.3,0,0.6-0.2,0.9-0.5c0.2-0.2,0.5-0.8,1-1.9l5.6-14.2c0.4-1,0.6-1.6,0.6-1.8
		c0-0.4,0-0.8-0.2-1.1c-0.3-0.5-0.8-0.8-1.5-1.1l-0.7-0.3l0.2-0.6l18,7.2l-2.5,6.4l-0.6-0.2c0.3-1.7,0.3-3,0-3.9
		c-0.3-0.9-0.9-1.7-1.8-2.4c-0.5-0.4-1.6-1-3.2-1.6L113.5,242.4z"/>
	<path class="st0" d="M131.7,246.9l8.7,16.2l1.8-9.8c0.2-1.4,0.2-2.3-0.1-2.9c-0.4-0.7-1.3-1.2-2.5-1.4l0.1-0.6l7.5,1.4l-0.1,0.6
		c-1-0.1-1.7,0-2,0.1c-0.4,0.1-0.7,0.4-1,0.8c-0.3,0.4-0.5,1.2-0.7,2.2l-3.5,19l-0.6-0.1l-12-21.8l-2.6,14.5
		c-0.2,1.3-0.1,2.3,0.4,2.8c0.5,0.6,1.2,0.9,1.9,1.1l0.5,0.1l-0.1,0.6l-8.1-1.5l0.1-0.6c1.3,0.2,2.2,0.1,2.8-0.3
		c0.6-0.4,1-1.2,1.2-2.4l2.9-16.1l-0.4-0.7c-0.4-0.7-0.7-1.2-1.1-1.4c-0.3-0.3-0.8-0.5-1.5-0.6l0.1-0.6L131.7,246.9z"/>
	<path class="st0" d="M153.8,249.7l11.8-1.7l0.1,0.6l-0.6,0.1c-0.9,0.1-1.5,0.3-1.8,0.5c-0.3,0.2-0.5,0.5-0.6,0.9
		c-0.1,0.3,0,1.2,0.2,2.5l1.6,11.2c0.3,2,0.7,3.4,1.1,4c0.4,0.6,1,1.1,1.8,1.4c0.8,0.3,1.7,0.4,2.8,0.3c1.2-0.2,2.3-0.6,3-1.3
		c0.8-0.7,1.3-1.5,1.6-2.6c0.3-1,0.3-2.8-0.1-5.2l-1.4-9.3c-0.1-1-0.4-1.7-0.6-2.1c-0.3-0.4-0.6-0.7-0.9-0.8
		c-0.5-0.2-1.3-0.2-2.2-0.1l-0.1-0.6l7.9-1.2l0.1,0.6l-0.5,0.1c-0.6,0.1-1.2,0.3-1.5,0.6c-0.4,0.3-0.6,0.8-0.8,1.3
		c-0.1,0.4-0.1,1,0.1,2l1.3,8.7c0.4,2.7,0.5,4.7,0.3,5.9c-0.2,1.2-0.9,2.5-2.1,3.7c-1.2,1.2-3,2-5.4,2.3c-2,0.3-3.6,0.3-4.7-0.1
		c-1.6-0.5-2.8-1.3-3.5-2.3c-0.8-1-1.3-2.5-1.6-4.4l-1.7-11.2c-0.2-1.3-0.4-2.1-0.6-2.4c-0.2-0.3-0.5-0.5-0.9-0.7
		c-0.4-0.1-1.1-0.1-2,0L153.8,249.7z"/>
	<path class="st0" d="M183,243.9l15.7,9.6l-3.4-9.4c-0.5-1.3-1-2.1-1.5-2.4c-0.7-0.4-1.7-0.4-2.9,0l-0.2-0.6l7.2-2.6l0.2,0.6
		c-0.9,0.5-1.4,0.8-1.7,1.1c-0.2,0.3-0.4,0.7-0.4,1.2c0,0.5,0.2,1.2,0.5,2.3l6.6,18.1l-0.5,0.2l-21.3-12.8l5,13.8
		c0.5,1.3,1.1,2,1.8,2.2c0.7,0.2,1.5,0.2,2.2-0.1l0.5-0.2l0.2,0.6l-7.7,2.8l-0.2-0.6c1.2-0.4,1.9-1,2.2-1.6c0.3-0.7,0.2-1.6-0.2-2.7
		l-5.6-15.4l-0.7-0.4c-0.7-0.4-1.2-0.6-1.6-0.7c-0.4-0.1-1,0-1.6,0.3l-0.2-0.6L183,243.9z"/>
	<path class="st0" d="M219.2,251.8l0.3,0.5l-10.5,6l-0.3-0.6l0.7-0.4c0.6-0.3,1-0.7,1.2-1.1c0.2-0.3,0.2-0.6,0.2-1
		c0-0.3-0.3-1-0.9-2l-7.5-13.2c-0.6-1-1-1.6-1.3-1.8c-0.3-0.2-0.6-0.3-1-0.3c-0.4,0-0.9,0.2-1.5,0.5l-0.7,0.4l-0.3-0.5l10.5-6
		l0.3,0.5l-0.7,0.4c-0.6,0.3-1,0.7-1.2,1.1c-0.2,0.3-0.2,0.6-0.2,1.1c0,0.3,0.3,1,0.9,2l7.5,13.2c0.6,1,1,1.6,1.3,1.8
		c0.3,0.2,0.6,0.3,1.1,0.3c0.4,0,0.9-0.2,1.5-0.5L219.2,251.8z"/>
	<path class="st0" d="M226.1,217.8l0.4,0.5c-0.6,0.6-0.9,1.5-0.9,2.5c0,0.7,0.3,2.2,0.9,4.5l5.2,18.7l-0.4,0.4l-17.9-9.1
		c-2.2-1.1-3.5-1.7-4-1.8c-0.5-0.1-1.1,0.1-1.9,0.6l-0.4-0.5l8.5-7.1l0.4,0.5l-0.3,0.2c-0.8,0.6-1.2,1.2-1.3,1.6
		c-0.1,0.3,0,0.6,0.2,0.8c0.1,0.2,0.3,0.3,0.6,0.5c0.2,0.2,1,0.5,2.1,1.1l11.2,5.7l-3-10.8c-0.4-1.3-0.6-2.2-0.8-2.6
		c-0.2-0.4-0.4-0.7-0.5-0.9c-0.2-0.3-0.5-0.4-0.8-0.5c-0.3-0.1-0.6-0.1-1,0.1c-0.5,0.2-1.1,0.5-1.7,1l-0.4-0.5L226.1,217.8z"/>
	<path class="st0" d="M230.7,213.2l7.6,5.6l0.3-0.4c0.9-1.2,1.1-2.3,0.8-3.4c-0.3-1.1-1.2-2.2-2.5-3.4l0.4-0.5l9.7,7.2l-0.4,0.5
		c-1.1-0.7-2.2-1.1-3.1-1.2c-0.9-0.2-1.7-0.1-2.3,0.2c-0.6,0.3-1.2,0.9-1.9,1.8l5.2,3.9c1,0.8,1.7,1.2,2,1.3
		c0.3,0.1,0.6,0.1,0.9-0.1c0.3-0.1,0.7-0.5,1.1-1l0.8-1.1c1.3-1.7,1.9-3.4,1.9-5.1c0-1.6-0.7-3.3-2-5l0.4-0.5l5.3,5.2l-11.9,16.1
		l-0.5-0.4l0.5-0.6c0.4-0.5,0.6-1,0.7-1.5c0-0.3,0-0.7-0.2-1c-0.1-0.3-0.7-0.7-1.6-1.4l-12.2-9.1c-0.8-0.6-1.4-1-1.6-1.1
		c-0.4-0.1-0.8-0.2-1.1,0c-0.5,0.2-1,0.5-1.4,1.1l-0.5,0.6l-0.5-0.4l11.5-15.6l5.5,4.1l-0.4,0.5c-1.5-0.7-2.8-1.1-3.7-1
		c-0.9,0-1.9,0.4-2.8,1.1c-0.5,0.4-1.3,1.3-2.4,2.7L230.7,213.2z"/>
	<path class="st0" d="M240.9,196.1l9.4,3.7l0.4-0.9c0.6-1.5,0.9-2.6,0.9-3.5c0-0.8-0.2-1.6-0.8-2.3c-0.5-0.7-1.4-1.3-2.5-1.7
		c-1.6-0.6-3-0.7-4.1-0.3c-1.1,0.5-2,1.5-2.6,3.2L240.9,196.1L240.9,196.1z M251.5,200.3l6,2.4c1.2,0.5,1.9,0.7,2.3,0.7
		c0.4,0,0.7-0.2,1-0.5c0.3-0.3,0.7-0.9,1.1-1.9l0.6,0.2l-4.4,11l-0.6-0.2c0.4-1,0.6-1.7,0.5-2.1c0-0.4-0.2-0.8-0.4-1
		c-0.2-0.3-0.9-0.6-2.1-1.1l-14-5.6c-1.2-0.5-1.9-0.7-2.3-0.7c-0.4,0-0.7,0.2-1,0.5c-0.3,0.3-0.7,0.9-1.1,1.9l-0.6-0.2l4-10
		c1-2.6,2-4.4,2.8-5.5c0.8-1.1,1.9-1.8,3.2-2.2c1.3-0.4,2.6-0.3,3.9,0.2c1.6,0.6,2.7,1.7,3.3,3.3c0.4,1,0.5,2.2,0.3,3.6l9.3-2.3
		c1.2-0.3,2-0.6,2.3-0.7c0.5-0.3,0.9-0.7,1.1-1.3l0.6,0.2l-2.7,6.8l-12.6,3L251.5,200.3z"/>
	<path class="st0" d="M246.3,168.5l7.6,1.1l-0.1,0.7c-2,0-3.6,0.6-5,1.6c-1.4,1.1-2.2,2.4-2.4,3.8c-0.2,1.1,0,2.1,0.5,2.9
		c0.5,0.8,1.2,1.2,1.9,1.4c0.5,0.1,1,0,1.4-0.1c0.6-0.2,1.2-0.7,1.8-1.3c0.5-0.5,1.3-1.6,2.6-3.3c1.8-2.5,3.3-4.1,4.6-4.8
		c1.3-0.7,2.7-1,4.2-0.7c1.9,0.3,3.4,1.3,4.6,3.1c1.1,1.7,1.5,3.7,1.1,6c-0.1,0.7-0.3,1.4-0.6,2c-0.3,0.6-0.7,1.4-1.2,2.3
		c-0.3,0.5-0.5,0.9-0.6,1.3c-0.1,0.3,0,0.6,0.2,1c0.2,0.4,0.5,0.7,0.9,1l-0.1,0.6l-8.6-1.4l0.1-0.6c2.5-0.1,4.5-0.7,6-1.9
		c1.5-1.2,2.4-2.6,2.7-4.2c0.2-1.3,0-2.3-0.5-3.2c-0.6-0.9-1.3-1.4-2.2-1.5c-0.5-0.1-1.1,0-1.6,0.2c-0.6,0.2-1.1,0.6-1.7,1.1
		c-0.6,0.5-1.3,1.4-2.3,2.8c-1.4,1.9-2.5,3.3-3.4,4c-0.9,0.8-1.8,1.4-2.8,1.7c-1,0.3-2,0.4-3.1,0.2c-1.8-0.3-3.3-1.2-4.3-2.8
		c-1.1-1.6-1.4-3.3-1.1-5.4c0.1-0.7,0.3-1.4,0.6-2.1c0.2-0.5,0.6-1.1,1.1-1.8c0.5-0.7,0.8-1.2,0.8-1.5c0-0.3,0-0.5-0.2-0.7
		c-0.2-0.2-0.6-0.4-1.2-0.7L246.3,168.5z"/>
	<path class="st0" d="M270.9,155l0.6,0l-0.2,12.1l-0.6,0l0-0.8c0-0.7-0.1-1.2-0.3-1.6c-0.2-0.3-0.4-0.5-0.8-0.7
		c-0.3-0.1-1-0.2-2.1-0.2l-15.2-0.2c-1.2,0-1.9,0-2.2,0.2c-0.3,0.1-0.6,0.4-0.8,0.7c-0.2,0.4-0.3,0.9-0.4,1.5l0,0.8l-0.6,0l0.2-12.1
		l0.6,0l0,0.8c0,0.7,0.1,1.2,0.3,1.6c0.2,0.3,0.4,0.5,0.8,0.7c0.3,0.1,1,0.2,2.1,0.2l15.2,0.2c1.2,0,1.9,0,2.2-0.2
		c0.3-0.1,0.6-0.4,0.8-0.8c0.2-0.4,0.3-0.9,0.4-1.5L270.9,155z"/>
	<path class="st0" d="M247.1,133.4l6.2-0.8l0.1,0.6c-1.4,0.5-2.4,1.1-2.9,1.6c-0.6,0.5-1,1.2-1.3,2c-0.1,0.5-0.1,1.2,0,2.3l0.2,1.7
		l17.7-2.3c1.2-0.2,1.9-0.3,2.2-0.5c0.3-0.2,0.5-0.5,0.7-0.9c0.2-0.4,0.2-0.9,0.1-1.6l-0.1-0.8l0.6-0.1l1.6,12l-0.6,0.1l-0.1-0.8
		c-0.1-0.7-0.3-1.2-0.6-1.6c-0.2-0.3-0.5-0.5-0.9-0.6c-0.3-0.1-1-0.1-2.2,0.1l-17.7,2.3l0.2,1.7c0.2,1.5,0.7,2.6,1.4,3.2
		c1,0.9,2.4,1.3,4.2,1.4l0.1,0.6l-6.2,0.8L247.1,133.4z"/>
	<path class="st0" d="M240.2,109.2l0.6-0.2c0.3,0.7,0.7,1.2,1.1,1.5c0.6,0.4,2.1,0.9,4.5,1.5l9.5,2.5l5.4-1.6
		c1.1-0.3,1.8-0.6,2.1-0.8c0.2-0.2,0.4-0.5,0.5-0.9c0.1-0.4,0.1-0.9-0.1-1.5l-0.4-1.2l0.6-0.2l3.6,12.5l-0.6,0.2l-0.3-1.2
		c-0.2-0.7-0.5-1.1-0.8-1.5c-0.2-0.2-0.6-0.4-1-0.4c-0.3,0-1,0.1-2.1,0.4l-4.5,1.3l-8,8c-1.6,1.6-2.5,2.6-2.7,3.2
		c-0.2,0.5-0.2,1.1,0,1.9l-0.6,0.2l-3.1-10.7l0.6-0.2l0.1,0.5c0.2,0.6,0.4,1.1,0.7,1.3c0.3,0.2,0.5,0.3,0.7,0.2
		c0.4-0.1,1.3-0.8,2.6-2.2l6.2-6.2l-7.9-2c-1.9-0.5-3.2-0.7-3.7-0.5c-0.3,0.1-0.5,0.3-0.6,0.6c-0.2,0.5-0.1,1.2,0.1,2.2l-0.6,0.2
		L240.2,109.2z"/>
	<path class="st0" d="M150.4,207.9h5.8l-0.4-1.5h-2.3l1.8-1.6l-0.6-2.6h-4.3l0,2.2h1.7l-0.1-0.9h1.6l0.1,1l-3.1,1.9L150.4,207.9
		L150.4,207.9z M142.1,202.2h-1.7l-2.6,5.7h2.3L142.1,202.2L142.1,202.2z M159.6,203.7l0.6,1.3H159L159.6,203.7L159.6,203.7z
		 M160.9,206.4l0.7,1.5l2.1-0.1l-0.8-1.3l1,0L163,205h-1.2l-1.4-2.8h-1.5l-1.5,2.7l0.5,1.5H160.9L160.9,206.4z M147,204.2h-1.9
		l0.3-1l1.8,0L147,204.2L147,204.2z M148.6,202.2h-4.2l-1,3.1h3.4l-0.1,1.2H143l-0.5,1.4h5.7L148.6,202.2L148.6,202.2z M208.8,143.6
		c-8.3,0-15.2,5.6-17.2,13.3h-30.8v2.4h30.3c-0.1,0.7-0.1,1.4-0.1,2.2c0,0,0,0,0,0h-30.2v2.4h13.5c-4.7,0-8.5,3.8-8.5,8.5v24.1h-3.3
		v-20.8h2.1v-1.6H157v5.7c-1-1.2-2.4-2.1-4-2.5v-1.8h0.9v-1.4h-6.4v1.4h0.9v1.9c-1.5,0.5-2.8,1.4-3.8,2.6v-5.9h-7.6v1.6h2.1v20.8
		h-3.5v-24.1c0-4.7-3.8-8.5-8.5-8.5h13.6v-2.4h-30.2v0c0-0.7-0.1-1.5-0.1-2.2h30.3v-2.4h-30.8c-2-7.6-9-13.3-17.2-13.3
		c-1.2,0-2.4,0.1-3.6,0.4c4.8-12.3,16.8-21.1,30.8-21.1h7.4v-2h0c0-13,10.5-23.5,23.5-23.5c13,0,23.5,10.5,23.5,23.5v2h7.4
		c14,0,26,8.7,30.8,21.1C211.2,143.7,210,143.6,208.8,143.6L208.8,143.6z M181.3,167.5c2.1-1.8,4.7-3.1,7.5-3.6h-14.4
		C177.2,163.9,179.7,165.3,181.3,167.5L181.3,167.5z M176,179.1c0-3.7,1.3-7.2,3.5-9.8c-1.1-1.8-3-2.9-5.2-2.9
		c-3.4,0-6.1,2.7-6.1,6.1v7h7.8C176,179.3,176,179.2,176,179.1L176,179.1z M171.6,187c0-2,0.7-3.8,1.9-5.2h-5.3v14.7h3.4V187
		L171.6,187L171.6,187z M144.6,196.6H157v-12.8c-0.8-2.7-3.2-4.8-6.1-4.8c-3.2,0-5.8,2.4-6.3,5.5V196.6L144.6,196.6z M150.7,214.5
		c-10.2,0-18.8-6.5-22.1-15.5h44.2C169.5,208,160.9,214.5,150.7,214.5L150.7,214.5z M133.1,181.8h-5.2c1.2,1.4,1.9,3.2,1.9,5.2v9.5
		h3.3V181.8L133.1,181.8z M121.8,169.2c2.2,2.7,3.6,6.1,3.6,9.9c0,0.1,0,0.2,0,0.3h7.7v-7c0-3.4-2.7-6.1-6.1-6.1
		C124.8,166.3,122.9,167.5,121.8,169.2L121.8,169.2z M120.1,167.4c1.5-2.1,4.1-3.5,6.9-3.5h-14.3C115.4,164.4,118,165.6,120.1,167.4
		L120.1,167.4z M181.6,120.3c19.7,0,35.7,16,35.7,35.7c0,19.7-16,35.7-35.7,35.7h-5.1c-0.3,13.9-11.8,25.1-25.8,25.1
		c-14,0-25.4-11.2-25.8-25.1h-5.1c-19.7,0-35.7-16-35.7-35.7c0-19.7,16-35.7,35.7-35.7h0h5.1c0.3-13.9,11.8-25.1,25.8-25.1
		c14,0,25.4,11.2,25.8,25.1H181.6L181.6,120.3L181.6,120.3z M153.1,121.1v-3.6h-1.3v3.6H153.1L153.1,121.1z M149.7,121.1v-3.6h-1.3
		v3.6H149.7L149.7,121.1z M159.9,121.1h-4.6v-3.6h-1.3v-2.3h1.2v-2.1h-1.2v-0.3c0-1.7-1.2-3.1-2.9-3.3v-5.8h-1v5.8
		c-1.6,0.2-2.9,1.6-2.9,3.3v0.3h-1.2v2.1h1.2v2.3h-1.3v3.6h-4.6v3.4h-2.3v2.2h22.9v-2.2h-2.3V121.1L159.9,121.1z M154.5,161.5v-17.4
		h-2.2c-0.1-0.8-0.8-1.4-1.6-1.4c-0.8,0-1.5,0.6-1.6,1.4H147v17.4H154.5L154.5,161.5z M154.5,167.5V164H147v3.6H154.5L154.5,167.5z
		 M160,129.2h-5.5v12.6h-1.9c-0.5-0.4-1.2-0.6-1.9-0.6c-0.7,0-1.4,0.2-1.9,0.6H147v-12.6h-5.5v38.4h-2.3v5.6h23v-5.6H160V129.2
		L160,129.2z M150.7,137.1c1.3,0,2.3-1,2.3-2.3c0-1.3-1-2.3-2.3-2.3c-1.3,0-2.3,1-2.3,2.3C148.4,136.1,149.5,137.1,150.7,137.1
		L150.7,137.1z M220.5,158.4c0,0.5-0.1,1-0.1,1.4c0,0.2-0.1,0.4-0.1,0.7c0,0.4-0.1,0.8-0.2,1.2c0,0.2-0.1,0.5-0.1,0.7
		c-0.1,0.4-0.1,0.8-0.2,1.1c0,0.3-0.1,0.5-0.2,0.8c-0.1,0.4-0.2,0.7-0.2,1.1c-0.1,0.3-0.1,0.5-0.2,0.8c-0.1,0.3-0.2,0.7-0.3,1
		c-0.1,0.3-0.2,0.5-0.2,0.8c-0.1,0.3-0.2,0.7-0.3,1c-0.1,0.3-0.2,0.5-0.3,0.8c-0.1,0.3-0.3,0.7-0.4,1c-0.1,0.2-0.2,0.5-0.3,0.7
		c-0.1,0.3-0.3,0.6-0.4,0.9c-0.1,0.2-0.2,0.5-0.3,0.7c-0.2,0.3-0.3,0.6-0.5,0.9c-0.1,0.2-0.2,0.5-0.4,0.7c-0.2,0.3-0.3,0.6-0.5,0.9
		c-0.1,0.2-0.3,0.5-0.4,0.7c-0.2,0.3-0.4,0.6-0.6,0.9c-0.1,0.2-0.3,0.4-0.4,0.6c-0.2,0.3-0.4,0.6-0.6,0.9c-0.1,0.2-0.3,0.4-0.4,0.6
		c-0.2,0.3-0.5,0.6-0.7,0.9c-0.1,0.2-0.3,0.4-0.4,0.5c-0.3,0.3-0.6,0.7-0.9,1c-0.1,0.1-0.2,0.2-0.3,0.4c-0.4,0.4-0.8,0.9-1.2,1.3
		c-0.2,0.2-0.3,0.3-0.5,0.5c-0.3,0.3-0.5,0.5-0.8,0.8c-0.2,0.2-0.4,0.4-0.6,0.5c-0.2,0.2-0.5,0.4-0.8,0.7c-0.2,0.2-0.4,0.4-0.7,0.5
		c-0.2,0.2-0.5,0.4-0.7,0.6c-0.2,0.2-0.5,0.4-0.7,0.5c-0.3,0.2-0.5,0.4-0.8,0.5c-0.2,0.2-0.5,0.3-0.8,0.5c-0.3,0.2-0.5,0.3-0.8,0.5
		c-0.3,0.2-0.5,0.3-0.8,0.5c-0.3,0.2-0.5,0.3-0.8,0.4c-0.3,0.2-0.5,0.3-0.8,0.4c-0.3,0.1-0.5,0.3-0.8,0.4c-0.3,0.1-0.6,0.3-0.9,0.4
		c-0.3,0.1-0.5,0.2-0.8,0.4c-0.3,0.1-0.6,0.3-0.9,0.4c-0.3,0.1-0.5,0.2-0.8,0.3c-0.3,0.1-0.6,0.2-0.9,0.3c-0.3,0.1-0.6,0.2-0.8,0.3
		c-0.3,0.1-0.6,0.2-0.9,0.3c-0.3,0.1-0.6,0.2-0.8,0.2c-0.3,0.1-0.6,0.2-1,0.3c-0.3,0.1-0.6,0.1-0.8,0.2c-0.3,0.1-0.7,0.2-1,0.2
		c-0.3,0.1-0.6,0.1-0.8,0.1c-0.3,0.1-0.7,0.1-1,0.2c-0.3,0-0.5,0.1-0.8,0.1c-1.6,0.2-3.3,0.3-5,0.3c-0.8,0-1.6,0-2.4-0.1
		c-0.3,2.1-0.8,4.2-1.5,6.1c-0.1,0.4-0.3,0.7-0.4,1c-0.1,0.2-0.2,0.4-0.2,0.6c-0.1,0.2-0.2,0.4-0.3,0.6c-0.1,0.2-0.2,0.4-0.3,0.6
		c-0.1,0.2-0.2,0.4-0.3,0.6c-0.1,0.2-0.2,0.4-0.3,0.5c-0.1,0.2-0.3,0.4-0.4,0.7c-0.1,0.3-0.3,0.5-0.5,0.8c-0.1,0.2-0.3,0.4-0.4,0.6
		c-0.1,0.2-0.2,0.3-0.3,0.5c-0.1,0.2-0.2,0.4-0.4,0.5c-0.1,0.2-0.2,0.3-0.4,0.5c-0.1,0.2-0.3,0.4-0.4,0.5c-0.1,0.1-0.2,0.3-0.3,0.4
		c-0.2,0.3-0.5,0.6-0.7,0.9c-0.1,0.1-0.2,0.3-0.4,0.4c-0.2,0.2-0.3,0.4-0.5,0.5c-0.1,0.1-0.3,0.3-0.4,0.4c-0.2,0.2-0.3,0.3-0.5,0.5
		c-0.1,0.1-0.3,0.2-0.4,0.4c-0.2,0.2-0.5,0.4-0.7,0.6c-0.1,0.1-0.3,0.2-0.4,0.3c-0.2,0.2-0.5,0.4-0.7,0.6c-0.1,0.1-0.3,0.2-0.4,0.3
		c-0.2,0.2-0.4,0.3-0.6,0.5c-0.1,0.1-0.3,0.2-0.4,0.3c-0.2,0.2-0.5,0.3-0.7,0.5c-0.1,0.1-0.2,0.1-0.3,0.2c-0.3,0.2-0.7,0.4-1.1,0.6
		c-0.1,0.1-0.2,0.1-0.3,0.2c-0.3,0.1-0.5,0.3-0.8,0.4c-0.1,0.1-0.3,0.1-0.4,0.2c-0.3,0.1-0.5,0.2-0.8,0.4c-0.1,0.1-0.3,0.1-0.4,0.2
		c-0.4,0.2-0.8,0.3-1.2,0.5c0,0-0.1,0-0.1,0c-0.4,0.1-0.8,0.3-1.1,0.4c-0.1,0-0.3,0.1-0.4,0.1c-0.3,0.1-0.6,0.2-0.9,0.2
		c-0.1,0-0.3,0.1-0.4,0.1c-0.3,0.1-0.6,0.2-1,0.2c-0.1,0-0.2,0-0.3,0.1c-0.4,0.1-0.8,0.2-1.3,0.2c-0.1,0-0.2,0-0.3,0
		c-0.3,0-0.7,0.1-1,0.1c-0.1,0-0.3,0-0.4,0c-0.3,0-0.6,0.1-1,0.1c-0.1,0-0.3,0-0.4,0c-0.4,0-0.9,0-1.3,0h0c-0.4,0-0.9,0-1.3,0
		c-0.1,0-0.3,0-0.4,0c-0.3,0-0.6,0-0.9-0.1c-0.2,0-0.3,0-0.4,0c-0.3,0-0.7-0.1-1-0.1c-0.1,0-0.2,0-0.3,0c-0.4-0.1-0.8-0.1-1.3-0.2
		c-0.1,0-0.2-0.1-0.3-0.1c-0.3-0.1-0.6-0.1-0.9-0.2c-0.1,0-0.3-0.1-0.4-0.1c-0.3-0.1-0.6-0.2-0.8-0.2c-0.1,0-0.3-0.1-0.4-0.1
		c-0.4-0.1-0.7-0.2-1.1-0.4c-0.1,0-0.2-0.1-0.2-0.1c-0.4-0.1-0.7-0.3-1.1-0.4c-0.1-0.1-0.3-0.1-0.4-0.2c-0.2-0.1-0.5-0.2-0.7-0.3
		c-0.2-0.1-0.3-0.1-0.5-0.2c-0.2-0.1-0.5-0.2-0.7-0.4c-0.1-0.1-0.3-0.1-0.4-0.2c-0.3-0.2-0.7-0.4-1-0.6c-0.1-0.1-0.3-0.2-0.4-0.3
		c-0.2-0.1-0.4-0.3-0.6-0.4c-0.2-0.1-0.3-0.2-0.5-0.3c-0.2-0.1-0.4-0.3-0.6-0.4c-0.2-0.1-0.3-0.2-0.5-0.3c-0.2-0.2-0.4-0.3-0.6-0.5
		c-0.2-0.2-0.4-0.3-0.6-0.5c-0.2-0.2-0.4-0.3-0.6-0.5c-0.2-0.1-0.3-0.3-0.4-0.4c-0.2-0.1-0.3-0.3-0.4-0.4c-0.2-0.1-0.3-0.3-0.5-0.4
		c-0.1-0.1-0.3-0.3-0.4-0.4c-0.1-0.2-0.3-0.3-0.4-0.5c-0.2-0.2-0.4-0.5-0.6-0.7c-0.2-0.2-0.3-0.4-0.5-0.6c-0.1-0.1-0.2-0.3-0.3-0.4
		c-0.1-0.2-0.3-0.4-0.4-0.5c-0.1-0.1-0.2-0.3-0.3-0.4c-0.1-0.2-0.3-0.4-0.4-0.6c-0.1-0.1-0.2-0.3-0.3-0.4c-0.2-0.4-0.5-0.7-0.7-1.1
		c-0.1-0.1-0.2-0.3-0.2-0.4c-0.1-0.2-0.2-0.4-0.3-0.6c-0.1-0.1-0.2-0.3-0.2-0.5c-0.1-0.2-0.2-0.4-0.3-0.6c-0.1-0.2-0.1-0.3-0.2-0.5
		c-0.1-0.2-0.2-0.4-0.3-0.7c0-0.1-0.1-0.1-0.1-0.2c-0.9-2.2-1.5-4.5-1.8-7c-0.8,0-1.6,0.1-2.4,0.1c-1.7,0-3.4-0.1-5.1-0.3
		c-0.2,0-0.5-0.1-0.7-0.1c-0.4-0.1-0.7-0.1-1.1-0.2c-0.3,0-0.5-0.1-0.8-0.1c-0.3-0.1-0.7-0.1-1-0.2c-0.3-0.1-0.5-0.1-0.8-0.2
		c-0.3-0.1-0.7-0.2-1-0.3c-0.3-0.1-0.5-0.1-0.8-0.2c-0.3-0.1-0.6-0.2-1-0.3c-0.3-0.1-0.5-0.2-0.8-0.3c-0.3-0.1-0.6-0.2-1-0.4
		c-0.3-0.1-0.5-0.2-0.8-0.3c-0.3-0.1-0.6-0.3-0.9-0.4c-0.3-0.1-0.5-0.2-0.8-0.3c-0.3-0.1-0.6-0.3-0.9-0.4c-0.2-0.1-0.5-0.2-0.7-0.4
		c-0.3-0.2-0.6-0.3-0.9-0.5c-0.2-0.1-0.5-0.3-0.7-0.4c-0.3-0.2-0.6-0.3-0.8-0.5c-0.2-0.1-0.5-0.3-0.7-0.4c-0.3-0.2-0.6-0.4-0.8-0.5
		c-0.2-0.2-0.5-0.3-0.7-0.5c-0.3-0.2-0.5-0.4-0.8-0.6c-0.2-0.2-0.4-0.3-0.7-0.5c-0.3-0.2-0.5-0.4-0.8-0.6c-0.2-0.2-0.4-0.4-0.6-0.5
		c-0.2-0.2-0.5-0.4-0.7-0.6c-0.2-0.2-0.4-0.4-0.6-0.6c-0.2-0.2-0.5-0.5-0.7-0.7c-0.2-0.2-0.3-0.3-0.5-0.5c-0.5-0.5-0.9-1-1.4-1.5
		c-0.2-0.2-0.4-0.4-0.6-0.7c-0.2-0.2-0.4-0.5-0.6-0.7c-0.2-0.2-0.4-0.5-0.6-0.7c-0.2-0.2-0.4-0.5-0.5-0.7c-0.2-0.2-0.4-0.5-0.5-0.7
		c-0.2-0.2-0.3-0.5-0.5-0.8c-0.2-0.3-0.3-0.5-0.5-0.8c-0.2-0.3-0.3-0.5-0.5-0.8c-0.2-0.3-0.3-0.5-0.5-0.8c-0.1-0.3-0.3-0.5-0.4-0.8
		c-0.1-0.3-0.3-0.5-0.4-0.8c-0.1-0.3-0.3-0.5-0.4-0.8c-0.1-0.3-0.3-0.6-0.4-0.9c-0.1-0.3-0.2-0.6-0.4-0.8c-0.1-0.3-0.2-0.6-0.3-0.9
		c-0.1-0.3-0.2-0.6-0.3-0.8c-0.1-0.3-0.2-0.6-0.3-0.9c-0.1-0.3-0.2-0.6-0.3-0.9c-0.1-0.3-0.2-0.6-0.3-0.9c-0.1-0.3-0.2-0.6-0.2-0.9
		c-0.1-0.3-0.1-0.6-0.2-1c-0.1-0.3-0.1-0.6-0.2-0.9c-0.1-0.3-0.1-0.7-0.2-1c0-0.3-0.1-0.6-0.1-0.9c-0.1-0.3-0.1-0.7-0.1-1
		c0-0.3-0.1-0.6-0.1-0.9c0-0.4-0.1-0.7-0.1-1.1c0-0.3,0-0.5-0.1-0.8c0-0.5,0-1,0-1.5c0-0.1,0-0.3,0-0.4c0-0.1,0-0.3,0-0.4
		c0-0.5,0-1,0-1.5c0-0.3,0-0.5,0.1-0.8c0-0.4,0.1-0.8,0.1-1.1c0-0.3,0.1-0.6,0.1-0.9c0-0.4,0.1-0.7,0.1-1c0-0.3,0.1-0.6,0.1-0.9
		c0.1-0.3,0.1-0.7,0.2-1c0.1-0.3,0.1-0.6,0.2-0.9c0.1-0.3,0.1-0.6,0.2-1c0.1-0.3,0.2-0.6,0.2-0.9c0.1-0.3,0.2-0.6,0.3-0.9
		c0.1-0.3,0.2-0.6,0.3-0.9c0.1-0.3,0.2-0.6,0.3-0.9c0.1-0.3,0.2-0.6,0.3-0.8c0.1-0.3,0.2-0.6,0.3-0.9c0.1-0.3,0.2-0.6,0.4-0.8
		c0.1-0.3,0.3-0.6,0.4-0.9c0.1-0.3,0.3-0.5,0.4-0.8c0.1-0.3,0.3-0.5,0.4-0.8c0.1-0.3,0.3-0.5,0.4-0.8c0.2-0.3,0.3-0.5,0.5-0.8
		c0.2-0.3,0.3-0.5,0.5-0.8c0.2-0.3,0.3-0.5,0.5-0.8c0.2-0.3,0.3-0.5,0.5-0.8c0.2-0.2,0.3-0.5,0.5-0.7c0.2-0.2,0.4-0.5,0.5-0.7
		c0.2-0.2,0.4-0.5,0.6-0.7c0.2-0.2,0.4-0.5,0.6-0.7c0.2-0.2,0.4-0.4,0.6-0.7c0.4-0.5,0.9-1,1.4-1.5c0.2-0.2,0.3-0.3,0.5-0.5
		c0.2-0.2,0.5-0.5,0.7-0.7c0.2-0.2,0.4-0.4,0.6-0.6c0.2-0.2,0.5-0.4,0.7-0.6c0.2-0.2,0.4-0.4,0.6-0.5c0.2-0.2,0.5-0.4,0.8-0.6
		c0.2-0.2,0.4-0.3,0.7-0.5c0.3-0.2,0.5-0.4,0.8-0.6c0.2-0.2,0.4-0.3,0.7-0.5c0.3-0.2,0.5-0.4,0.8-0.5c0.2-0.1,0.5-0.3,0.7-0.4
		c0.3-0.2,0.6-0.3,0.8-0.5c0.2-0.1,0.5-0.3,0.7-0.4c0.3-0.2,0.6-0.3,0.9-0.5c0.2-0.1,0.5-0.3,0.7-0.4c0.3-0.1,0.6-0.3,0.9-0.4
		c0.2-0.1,0.5-0.2,0.8-0.3c0.3-0.1,0.6-0.3,0.9-0.4c0.3-0.1,0.5-0.2,0.8-0.3c0.3-0.1,0.6-0.2,1-0.4c0.3-0.1,0.5-0.2,0.8-0.3
		c0.3-0.1,0.6-0.2,1-0.3c0.3-0.1,0.5-0.2,0.8-0.2c0.3-0.1,0.7-0.2,1-0.3c0.3-0.1,0.5-0.1,0.8-0.2c0.3-0.1,0.7-0.2,1-0.2
		c0.3-0.1,0.5-0.1,0.8-0.1c0.4-0.1,0.7-0.1,1.1-0.2c0.2,0,0.5-0.1,0.7-0.1c1.7-0.2,3.3-0.3,5.1-0.3c0.8,0,1.6,0,2.4,0.1
		c0.3-2.4,0.9-4.6,1.8-6.8c0.1-0.1,0.1-0.3,0.2-0.4c0.1-0.2,0.2-0.4,0.3-0.7c0.1-0.2,0.1-0.3,0.2-0.5c0.1-0.2,0.2-0.4,0.3-0.6
		c0.1-0.2,0.2-0.3,0.2-0.5c0.1-0.2,0.2-0.4,0.3-0.6c0.1-0.2,0.2-0.3,0.3-0.5c0.2-0.3,0.4-0.7,0.6-1c0.1-0.2,0.2-0.3,0.3-0.5
		c0.1-0.2,0.3-0.4,0.4-0.6c0.1-0.2,0.2-0.3,0.3-0.5c0.1-0.2,0.3-0.4,0.4-0.5c0.1-0.2,0.2-0.3,0.4-0.5c0.1-0.2,0.3-0.3,0.4-0.5
		c0.2-0.3,0.5-0.6,0.7-0.8c0.1-0.1,0.3-0.3,0.4-0.4c0.1-0.2,0.3-0.3,0.4-0.5c0.1-0.1,0.3-0.3,0.4-0.4c0.2-0.2,0.3-0.3,0.5-0.4
		c0.1-0.1,0.3-0.3,0.4-0.4c0.2-0.2,0.4-0.4,0.6-0.6c0.2-0.1,0.4-0.3,0.5-0.4c0.2-0.2,0.4-0.3,0.7-0.5c0.1-0.1,0.3-0.2,0.4-0.3
		c0.2-0.1,0.4-0.3,0.6-0.4c0.1-0.1,0.3-0.2,0.4-0.3c0.2-0.2,0.4-0.3,0.7-0.4c0.1-0.1,0.3-0.2,0.4-0.2c0.3-0.2,0.7-0.4,1-0.6
		c0.1-0.1,0.3-0.1,0.4-0.2c0.2-0.1,0.5-0.3,0.7-0.4c0.1-0.1,0.3-0.1,0.4-0.2c0.2-0.1,0.5-0.2,0.7-0.3c0.1-0.1,0.3-0.1,0.4-0.2
		c0.4-0.2,0.7-0.3,1.1-0.4c0.1,0,0.1,0,0.2-0.1c0.4-0.1,0.7-0.2,1.1-0.4c0.1,0,0.3-0.1,0.4-0.1c0.3-0.1,0.6-0.2,0.8-0.2
		c0.1,0,0.3-0.1,0.4-0.1c0.3-0.1,0.6-0.2,0.9-0.2c0.1,0,0.2,0,0.3-0.1c0.4-0.1,0.8-0.2,1.3-0.2c0.1,0,0.2,0,0.3,0
		c0.3,0,0.7-0.1,1-0.1c0.1,0,0.3,0,0.4,0c0.3,0,0.6-0.1,0.9-0.1c0.1,0,0.3,0,0.4,0c0.4,0,0.9,0,1.3,0h0c0.5,0,0.9,0,1.3,0
		c0.1,0,0.3,0,0.4,0c0.3,0,0.6,0,1,0.1c0.1,0,0.3,0,0.4,0c0.3,0,0.7,0.1,1,0.1c0.1,0,0.2,0,0.3,0c0.4,0.1,0.9,0.1,1.3,0.2
		c0.1,0,0.2,0,0.3,0.1c0.3,0.1,0.7,0.1,1,0.2c0.1,0,0.3,0.1,0.4,0.1c0.3,0.1,0.6,0.2,0.9,0.2c0.1,0,0.3,0.1,0.4,0.1
		c0.4,0.1,0.8,0.3,1.2,0.4c0,0,0,0,0.1,0c0.4,0.1,0.8,0.3,1.2,0.5c0.1,0.1,0.2,0.1,0.4,0.2c0.3,0.1,0.5,0.2,0.8,0.4
		c0.1,0.1,0.3,0.1,0.4,0.2c0.3,0.1,0.5,0.3,0.8,0.4c0.1,0.1,0.2,0.1,0.3,0.2c0.4,0.2,0.7,0.4,1.1,0.6c0.1,0.1,0.2,0.1,0.3,0.2
		c0.3,0.2,0.5,0.3,0.8,0.5c0.1,0.1,0.3,0.2,0.4,0.3c0.2,0.2,0.4,0.3,0.7,0.5c0.1,0.1,0.3,0.2,0.4,0.3c0.3,0.2,0.5,0.4,0.8,0.6
		c0.1,0.1,0.2,0.2,0.3,0.2c0.3,0.2,0.5,0.5,0.8,0.7c0.1,0.1,0.2,0.2,0.4,0.3c0.2,0.2,0.4,0.3,0.5,0.5c0.1,0.1,0.3,0.2,0.4,0.4
		c0.2,0.2,0.3,0.4,0.5,0.5c0.1,0.1,0.2,0.2,0.3,0.4c0.3,0.3,0.5,0.6,0.8,0.9c0.1,0.1,0.2,0.3,0.3,0.4c0.2,0.2,0.3,0.4,0.5,0.6
		c0.1,0.2,0.2,0.3,0.3,0.5c0.1,0.2,0.3,0.4,0.4,0.6c0.1,0.2,0.2,0.3,0.3,0.5c0.1,0.2,0.3,0.4,0.4,0.7c0.1,0.2,0.3,0.4,0.4,0.7
		c0.1,0.2,0.3,0.5,0.4,0.7c0.1,0.2,0.2,0.3,0.3,0.5c0.1,0.2,0.2,0.4,0.3,0.6c0.1,0.2,0.2,0.4,0.3,0.5c0.1,0.2,0.2,0.4,0.3,0.6
		c0.1,0.2,0.2,0.4,0.2,0.5c0.1,0.3,0.3,0.7,0.4,1.1h0c0.7,2,1.2,4,1.5,6.1c0.8,0,1.6-0.1,2.4-0.1c1.7,0,3.4,0.1,5,0.3
		c0.3,0,0.5,0.1,0.8,0.1c0.3,0.1,0.7,0.1,1,0.2c0.3,0,0.6,0.1,0.8,0.1c0.3,0.1,0.7,0.1,1,0.2c0.3,0.1,0.6,0.1,0.8,0.2
		c0.3,0.1,0.6,0.2,1,0.3c0.3,0.1,0.6,0.2,0.8,0.2c0.3,0.1,0.6,0.2,0.9,0.3c0.3,0.1,0.6,0.2,0.8,0.3c0.3,0.1,0.6,0.2,0.9,0.3
		c0.3,0.1,0.5,0.2,0.8,0.3c0.3,0.1,0.6,0.2,0.9,0.4c0.3,0.1,0.5,0.2,0.8,0.4c0.3,0.1,0.6,0.3,0.9,0.4c0.3,0.1,0.5,0.3,0.8,0.4
		c0.3,0.1,0.6,0.3,0.8,0.4c0.3,0.1,0.5,0.3,0.8,0.4c0.3,0.2,0.5,0.3,0.8,0.5c0.3,0.2,0.5,0.3,0.8,0.5c0.2,0.2,0.5,0.3,0.8,0.5
		c0.3,0.2,0.5,0.4,0.8,0.5c0.2,0.2,0.5,0.3,0.7,0.5c0.3,0.2,0.5,0.4,0.7,0.6c0.2,0.2,0.4,0.4,0.7,0.5c0.3,0.2,0.5,0.4,0.8,0.7
		c0.2,0.2,0.4,0.4,0.6,0.5c0.3,0.3,0.5,0.5,0.8,0.8c0.2,0.2,0.3,0.3,0.5,0.5c0.4,0.4,0.8,0.9,1.2,1.3c0.1,0.1,0.2,0.2,0.3,0.4
		c0.3,0.3,0.6,0.7,0.9,1c0.1,0.2,0.3,0.4,0.4,0.5c0.2,0.3,0.5,0.6,0.7,0.9c0.2,0.2,0.3,0.4,0.4,0.6c0.2,0.3,0.4,0.6,0.6,0.9
		c0.1,0.2,0.3,0.4,0.4,0.6c0.2,0.3,0.4,0.6,0.6,0.9c0.1,0.2,0.3,0.5,0.4,0.7c0.2,0.3,0.4,0.6,0.5,0.9c0.1,0.2,0.3,0.5,0.4,0.7
		c0.2,0.3,0.3,0.6,0.5,0.9c0.1,0.2,0.2,0.5,0.3,0.7c0.1,0.3,0.3,0.6,0.4,0.9c0.1,0.2,0.2,0.5,0.3,0.7c0.1,0.3,0.3,0.6,0.4,1
		c0.1,0.3,0.2,0.5,0.3,0.8c0.1,0.3,0.2,0.7,0.3,1c0.1,0.3,0.2,0.5,0.2,0.8c0.1,0.3,0.2,0.7,0.3,1c0.1,0.2,0.1,0.5,0.2,0.8
		c0.1,0.4,0.2,0.7,0.2,1.1c0.1,0.3,0.1,0.5,0.2,0.8c0.1,0.4,0.1,0.8,0.2,1.1c0,0.2,0.1,0.5,0.1,0.7c0.1,0.4,0.1,0.8,0.2,1.2
		c0,0.2,0.1,0.4,0.1,0.7c0,0.5,0.1,0.9,0.1,1.4c0,0.2,0,0.3,0,0.5c0,0.6,0,1.3,0,2c0,0.7,0,1.3,0,2
		C220.5,158.1,220.5,158.2,220.5,158.4L220.5,158.4z M184.2,110.8c23.7,1.4,42.6,21,42.6,45.1c0,24.1-18.8,43.8-42.6,45.1
		c-4.3,14.4-17.7,24.9-33.5,24.9c-15.8,0-29.2-10.5-33.5-24.9c-23.7-1.4-42.6-21-42.6-45.1c0-24.1,18.8-43.8,42.6-45.1
		c4.3-14.4,17.7-24.9,33.5-24.9C166.5,85.9,179.9,96.4,184.2,110.8L184.2,110.8z M150.7,147.6c-0.6,0-1,0.5-1,1v8.3c0,0.6,0.5,1,1,1
		c0.6,0,1-0.5,1-1v-8.3C151.7,148.1,151.3,147.6,150.7,147.6z"/>
</g>
</svg>
