<svg id="图层_1" data-name="图层 1" xmlns="http://www.w3.org/2000/svg" xmlns:xlink="http://www.w3.org/1999/xlink" viewBox="0 0 501 158.37"><defs><style>.cls-1{fill:none;}.cls-2{fill:#041d7a;}.cls-3{clip-path:url(#clip-path);}.cls-4{fill:url(#未命名的渐变_2);}.cls-5{clip-path:url(#clip-path-2);}.cls-6{fill:url(#未命名的渐变_3);}.cls-7{fill:#1941af;}</style><clipPath id="clip-path"><path class="cls-1" d="M155.7,77.6h13.69a34.19,34.19,0,0,0-17-14.81A42.76,42.76,0,0,1,155.7,77.6"/></clipPath><linearGradient id="未命名的渐变_2" x1="-730.33" y1="457.47" x2="-729.04" y2="457.47" gradientTransform="matrix(-12.34, 0, 0, 12.34, -8845.25, -5575.21)" gradientUnits="userSpaceOnUse"><stop offset="0" stop-color="#fff"/><stop offset="1" stop-color="#1941af"/></linearGradient><clipPath id="clip-path-2"><path class="cls-1" d="M157,110H142.85a41,41,0,0,1-3.8,3.3,42.42,42.42,0,0,1-15.35,7.52,41.76,41.76,0,0,1-4.37.9,43.66,43.66,0,0,1-6.41.48,42.56,42.56,0,0,1-27.07-9.66A62,62,0,0,0,125.79,141a61.92,61.92,0,0,0,34-18.76c.22-.22.43-.46.63-.69A61.57,61.57,0,0,0,168.63,110Z"/></clipPath><linearGradient id="未命名的渐变_3" x1="-730.78" y1="457.09" x2="-729.49" y2="457.09" gradientTransform="matrix(64.39, 0, 0, -64.39, 47140.15, 29557.33)" xlink:href="#未命名的渐变_2"/></defs><title>vastaitech-logo</title><path class="cls-2" d="M403.38,103.12,403.22,77c-.52.14-1.42.4-2.71.79a6.48,6.48,0,0,0-1.35.4l0-4.84c3.59-2.34,6.08-7.29,7.45-14.65h8.13A46.85,46.85,0,0,1,410.91,70l.21,33.12Z"/><path class="cls-2" d="M443.58,98.74l0-6.19q-4.14-7.78-4.2-20.18h-6.56c.12,7.89,1.24,13.68,3.39,17.33l-4.44,0-.13-19.6h7.74s0,0,0,0h3.09l0-5.42-10.83.07,0-6.07H423.6l0,6.12-10.45.07,0,5.23h10.44l.13,19.65-4.45,0c2-4,3.07-9.85,3.3-17.43H416c.08,8.32-1.17,15.13-3.75,20.38l0,6.19a27.72,27.72,0,0,0,6.14-7.39l0,3.29,5.42,0,.05,8.32h7.93l-.05-8.37,5.22,0,0-3.48a37.24,37.24,0,0,0,6.62,7.5"/><path class="cls-2" d="M376.79,95.92l0-5.8L348,90.3l0-5.22,28.81-.19V83.35l8.51-.06v1.55l7.35,0,0,5.23-7.35,0,0,6.38v2.8a3.83,3.83,0,0,1-3.83,3.83l-12.18.05,0-4.84,7.52,0Z"/><path class="cls-2" d="M392,73.2l-6.39,0V76l-26.31.14V73.21l23.4-.15q6.19.16,6-6l-.05-8.32H350.85L350.94,74v7.3l37.19-.16A3.83,3.83,0,0,0,392,77.35Zm-11.29-5.34L359.22,68l0-3.67,21.46-.14Z"/><polygon class="cls-2" points="366.98 100.8 357.7 100.8 355.54 92.24 364.82 92.24 366.98 100.8"/><polygon class="cls-2" points="298.53 80.56 298.5 74.95 314.16 74.85 314.05 58.71 323.33 58.71 323.44 74.79 339.3 74.69 339.33 80.3 323.48 80.4 323.51 86.59 341.31 86.47 341.34 92.08 323.55 92.19 323.62 103.12 314.33 103.12 314.27 92.25 296.67 92.37 296.63 86.76 314.23 86.65 314.19 80.46 298.53 80.56"/><polygon class="cls-2" points="311.86 71.99 302.57 71.99 299.13 58.71 308.41 58.71 311.86 71.99"/><polygon class="cls-2" points="325.51 71.99 334.8 71.99 338.24 58.71 328.96 58.71 325.51 71.99"/><polygon class="cls-2" points="247.77 103.12 247.58 74.33 244.87 74.34 244.84 68.93 247.54 68.91 247.48 58.71 255.22 58.71 255.28 68.86 257.6 68.85 257.64 74.26 255.31 74.28 255.5 103.12 247.77 103.12"/><path class="cls-2" d="M278.08,95.58l0-2.71L257,93l0-5,21-.14V86.49l7.54,0V87.8l4.26,0,0,5-4.26,0,0,3.48q.22,6.57-6.54,6.43l-5,0,0-4.84h4.05Z"/><path class="cls-2" d="M285,66.72l-7.63,0V65.41l10.83-.07V58.71H281L281,61l-3.72,0,0-2.26h-7.73V61l-11,.07v4.45l11-.08v1.36l-11,.07.12,19.34,7,0V83.47l4.06,0v2.71l7.74,0,0-2.71,3.87,0,0,2.71,7,0-.1-16.15A3.19,3.19,0,0,0,285,66.72m-19.4,4.38,4.06,0V73.2l-4.06,0Zm.05,8.31,0-2.32,4.07,0v2.32ZM277.34,71l3.87,0,0,2.13-3.87,0Zm.06,8.32,0-2.32,3.87,0,0,2.32Z"/><polygon class="cls-2" points="270.46 102.01 263.16 102.01 260.71 94.6 268.01 94.6 270.46 102.01"/><path class="cls-2" d="M221.55,92.84l0,3.87v2h-2.89l0,4.26,3.29,0q5.61.15,5.38-5.26l-.17-26.11-9.47.06,0,4.84,3.67,0,.07,10.82-4.43,2v1.93l-4.06,0,0-3.1q4.05-.41,3.83-4.86l-.09-14.5-3.86,0,0-2.51,4.25,0,0-5.22-4.25,0,0-2.28h-6.38V61l-4.25,0,0,5.22,4.26,0v2.51l-3.87,0,.13,19.34,3.87,0v3.1l-4.44,0,0,5.23,4.45,0,0,6.77,6.38,0,0-6.77,4.45,0V95ZM208.08,73.4l3.29,0v2.7l-3.28,0Zm3.34,10h-3.28v-2.9l3.28,0v2.91Z"/><path class="cls-2" d="M228,65.34c-2.44,3-6,5.07-10.6,6.26l0-4.65a14.17,14.17,0,0,0,6.91-8.24h7.35a15.87,15.87,0,0,0,7,8.11l0,4.64q-7-1.89-10.67-6.12"/><path class="cls-2" d="M227.94,94.74l0-6,3.67-1.38-.07-11-3.68,0,0-4.83,9.67-.06L237.62,97q.24,6-5.76,5.83l-3.09,0,0-4.25h2.89V96.84l0-3.87Z"/><polygon class="cls-2" points="222.25 85.75 217.59 84.54 217.59 78.94 222.25 80.15 222.25 85.75"/><polygon class="cls-2" points="232.21 85.75 227.79 84.54 227.79 78.94 232.21 80.15 232.21 85.75"/><polygon class="cls-2" points="201.87 68.78 196.16 68.78 193.88 58.67 199.58 58.67 201.87 68.78"/><polygon class="cls-2" points="201.85 80.94 196.15 80.94 193.86 70.22 199.57 70.22 201.85 80.94"/><polygon class="cls-2" points="199.13 103.19 193.43 103.19 196.09 83.4 201.79 83.4 199.13 103.19"/><path class="cls-2" d="M193.43,110.43h4.62c4.06,0,5.33,1.35,5.33,4.61,0,3.53-1.5,4.76-5.33,4.76h-1.66V124h-3Zm4.23,7c2,0,2.69-.53,2.69-2.32s-.7-2.33-2.69-2.33h-1.27v4.65Z"/><path class="cls-2" d="M205.43,117.2c0-5.52,2.23-7,6.15-7s6.15,1.44,6.15,7-2.17,7-6.15,7-6.15-1.44-6.15-7m9.19,0c0-3.29-.54-4.54-3-4.54s-3,1.25-3,4.54.55,4.49,3,4.49,3-1.15,3-4.49"/><polygon class="cls-2" points="219.08 110.43 222.18 110.43 224.13 120.44 224.25 120.44 226.32 111.74 229.75 111.74 231.7 120.44 231.82 120.44 233.81 110.43 236.87 110.43 233.77 123.97 230.06 123.97 227.97 115.39 227.86 115.39 225.73 123.97 222.02 123.97 219.08 110.43"/><polygon class="cls-2" points="247.3 121.4 247.3 123.97 238.75 123.97 238.75 110.43 247.03 110.43 247.03 113.01 241.72 113.01 241.72 115.8 246.64 115.8 246.64 118.28 241.72 118.28 241.72 121.4 247.3 121.4"/><path class="cls-2" d="M257.34,124,254.15,119h-1.46V124h-3V110.43h4.61c3.65,0,5.23,1.17,5.23,4.3,0,2.26-.8,3.47-2.54,4l3.81,5.25Zm-3.46-7.14c2,0,2.73-.39,2.73-2.1s-.74-2-2.73-2h-1.19v4.06Z"/><polygon class="cls-2" points="270.96 121.4 270.96 123.97 262.41 123.97 262.41 110.43 270.69 110.43 270.69 113.01 265.38 113.01 265.38 115.8 270.3 115.8 270.3 118.28 265.38 118.28 265.38 121.4 270.96 121.4"/><path class="cls-2" d="M278,110.43c4,0,6.59,1.13,6.59,6.77,0,5.23-2.61,6.77-6.59,6.77h-4.65V110.43Zm-.16,11c2.5,0,3.69-.94,3.69-4.24,0-3.49-1.25-4.27-3.69-4.27h-1.52v8.51Z"/><path class="cls-2" d="M292.32,110.43h4.57c4,0,5.05,1.21,5.05,3.65a2.49,2.49,0,0,1-2,2.77v.08a2.92,2.92,0,0,1,2.38,3.14c0,2.46-1.09,3.9-5.05,3.9h-5Zm4,5.58c1.93,0,2.73-.29,2.73-1.62s-.78-1.6-2.73-1.6h-1V116Zm.37,5.58c2.09,0,2.69-.33,2.69-1.71s-.58-1.72-2.69-1.72h-1.36v3.43Z"/><polygon class="cls-2" points="307.82 118.61 302.9 110.43 306.37 110.43 309.28 115.84 309.4 115.84 312.4 110.43 315.74 110.43 310.8 118.55 310.8 123.97 307.82 123.97 307.82 118.61"/><polygon class="cls-2" points="321.07 110.43 324.35 110.43 327.61 120.81 327.73 120.81 331.1 110.43 334.19 110.43 329.43 123.97 325.74 123.97 321.07 110.43"/><path class="cls-2" d="M342.78,120.62h-5.51L336.1,124H333l5.05-13.54h4l5,13.54h-3.14Zm-.86-2.46L340.16,113h-.23l-1.8,5.13Z"/><path class="cls-2" d="M348.19,123.68v-2.59a13,13,0,0,0,3.82.54c1.8,0,2.38-.41,2.38-1.62,0-1-.39-1.4-2.46-1.91-2.88-.66-3.72-1.48-3.72-3.9,0-2.87,1.81-4,5-4a10.89,10.89,0,0,1,3.48.49v2.43a14,14,0,0,0-3.36-.48c-1.54,0-2.18.29-2.18,1.44,0,.88.31,1.19,2.3,1.66,3.24.78,3.94,1.79,3.94,4.31s-1.48,4.08-5.21,4.08a15.73,15.73,0,0,1-3.94-.49"/><polygon class="cls-2" points="368.35 113.03 364.8 113.03 364.8 123.97 361.85 123.97 361.85 113.03 358.3 113.03 358.3 110.43 368.35 110.43 368.35 113.03"/><path class="cls-2" d="M369.54,123.68v-2.59a13,13,0,0,0,3.83.54c1.79,0,2.38-.41,2.38-1.62,0-1-.39-1.4-2.46-1.91-2.89-.66-3.73-1.48-3.73-3.9,0-2.87,1.82-4,5-4a10.77,10.77,0,0,1,3.47.49v2.43a13.84,13.84,0,0,0-3.36-.48c-1.54,0-2.18.29-2.18,1.44,0,.88.31,1.19,2.3,1.66,3.24.78,3.95,1.79,3.95,4.31s-1.49,4.08-5.22,4.08a15.73,15.73,0,0,1-3.94-.49"/><polygon class="cls-2" points="389.7 113.03 386.15 113.03 386.15 123.97 383.2 123.97 383.2 113.03 379.66 113.03 379.66 110.43 389.7 110.43 389.7 113.03"/><path class="cls-2" d="M399.17,124,396,119h-1.46V124h-3V110.43h4.61c3.65,0,5.23,1.17,5.23,4.3,0,2.26-.8,3.47-2.54,4l3.8,5.25Zm-3.45-7.14c2,0,2.73-.39,2.73-2.1s-.74-2-2.73-2h-1.19v4.06Z"/><polygon class="cls-2" points="412.8 121.4 412.8 123.97 404.25 123.97 404.25 110.43 412.52 110.43 412.52 113.01 407.22 113.01 407.22 115.8 412.13 115.8 412.13 118.28 407.22 118.28 407.22 121.4 412.8 121.4"/><path class="cls-2" d="M423.53,120.62H418L416.86,124h-3.08l5.05-13.54h4l5,13.54h-3.15Zm-.85-2.46L420.92,113h-.24l-1.79,5.13Z"/><polygon class="cls-2" points="429.37 110.43 434.19 110.43 436.44 118.06 436.56 118.06 438.9 110.43 443.58 110.43 443.58 123.97 440.65 123.97 440.65 113.32 440.54 113.32 437.92 121.42 434.95 121.42 432.38 113.32 432.26 113.32 432.26 123.97 429.37 123.97 429.37 110.43"/><g class="cls-3"><rect class="cls-4" x="153.38" y="61.61" width="15.04" height="17.18" transform="translate(88.44 230.09) rotate(-89.19)"/></g><g class="cls-5"><rect class="cls-6" x="85.85" y="110" width="82.79" height="31"/></g><path class="cls-2" d="M172.34,63.62a34.09,34.09,0,0,0-30.23-18.33c-1.05,0-2.08,0-3.11.14a34.07,34.07,0,0,0-31,33.93c0,.81,0,1.62.09,2.41a34.08,34.08,0,0,1,61.27-4.17h6.75a33.79,33.79,0,0,0-3.8-14"/><path class="cls-7" d="M129.85,26.07a42.81,42.81,0,0,0-23.26,78.75,42.81,42.81,0,0,1,59.94-58,42.77,42.77,0,0,0-36.68-20.73"/><path class="cls-2" d="M85.84,112.54h0a62,62,0,0,1,41.6-93.1A62,62,0,1,0,125.79,141a62.08,62.08,0,0,1-39.95-28.47"/></svg>