<svg xmlns="http://www.w3.org/2000/svg" xmlns:xlink="http://www.w3.org/1999/xlink" id="图层_1" data-name="图层 1" viewBox="0 0 501 158.37"><defs><linearGradient id="未命名的渐变_2" x1="-730.33" x2="-729.04" y1="457.47" y2="457.47" gradientTransform="matrix(-12.34 0 0 12.34 -8845.25 -5575.21)" gradientUnits="userSpaceOnUse"><stop offset="0" stop-color="#fff"/><stop offset="1" stop-color="#1941af"/></linearGradient><linearGradient xlink:href="#未命名的渐变_2" id="未命名的渐变_3" x1="-730.78" x2="-729.49" y1="457.09" y2="457.09" gradientTransform="matrix(64.39 0 0 -64.39 47140.15 29557.33)"/><clipPath id="clip-path"><path d="M155.7 77.6h13.69a34.19 34.19 0 0 0-17-14.81 42.76 42.76 0 0 1 3.31 14.81" class="cls-1"/></clipPath><clipPath id="clip-path-2"><path d="M157 110h-14.15a41 41 0 0 1-3.8 3.3 42.42 42.42 0 0 1-15.35 7.52 41.76 41.76 0 0 1-4.37.9 43.66 43.66 0 0 1-6.41.48 42.56 42.56 0 0 1-27.07-9.66A62 62 0 0 0 125.79 141a61.92 61.92 0 0 0 34-18.76c.22-.22.43-.46.63-.69a61.57 61.57 0 0 0 8.21-11.55Z" class="cls-1"/></clipPath><style>.cls-1{fill:none}.cls-2{fill:#041d7a}</style></defs><path d="M403.38 103.12 403.22 77c-.52.14-1.42.4-2.71.79a6.48 6.48 0 0 0-1.35.4v-4.84c3.59-2.34 6.08-7.29 7.45-14.65h8.13a46.85 46.85 0 0 1-3.83 11.3l.21 33.12Z" class="cls-2"/><path d="M443.58 98.74v-6.19q-4.14-7.78-4.2-20.18h-6.56c.12 7.89 1.24 13.68 3.39 17.33h-4.44l-.13-19.6h10.83v-5.42l-10.83.07v-6.07h-8.04v6.12l-10.45.07v5.23h10.44l.13 19.65h-4.45c2-4 3.07-9.85 3.3-17.43H416c.08 8.32-1.17 15.13-3.75 20.38v6.19a27.72 27.72 0 0 0 6.14-7.39v3.29h5.42l.05 8.32h7.93l-.05-8.37h5.22v-3.48a37.24 37.24 0 0 0 6.62 7.5M376.79 95.92v-5.8L348 90.3v-5.22l28.81-.19v-1.54l8.51-.06v1.55h7.35v5.23h-7.35v9.18a3.83 3.83 0 0 1-3.83 3.83l-12.18.05v-4.84h7.52ZM392 73.2h-6.39V76l-26.31.14v-2.93l23.4-.15q6.19.16 6-6l-.05-8.32h-37.8l.09 15.26v7.3l37.19-.16a3.83 3.83 0 0 0 3.87-3.79Zm-11.29-5.34-21.49.14v-3.67l21.46-.14Z" class="cls-2"/><path d="M366.98 100.8h-9.28l-2.16-8.56h9.28l2.16 8.56zM298.53 80.56l-.03-5.61 15.66-.1-.11-16.14h9.28l.11 16.08 15.86-.1.03 5.61-15.85.1.03 6.19 17.8-.12.03 5.61-17.79.11.07 10.93h-9.29l-.06-10.87-17.6.12-.04-5.61 17.6-.11-.04-6.19-15.66.1z" class="cls-2"/><path d="M311.86 71.99h-9.29l-3.44-13.28h9.28l3.45 13.28zM325.51 71.99h9.29l3.44-13.28h-9.28l-3.45 13.28zM247.77 103.12l-.19-28.79-2.71.01-.03-5.41 2.7-.02-.06-10.2h7.74l.06 10.15 2.32-.01.04 5.41-2.33.02.19 28.84h-7.73zM278.08 95.58v-2.71L257 93v-5l21-.14v-1.37h7.54v1.31h4.26v5h-4.26v3.48q.22 6.57-6.54 6.43h-5v-4.84h4.05ZM285 66.72h-7.63v-1.31l10.83-.07v-6.63H281V61h-3.72v-2.26h-7.73V61l-11 .07v4.45l11-.08v1.36l-11 .07.12 19.34h7v-2.74h4.06v2.71h7.74v-2.71h3.87v2.71h7l-.1-16.15a3.19 3.19 0 0 0-3.24-3.31m-19.4 4.38h4.06v2.1h-4.06Zm.05 8.31v-2.32h4.07v2.32ZM277.34 71h3.87v2.13h-3.87Zm.06 8.32V77h3.87v2.32Z" class="cls-2"/><path d="M270.46 102.01h-7.3l-2.45-7.41h7.3l2.45 7.41zM221.55 92.84v5.87h-2.89v4.26h3.29q5.61.15 5.38-5.26l-.17-26.11-9.47.06v4.84h3.67l.07 10.82-4.43 2v1.93h-4.06v-3.1q4.05-.41 3.83-4.86l-.09-14.5h-3.86v-2.51h4.25v-5.22h-4.25v-2.28h-6.38V61h-4.25v5.22h4.26v2.51h-3.87l.13 19.34h3.87v3.1h-4.44v5.23h4.45v6.77h6.38V96.4h4.45V95ZM208.08 73.4h3.29v2.7h-3.28Zm3.34 10h-3.28v-2.9h3.28v2.91Z" class="cls-2"/><path d="M228 65.34c-2.44 3-6 5.07-10.6 6.26v-4.65a14.17 14.17 0 0 0 6.91-8.24h7.35a15.87 15.87 0 0 0 7 8.11v4.64q-7-1.89-10.67-6.12" class="cls-2"/><path d="M227.94 94.74v-6l3.67-1.38-.07-11h-3.68v-4.83l9.67-.06.09 25.53q.24 6-5.76 5.83h-3.09v-4.25h2.89v-5.61ZM222.25 85.75l-4.66-1.21v-5.6l4.66 1.21v5.6z" class="cls-2"/><path d="m232.21 85.75-4.42-1.21v-5.6l4.42 1.21v5.6zM201.87 68.78h-5.71l-2.28-10.11h5.7l2.29 10.11zM201.85 80.94h-5.7l-2.29-10.72h5.71l2.28 10.72zM199.13 103.19h-5.7l2.66-19.79h5.7l-2.66 19.79zM193.43 110.43h4.62c4.06 0 5.33 1.35 5.33 4.61 0 3.53-1.5 4.76-5.33 4.76h-1.66v4.2h-3Zm4.23 7c2 0 2.69-.53 2.69-2.32s-.7-2.33-2.69-2.33h-1.27v4.65ZM205.43 117.2c0-5.52 2.23-7 6.15-7s6.15 1.44 6.15 7-2.17 7-6.15 7-6.15-1.44-6.15-7m9.19 0c0-3.29-.54-4.54-3-4.54s-3 1.25-3 4.54.55 4.49 3 4.49 3-1.15 3-4.49M219.08 110.43h3.1l1.95 10.01h.12l2.07-8.7h3.43l1.95 8.7h.12l1.99-10.01h3.06l-3.1 13.54h-3.71l-2.09-8.58h-.11l-2.13 8.58h-3.71l-2.94-13.54zM247.3 121.4v2.57h-8.55v-13.54h8.28v2.58h-5.31v2.79h4.92v2.48h-4.92v3.12h5.58zM257.34 124l-3.19-5h-1.46v5h-3v-13.57h4.61c3.65 0 5.23 1.17 5.23 4.3 0 2.26-.8 3.47-2.54 4l3.81 5.25Zm-3.46-7.14c2 0 2.73-.39 2.73-2.1s-.74-2-2.73-2h-1.19v4.06ZM270.96 121.4v2.57h-8.55v-13.54h8.28v2.58h-5.31v2.79h4.92v2.48h-4.92v3.12h5.58zM278 110.43c4 0 6.59 1.13 6.59 6.77 0 5.23-2.61 6.77-6.59 6.77h-4.65v-13.54Zm-.16 11c2.5 0 3.69-.94 3.69-4.24 0-3.49-1.25-4.27-3.69-4.27h-1.52v8.51ZM292.32 110.43h4.57c4 0 5.05 1.21 5.05 3.65a2.49 2.49 0 0 1-2 2.77v.08a2.92 2.92 0 0 1 2.38 3.14c0 2.46-1.09 3.9-5.05 3.9h-5Zm4 5.58c1.93 0 2.73-.29 2.73-1.62s-.78-1.6-2.73-1.6h-1V116Zm.37 5.58c2.09 0 2.69-.33 2.69-1.71s-.58-1.72-2.69-1.72h-1.36v3.43ZM307.82 118.61l-4.92-8.18h3.47l2.91 5.41h.12l3-5.41h3.34l-4.94 8.12v5.42h-2.98v-5.36zM321.07 110.43h3.28l3.26 10.38h.12l3.37-10.38h3.09l-4.76 13.54h-3.69l-4.67-13.54zM342.78 120.62h-5.51L336.1 124H333l5.05-13.54h4l5 13.54h-3.14Zm-.86-2.46-1.76-5.16h-.23l-1.8 5.13ZM348.19 123.68v-2.59a13 13 0 0 0 3.82.54c1.8 0 2.38-.41 2.38-1.62 0-1-.39-1.4-2.46-1.91-2.88-.66-3.72-1.48-3.72-3.9 0-2.87 1.81-4 5-4a10.89 10.89 0 0 1 3.48.49v2.43a14 14 0 0 0-3.36-.48c-1.54 0-2.18.29-2.18 1.44 0 .88.31 1.19 2.3 1.66 3.24.78 3.94 1.79 3.94 4.31s-1.48 4.08-5.21 4.08a15.73 15.73 0 0 1-3.94-.49M368.35 113.03h-3.55v10.94h-2.95v-10.94h-3.55v-2.6h10.05v2.6zM369.54 123.68v-2.59a13 13 0 0 0 3.83.54c1.79 0 2.38-.41 2.38-1.62 0-1-.39-1.4-2.46-1.91-2.89-.66-3.73-1.48-3.73-3.9 0-2.87 1.82-4 5-4a10.77 10.77 0 0 1 3.47.49v2.43a13.84 13.84 0 0 0-3.36-.48c-1.54 0-2.18.29-2.18 1.44 0 .88.31 1.19 2.3 1.66 3.24.78 3.95 1.79 3.95 4.31s-1.49 4.08-5.22 4.08a15.73 15.73 0 0 1-3.94-.49M389.7 113.03h-3.55v10.94h-2.95v-10.94h-3.54v-2.6h10.04v2.6zM399.17 124l-3.17-5h-1.46v5h-3v-13.57h4.61c3.65 0 5.23 1.17 5.23 4.3 0 2.26-.8 3.47-2.54 4l3.8 5.25Zm-3.45-7.14c2 0 2.73-.39 2.73-2.1s-.74-2-2.73-2h-1.19v4.06ZM412.8 121.4v2.57h-8.55v-13.54h8.27v2.58h-5.3v2.79h4.91v2.48h-4.91v3.12h5.58zM423.53 120.62H418l-1.14 3.38h-3.08l5.05-13.54h4l5 13.54h-3.15Zm-.85-2.46-1.76-5.16h-.24l-1.79 5.13ZM429.37 110.43h4.82l2.25 7.63h.12l2.34-7.63h4.68v13.54h-2.93v-10.65h-.11l-2.62 8.1h-2.97l-2.57-8.1h-.12v10.65h-2.89v-13.54z" class="cls-2"/><g style="clip-path:url(#clip-path)"><path d="M153.38 61.61h15.04v17.18h-15.04z" style="fill:url(#未命名的渐变_2)" transform="rotate(-89.19 160.903 70.195)"/></g><g style="clip-path:url(#clip-path-2)"><path d="M85.85 110h82.79v31H85.85z" style="fill:url(#未命名的渐变_3)"/></g><path d="M172.34 63.62a34.09 34.09 0 0 0-30.23-18.33c-1.05 0-2.08 0-3.11.14a34.07 34.07 0 0 0-31 33.93c0 .81 0 1.62.09 2.41a34.08 34.08 0 0 1 61.27-4.17h6.75a33.79 33.79 0 0 0-3.8-14" class="cls-2"/><path d="M129.85 26.07a42.81 42.81 0 0 0-23.26 78.75 42.81 42.81 0 0 1 59.94-58 42.77 42.77 0 0 0-36.68-20.73" style="fill:#1941af"/><path d="M85.84 112.54a62 62 0 0 1 41.6-93.1A62 62 0 1 0 125.79 141a62.08 62.08 0 0 1-39.95-28.47" class="cls-2"/></svg>