<?xml version="1.0" standalone="no"?>
<!DOCTYPE svg PUBLIC "-//W3C//DTDSVG1.1//EN" "http://www.w3.org/Graphics/SVG/1.1/DTD/svg11.dtd">
<svg t="1690649070916" class="icon" viewBox="0 0 1024 1024" version="1.1" xmlns="http://www.w3.org/2000/svg" p-id="3893" width="200" height="200">
  <path d="M576 352h192c19.2 0 32 12.8 32 32v384c0 19.2-12.8 32-32 32H256c-19.2 0-32-12.8-32-32V256c0-19.2 12.8-32 32-32h288c19.2 0 32 12.8 32 32v96z m0 64v320h160V416h-160zM288 288v448h224V288H288z m96 64h32c19.2 0 32 12.8 32 32s-12.8 32-32 32h-32c-19.2 0-32-12.8-32-32s12.8-32 32-32z m0 128h32c19.2 0 32 12.8 32 32s-12.8 32-32 32h-32c-19.2 0-32-12.8-32-32s12.8-32 32-32z m0 128h32c19.2 0 32 12.8 32 32s-12.8 32-32 32h-32c-19.2 0-32-12.8-32-32s12.8-32 32-32z m256-128h32c19.2 0 32 12.8 32 32s-12.8 32-32 32h-32c-19.2 0-32-12.8-32-32s12.8-32 32-32z m0 128h32c19.2 0 32 12.8 32 32s-12.8 32-32 32h-32c-19.2 0-32-12.8-32-32s12.8-32 32-32z" fill="#202425" p-id="3894"></path>
</svg>
